<?xml version="1.0" encoding="UTF-8"?>
<svg width="114px" height="31px" viewBox="0 0 114 31" version="1.1" xmlns="http://www.w3.org/2000/svg" xmlns:xlink="http://www.w3.org/1999/xlink">
    <!-- Generator: Sketch 49.3 (51167) - http://www.bohemiancoding.com/sketch -->
    <title>logo_spare@1x</title>
    <desc>Created with Sketch.</desc>
    <defs></defs>
    <g id="Symbols" stroke="none" stroke-width="1" fill="none" fill-rule="evenodd">
        <g id="nav-/-primary" transform="translate(-32.000000, -36.000000)">
            <g id="Group">
                <g id="logo_spare" transform="translate(34.000000, 31.000000)">
                    <path d="M49.5875,12.255 C49.4774995,12.4750011 49.3500007,12.6299996 49.205,12.72 C49.0599993,12.8100005 48.887501,12.855 48.6875,12.855 C48.487499,12.855 48.2625013,12.7775008 48.0125,12.6225 C47.7624988,12.4674992 47.4675017,12.295001 47.1275,12.105 C46.7874983,11.9149991 46.3900023,11.7425008 45.935,11.5875 C45.4799977,11.4324992 44.9425031,11.355 44.3225,11.355 C43.7624972,11.355 43.2750021,11.4224993 42.86,11.5575 C42.4449979,11.6925007 42.0950014,11.8799988 41.81,12.12 C41.5249986,12.3600012 41.3125007,12.6474983 41.1725,12.9825 C41.0324993,13.3175017 40.9625,13.684998 40.9625,14.085 C40.9625,14.5950026 41.1049986,15.0199983 41.39,15.36 C41.6750014,15.7000017 42.0524977,15.9899988 42.5225,16.23 C42.9925024,16.4700012 43.527497,16.684999 44.1275,16.875 C44.727503,17.065001 45.3399969,17.2674989 45.965,17.4825 C46.5900031,17.6975011 47.202497,17.9474986 47.8025,18.2325 C48.402503,18.5175014 48.9374977,18.8774978 49.4075,19.3125 C49.8775024,19.7475022 50.2549986,20.2799968 50.54,20.91 C50.8250014,21.5400032 50.9675,22.3049955 50.9675,23.205 C50.9675,24.1850049 50.8000017,25.1024957 50.465,25.9575 C50.1299983,26.8125043 49.6400032,27.5574968 48.995,28.1925 C48.3499968,28.8275032 47.5625047,29.3274982 46.6325,29.6925 C45.7024954,30.0575018 44.637506,30.24 43.4375,30.24 C42.7474966,30.24 42.0675034,30.1725007 41.3975,30.0375 C40.7274967,29.9024993 40.0850031,29.7100012 39.47,29.46 C38.8549969,29.2099988 38.2800027,28.9100017 37.745,28.56 C37.2099973,28.2099982 36.7325021,27.8200022 36.3125,27.39 L37.4825,25.455 C37.5925006,25.3149993 37.7249992,25.1975005 37.88,25.1025 C38.0350008,25.0074995 38.2074991,24.96 38.3975,24.96 C38.6475013,24.96 38.9174986,25.062499 39.2075,25.2675 C39.4975015,25.472501 39.839998,25.6999987 40.235,25.95 C40.630002,26.2000012 41.0949973,26.427499 41.63,26.6325 C42.1650027,26.837501 42.8074963,26.94 43.5575,26.94 C44.7075058,26.94 45.5974969,26.6675027 46.2275,26.1225 C46.8575032,25.5774973 47.1725,24.7950051 47.1725,23.775 C47.1725,23.2049972 47.0300014,22.7400018 46.745,22.38 C46.4599986,22.0199982 46.0825024,21.7175012 45.6125,21.4725 C45.1424977,21.2274988 44.607503,21.0200009 44.0075,20.85 C43.407497,20.6799992 42.7975031,20.495001 42.1775,20.295 C41.5574969,20.094999 40.947503,19.8550014 40.3475,19.575 C39.747497,19.2949986 39.2125024,18.9300023 38.7425,18.48 C38.2724977,18.0299977 37.8950014,17.4675034 37.61,16.7925 C37.3249986,16.1174966 37.1825,15.285005 37.1825,14.295 C37.1825,13.5049961 37.3399984,12.7350038 37.655,11.985 C37.9700016,11.2349963 38.429997,10.5700029 39.035,9.99 C39.640003,9.4099971 40.3824956,8.94500175 41.2625,8.595 C42.1425044,8.24499825 43.1474944,8.07 44.2775,8.07 C45.5575064,8.07 46.7374946,8.269998 47.8175,8.67 C48.8975054,9.070002 49.8174962,9.6299964 50.5775,10.35 L49.5875,12.255 Z M53.7275,35.025 L53.7275,14.61 L55.9925,14.61 C56.2325012,14.61 56.4374992,14.6649994 56.6075,14.775 C56.7775009,14.8850006 56.8874998,15.0549989 56.9375,15.285 L57.2375,16.71 C57.8575031,15.9999965 58.569996,15.4250022 59.375,14.985 C60.180004,14.5449978 61.1224946,14.325 62.2025,14.325 C63.0425042,14.325 63.8099965,14.4999983 64.505,14.85 C65.2000035,15.2000017 65.7999975,15.7074967 66.305,16.3725 C66.8100025,17.0375033 67.1999986,17.8574951 67.475,18.8325 C67.7500014,19.8075049 67.8875,20.9249937 67.8875,22.185 C67.8875,23.3350058 67.7325016,24.3999951 67.4225,25.38 C67.1124985,26.3600049 66.6700029,27.2099964 66.095,27.93 C65.5199971,28.6500036 64.8250041,29.212498 64.01,29.6175 C63.1949959,30.022502 62.2825051,30.225 61.2725,30.225 C60.4024957,30.225 59.665003,30.0925013 59.06,29.8275 C58.454997,29.5624987 57.9125024,29.1950023 57.4325,28.725 L57.4325,35.025 L53.7275,35.025 Z M60.9275,17.25 C60.1574962,17.25 59.5000027,17.4124984 58.955,17.7375 C58.4099973,18.0625016 57.9025024,18.519997 57.4325,19.11 L57.4325,26.01 C57.8525021,26.5300026 58.3099975,26.892499 58.805,27.0975 C59.3000025,27.302501 59.8324972,27.405 60.4025,27.405 C60.9625028,27.405 61.4699977,27.300001 61.925,27.09 C62.3800023,26.8799989 62.7649984,26.5600021 63.08,26.13 C63.3950016,25.6999978 63.6374992,25.1575033 63.8075,24.5025 C63.9775009,23.8474967 64.0625,23.0750044 64.0625,22.185 C64.0625,21.2849955 63.9900007,20.5225031 63.845,19.8975 C63.6999993,19.2724969 63.4925014,18.7650019 63.2225,18.375 C62.9524987,17.984998 62.6250019,17.7000009 62.24,17.52 C61.8549981,17.3399991 61.4175025,17.25 60.9275,17.25 Z M82.6325,30 L80.9675,30 C80.6174983,30 80.342501,29.9475005 80.1425,29.8425 C79.942499,29.7374995 79.7925005,29.5250016 79.6925,29.205 L79.3625,28.11 C78.9724981,28.4600017 78.5900019,28.7674987 78.215,29.0325 C77.8399981,29.2975013 77.452502,29.5199991 77.0525,29.7 C76.652498,29.8800009 76.2275023,30.0149995 75.7775,30.105 C75.3274978,30.1950005 74.8275028,30.24 74.2775,30.24 C73.6274968,30.24 73.0275028,30.1525009 72.4775,29.9775 C71.9274973,29.8024991 71.455002,29.5400018 71.06,29.19 C70.664998,28.8399983 70.3575011,28.4050026 70.1375,27.885 C69.9174989,27.3649974 69.8075,26.7600034 69.8075,26.07 C69.8075,25.4899971 69.9599985,24.9175028 70.265,24.3525 C70.5700015,23.7874972 71.0774965,23.2775023 71.7875,22.8225 C72.4975036,22.3674977 73.4424941,21.9900015 74.6225,21.69 C75.8025059,21.3899985 77.2674913,21.2200002 79.0175,21.18 L79.0175,20.28 C79.0175,19.2499949 78.8000022,18.4875025 78.365,17.9925 C77.9299978,17.4974975 77.2975042,17.25 76.4675,17.25 C75.867497,17.25 75.367502,17.3199993 74.9675,17.46 C74.567498,17.6000007 74.2200015,17.7574991 73.925,17.9325 C73.6299985,18.1075009 73.3575013,18.2649993 73.1075,18.405 C72.8574988,18.5450007 72.5825015,18.615 72.2825,18.615 C72.0324988,18.615 71.8175009,18.5500007 71.6375,18.42 C71.4574991,18.2899994 71.3125006,18.130001 71.2025,17.94 L70.5275,16.755 C72.2975089,15.1349919 74.4324875,14.325 76.9325,14.325 C77.8325045,14.325 78.6349965,14.4724985 79.34,14.7675 C80.0450035,15.0625015 80.6424976,15.4724974 81.1325,15.9975 C81.6225025,16.5225026 81.9949987,17.1499964 82.25,17.88 C82.5050013,18.6100037 82.6325,19.4099957 82.6325,20.28 L82.6325,30 Z M75.4325,27.69 C75.8125019,27.69 76.1624984,27.6550004 76.4825,27.585 C76.8025016,27.5149997 77.1049986,27.4100007 77.39,27.27 C77.6750014,27.1299993 77.9499987,26.957501 78.215,26.7525 C78.4800013,26.547499 78.7474987,26.3050014 79.0175,26.025 L79.0175,23.43 C77.9374946,23.4800002 77.0350036,23.5724993 76.31,23.7075 C75.5849964,23.8425007 75.0025022,24.0149989 74.5625,24.225 C74.1224978,24.4350011 73.8100009,24.6799986 73.625,24.96 C73.4399991,25.2400014 73.3475,25.5449984 73.3475,25.875 C73.3475,26.5250033 73.5399981,26.9899986 73.925,27.27 C74.3100019,27.5500014 74.8124969,27.69 75.4325,27.69 Z M86.1575,30 L86.1575,14.61 L88.3325,14.61 C88.7125019,14.61 88.9774992,14.6799993 89.1275,14.82 C89.2775007,14.9600007 89.3774997,15.1999983 89.4275,15.54 L89.6525,17.4 C90.2025027,16.4499953 90.8474963,15.7000028 91.5875,15.15 C92.3275037,14.5999973 93.1574954,14.325 94.0775,14.325 C94.8375038,14.325 95.4674975,14.4999983 95.9675,14.85 L95.4875,17.625 C95.4574998,17.8050009 95.3925005,17.9324996 95.2925,18.0075 C95.1924995,18.0825004 95.0575008,18.12 94.8875,18.12 C94.7374992,18.12 94.5325013,18.0850004 94.2725,18.015 C94.0124987,17.9449996 93.6675021,17.91 93.2375,17.91 C92.4674961,17.91 91.8075027,18.1224979 91.2575,18.5475 C90.7074972,18.9725021 90.2425019,19.5949959 89.8625,20.415 L89.8625,30 L86.1575,30 Z M104.6525,14.37 C105.622505,14.37 106.514996,14.5249985 107.33,14.835 C108.145004,15.1450015 108.847497,15.597497 109.4375,16.1925 C110.027503,16.787503 110.487498,17.5174957 110.8175,18.3825 C111.147502,19.2475043 111.3125,20.2349944 111.3125,21.345 C111.3125,21.6250014 111.3,21.8574991 111.275,22.0425 C111.25,22.2275009 111.205,22.3724995 111.14,22.4775 C111.075,22.5825005 110.987501,22.6574998 110.8775,22.7025 C110.767499,22.7475002 110.627501,22.77 110.4575,22.77 L100.9475,22.77 C101.057501,24.3500079 101.482496,25.5099963 102.2225,26.25 C102.962504,26.9900037 103.942494,27.36 105.1625,27.36 C105.762503,27.36 106.279998,27.2900007 106.715,27.15 C107.150002,27.0099993 107.529998,26.8550008 107.855,26.685 C108.180002,26.5149992 108.464999,26.3600007 108.71,26.22 C108.955001,26.0799993 109.192499,26.01 109.4225,26.01 C109.572501,26.01 109.702499,26.0399997 109.8125,26.1 C109.922501,26.1600003 110.0175,26.2449995 110.0975,26.355 L111.1775,27.705 C110.767498,28.1850024 110.307503,28.5874984 109.7975,28.9125 C109.287497,29.2375016 108.755003,29.497499 108.2,29.6925 C107.644997,29.887501 107.080003,30.0249996 106.505,30.105 C105.929997,30.1850004 105.372503,30.225 104.8325,30.225 C103.762495,30.225 102.767505,30.0475018 101.8475,29.6925 C100.927495,29.3374982 100.127503,28.8125035 99.4475,28.1175 C98.7674966,27.4224965 98.2325019,26.5625051 97.8425,25.5375 C97.452498,24.5124949 97.2575,23.3250068 97.2575,21.975 C97.2575,20.9249947 97.4274983,19.9375046 97.7675,19.0125 C98.1075017,18.0874954 98.5949968,17.2825034 99.23,16.5975 C99.8650032,15.9124966 100.639995,15.370002 101.555,14.97 C102.470005,14.569998 103.502494,14.37 104.6525,14.37 Z M104.7275,17.025 C103.647495,17.025 102.802503,17.329997 102.1925,17.94 C101.582497,18.5500031 101.192501,19.4149944 101.0225,20.535 L107.9825,20.535 C107.9825,20.0549976 107.917501,19.6025021 107.7875,19.1775 C107.657499,18.7524979 107.457501,18.3800016 107.1875,18.06 C106.917499,17.7399984 106.577502,17.4875009 106.1675,17.3025 C105.757498,17.1174991 105.277503,17.025 104.7275,17.025 Z" id="Spare" fill="#253673"></path>
                    <circle id="Oval" stroke="#253673" stroke-width="4" cx="12" cy="19" r="12"></circle>
                </g>
            </g>
        </g>
    </g>
</svg>