<?xml version="1.0" encoding="UTF-8"?>
<svg width="46px" height="46px" viewBox="0 0 46 46" version="1.1" xmlns="http://www.w3.org/2000/svg" xmlns:xlink="http://www.w3.org/1999/xlink">
    <!-- Generator: Sketch 51.1 (57501) - http://www.bohemiancoding.com/sketch -->
    <title>icon / donors / donation </title>
    <desc>Created with Sketch.</desc>
    <defs></defs>
    <g id="icon-/-donors-/-donation-" stroke="none" stroke-width="1" fill="none" fill-rule="evenodd">
        <g id="Group">
            <rect id="Rectangle" fill="#FFFFFF" x="0" y="0" width="46" height="46"></rect>
            <path d="M12.4501251,7.35960509 L5.48012511,13.9716051 C4.79012511,14.6231051 4.87462511,15.4441051 5.53662511,16.0671051 L12.4781251,22.6221051 C12.9286251,23.1031051 13.7596251,23.1171051 14.2101251,22.6356051 C14.6606251,22.1686051 14.6046251,21.3191051 14.1116251,20.9086051 L9.14112511,16.1801051 L39.5556251,16.1801051 C40.1896251,16.1941051 40.7666251,15.6281051 40.7666251,14.9906051 C40.7666251,14.3536051 40.1896251,13.7871051 39.5556251,13.7871051 L9.12712511,13.7871051 L14.1116251,9.07260509 C15.3226251,7.67110509 13.5066251,6.34010509 12.4501251,7.35960509 Z M31.6426251,25.0431051 L36.6131251,29.7576051 L6.21262511,29.7576051 C5.57912511,29.7436051 5.00162511,30.3241051 5.00162511,30.9471051 C5.00162511,31.5841051 5.57912511,32.1651051 6.21262511,32.1506051 L36.6271251,32.1506051 L31.6426251,36.8791051 C31.0791251,37.4171051 31.2196251,38.2101051 31.6006251,38.5776051 C32.2061251,39.1581051 32.8401251,39.0166051 33.3186251,38.5916051 L40.2881251,31.9801051 C40.9786251,31.3286051 40.8936251,30.5076051 40.2316251,29.8701051 L33.2901251,23.3011051 C32.0506251,22.1266051 30.4316251,23.8961051 31.6426251,25.0431051 Z" id="Shape" fill="#495366" fill-rule="nonzero"></path>
        </g>
    </g>
</svg>