<?xml version="1.0" encoding="UTF-8"?>
<svg width="46px" height="46px" viewBox="0 0 46 46" version="1.1" xmlns="http://www.w3.org/2000/svg" xmlns:xlink="http://www.w3.org/1999/xlink">
    <!-- Generator: Sketch 51.1 (57501) - http://www.bohemiancoding.com/sketch -->
    <title>icon / donors / email</title>
    <desc>Created with Sketch.</desc>
    <defs></defs>
    <g id="icon-/-donors-/-email" stroke="none" stroke-width="1" fill="none" fill-rule="evenodd">
        <rect id="Rectangle" fill="#FFFFFF" x="0" y="0" width="46" height="46"></rect>
        <path d="M8.22209392,11 C5.90345702,11 4,12.8309035 4,15.0608705 L4,31.9385974 C4,34.1685644 5.9040062,36 8.22209392,36 L38.7779061,36 C41.096543,36 43,34.1690965 43,31.9385974 L43,15.0608705 C43,12.8314356 41.0959938,11 38.7779061,11 L8.22209392,11 Z M8.22209392,13.4954773 L38.7779061,13.4954773 C39.6988805,13.4954773 40.4051257,14.1744174 40.4051257,15.0603384 L40.4051257,15.3263808 L23.5151024,24.9693519 L6.59432514,15.3269128 L6.59432514,15.0608705 C6.59432514,14.1749495 7.3005703,13.4954773 8.22209392,13.4954773 Z M6.59432514,18.2352879 L22.8544392,27.4935618 C23.2542421,27.7298074 23.7759628,27.7298074 24.1752165,27.4935618 L40.4045765,18.2352879 L40.4045765,31.9380653 C40.4045765,32.8245185 39.6983313,33.5039906 38.7773569,33.5039906 L8.22209392,33.5039906 C7.30111948,33.5039906 6.59487432,32.8245185 6.59487432,31.9380653 L6.59487432,18.2352879 L6.59432514,18.2352879 Z" id="Shape" fill="#495366" fill-rule="nonzero"></path>
    </g>
</svg>