<?xml version="1.0" encoding="UTF-8"?>
<svg width="46px" height="46px" viewBox="0 0 46 46" version="1.1" xmlns="http://www.w3.org/2000/svg" xmlns:xlink="http://www.w3.org/1999/xlink">
    <!-- Generator: Sketch 51.1 (57501) - http://www.bohemiancoding.com/sketch -->
    <title>icon / donors / requests</title>
    <desc>Created with Sketch.</desc>
    <defs></defs>
    <g id="icon-/-donors-/-requests" stroke="none" stroke-width="1" fill="none" fill-rule="evenodd">
        <g id="Group">
            <rect id="Rectangle" fill="#FFFFFF" x="0" y="0" width="46" height="46"></rect>
            <path d="M14.9090909,5 C12.9115509,5 11.2727273,6.6224354 11.2727273,8.6 C11.2727273,10.5775651 12.9115509,12.2 14.9090909,12.2 C15.3160518,12.2 15.7075736,12.1270235 16.0738636,12.003125 L19.5113636,17.9375 C18.9132409,18.4579394 18.4052409,19.0835204 18.0198864,19.7796875 L11.2585227,17.4171875 C11.2652414,17.328425 11.2727273,17.2403708 11.2727273,17.15 C11.2727273,15.1724354 9.63390364,13.55 7.63636364,13.55 C5.63882386,13.55 4,15.1724354 4,17.15 C4,19.1275651 5.63882386,20.75 7.63636364,20.75 C8.90733955,20.75 10.0256505,20.0915974 10.6761364,19.1046875 L17.3806818,21.453125 C17.2620368,21.9505046 17.1818182,22.4675393 17.1818182,23 C17.1818182,24.4230008 17.6249032,25.7488777 18.3892045,26.8390625 L12.6789773,32.4921875 C12.1439486,32.1843218 11.53441,32 10.875,32 C8.87746045,32 7.23863636,33.6224354 7.23863636,35.6 C7.23863636,37.577565 8.87746045,39.2 10.875,39.2 C12.87254,39.2 14.5113636,37.577565 14.5113636,35.6 C14.5113636,34.9210225 14.3059973,34.2875493 13.9715909,33.74375 L19.6107955,28.1609375 C20.7974309,29.1516076 22.331885,29.75 24,29.75 C25.0673186,29.75 26.0679445,29.4967998 26.96875,29.0609375 L30.3920455,35.009375 C29.8139623,35.6473333 29.4545455,36.4819307 29.4545455,37.4 C29.4545455,39.3775646 31.0933691,41 33.0909091,41 C35.0884491,41 36.7272727,39.3775646 36.7272727,37.4 C36.7272727,35.4224349 35.0884491,33.8 33.0909091,33.8 C32.6839482,33.8 32.2924264,33.8729765 31.9261364,33.996875 L28.4886364,28.0625 C29.0867591,27.5420606 29.5947586,26.9164796 29.9801136,26.2203125 L36.7414773,28.5828125 C36.7347586,28.671575 36.7272727,28.7596292 36.7272727,28.85 C36.7272727,30.8275646 38.3660964,32.45 40.3636364,32.45 C42.3611764,32.45 44,30.8275646 44,28.85 C44,26.8724349 42.3611764,25.25 40.3636364,25.25 C39.0926605,25.25 37.9743495,25.9084026 37.3238636,26.8953125 L30.6193182,24.546875 C30.7379632,24.0494954 30.8181818,23.5324607 30.8181818,23 C30.8181818,21.5769992 30.3750973,20.2511223 29.6107955,19.1609375 L33.2755682,15.5328125 C33.5447107,15.2751441 33.6267815,14.8804822 33.482334,14.5385183 C33.3378864,14.1965544 32.99646,13.9772203 32.6221591,13.9859375 C32.3847043,13.995221 32.1603588,14.0961765 31.9971591,14.2671875 L28.3892045,17.8390625 C27.2025691,16.8483924 25.668115,16.25 24,16.25 C22.9326814,16.25 21.9320555,16.5032001 21.03125,16.9390625 L17.6079545,10.990625 C18.1860377,10.3526668 18.5454545,9.5180693 18.5454545,8.6 C18.5454545,6.6224354 16.9066309,5 14.9090909,5 Z M14.9090909,6.8 C15.9240132,6.8 16.7272727,7.5952265 16.7272727,8.6 C16.7272727,9.6047726 15.9240132,10.4 14.9090909,10.4 C13.8941686,10.4 13.0909091,9.6047726 13.0909091,8.6 C13.0909091,7.5952265 13.8941686,6.8 14.9090909,6.8 Z M37.125,6.8 C35.12746,6.8 33.4886364,8.42243495 33.4886364,10.4 C33.4886364,12.3775646 35.12746,14 37.125,14 C39.12254,14 40.7613636,12.3775646 40.7613636,10.4 C40.7613636,8.42243495 39.12254,6.8 37.125,6.8 Z M37.125,8.6 C38.1399223,8.6 38.9431818,9.3952274 38.9431818,10.4 C38.9431818,11.4047735 38.1399223,12.2 37.125,12.2 C36.1100777,12.2 35.3068182,11.4047735 35.3068182,10.4 C35.3068182,9.3952274 36.1100777,8.6 37.125,8.6 Z M7.63636364,15.35 C8.65128591,15.35 9.45454545,16.1452265 9.45454545,17.15 C9.45454545,18.1547726 8.65128591,18.95 7.63636364,18.95 C6.62144136,18.95 5.81818182,18.1547726 5.81818182,17.15 C5.81818182,16.1452265 6.62144136,15.35 7.63636364,15.35 Z M24,18.05 C26.7721909,18.05 29,20.2555305 29,23 C29,25.744469 26.7721909,27.95 24,27.95 C21.2278091,27.95 19,25.744469 19,23 C19,20.2555305 21.2278091,18.05 24,18.05 Z M40.3636364,27.05 C41.3785586,27.05 42.1818182,27.8452274 42.1818182,28.85 C42.1818182,29.8547735 41.3785586,30.65 40.3636364,30.65 C39.3487141,30.65 38.5454545,29.8547735 38.5454545,28.85 C38.5454545,27.8452274 39.3487141,27.05 40.3636364,27.05 Z M10.875,33.8 C11.8899223,33.8 12.6931818,34.5952265 12.6931818,35.6 C12.6931818,36.6047726 11.8899223,37.4 10.875,37.4 C9.86007773,37.4 9.05681818,36.6047726 9.05681818,35.6 C9.05681818,34.5952265 9.86007773,33.8 10.875,33.8 Z M33.0909091,35.6 C34.1058314,35.6 34.9090909,36.3952274 34.9090909,37.4 C34.9090909,38.4047735 34.1058314,39.2 33.0909091,39.2 C32.0759868,39.2 31.2727273,38.4047735 31.2727273,37.4 C31.2727273,36.3952274 32.0759868,35.6 33.0909091,35.6 Z" id="Shape" stroke="#495366" stroke-width="0.75" fill="#495366" fill-rule="nonzero"></path>
        </g>
    </g>
</svg>