<?xml version="1.0" encoding="UTF-8" standalone="no"?>
<svg width="160px" height="160px" viewBox="0 0 160 160" version="1.1" xmlns="http://www.w3.org/2000/svg" xmlns:xlink="http://www.w3.org/1999/xlink">
    <!-- Generator: Sketch 50.2 (55047) - http://www.bohemiancoding.com/sketch -->
    <title>tile / donate / catfood</title>
    <desc>Created with Sketch.</desc>
    <defs></defs>
    <g id="tile-/-donate-/-catfood" stroke="none" stroke-width="1" fill="none" fill-rule="evenodd">
        <g id="noun_Fish_552115" transform="translate(25.000000, 36.000000)" fill-rule="nonzero">
            <g id="Group" transform="translate(56.000000, 42.500000) rotate(17.000000) translate(-56.000000, -42.500000) translate(7.000000, 14.000000)">
                <path d="M97.4571904,22.4948161 C98.6551891,19.3047703 97.6009503,17.6081916 96.8701711,16.8793797 C94.2225941,14.2389298 89.1430798,16.544843 85.5011639,20.1769551 C84.3336324,21.3352376 83.3227606,22.6406118 82.4941873,24.0599696 C79.6549305,19.4959341 73.5690973,15.6965537 65.4466664,13.1277902 L65.4466664,10.1050128 C65.3902662,9.00648584 64.845642,7.99025439 63.9611481,7.33313779 C59.0613336,3.09169115 39.3422758,-0.863009803 31.986564,0.16449558 C26.7632899,0.797725641 23.5167136,4.59710601 23.5167136,10.0811173 L23.5167136,11.8374346 C9.47616935,15.0872191 0,21.8854815 0,29.9502039 C0,38.9229544 11.7643468,46.3424991 28.500388,48.9948967 L28.500388,51.6233989 C28.5035427,53.0566593 29.0791187,54.4296108 30.0998114,55.4385872 C31.1205041,56.4475636 32.5022011,57.0094179 33.9393018,56.9998805 C49.3216046,56.5339188 49.3216046,54.1204759 49.3216046,52.8181726 L49.3216046,49.7356564 C64.4882675,48.5408827 76.6719138,43.6184151 81.7274681,36.9276824 C82.6023998,38.6224899 83.7428516,40.1672318 85.1058243,41.5036656 C87.6575615,44.0485336 90.9161178,45.9482238 93.4918149,45.9482238 C94.5933925,45.9699645 95.6552123,45.5377354 96.4269116,44.7534501 C97.1576908,44.0246381 98.2119296,42.3639027 97.0139309,39.1380137 C96.1266162,36.98251 94.8008917,35.033856 93.1204353,33.4150477 C92.1825319,32.4762888 91.150887,31.6355797 90.0415788,30.9060229 C91.2981483,30.1263938 92.4599595,29.204258 93.5037949,28.1580434 C95.1990357,26.5623507 96.5450272,24.6342218 97.4571904,22.4948161 Z M27.1107095,10.1050128 C27.1107095,7.5004061 28.0331685,4.27451711 32.4537835,3.73686895 C35.9040196,3.24701173 42.8044919,3.98777142 49.6211042,5.58876818 C57.7315551,7.5004061 61.2776311,9.50762592 61.8526705,10.2722811 L61.8526705,12.1122326 C55.3964159,10.5562819 48.775653,9.78206114 42.1336126,9.80631935 C37.0942021,9.79459443 32.0634147,10.2223595 27.0987295,11.0847272 L27.1107095,10.1050128 Z M22.3187149,44.0007427 C11.2132674,41.0735471 3.62993592,35.8045951 3.62993592,29.9502039 C3.62993592,24.5617746 10.0512087,19.6751501 19.7310378,16.6404249 C23.8894519,25.1476124 24.7966328,34.8746171 22.282775,44.0007427 L22.3187149,44.0007427 Z M45.7755285,52.0774129 C44.0264505,52.7225907 38.5156567,53.2721866 33.9393018,53.4155594 C32.9468473,53.4155594 32.1423039,52.6131818 32.1423039,51.6233989 L32.1423039,49.4728062 C35.4755525,49.8470541 38.8272272,50.0345298 42.1815326,50.0343499 C43.3795312,50.0343499 44.5775299,50.0343499 45.7755285,49.9626634 L45.7755285,52.0774129 Z M42.1815326,46.438081 C36.6659202,46.4589839 31.1625637,45.9185367 25.756971,44.8251365 C28.4135363,35.1105797 27.5087512,24.7695702 23.2052339,15.6607105 C29.4001489,14.147353 35.7555586,13.3851523 42.1336126,13.3906404 C63.0267092,13.3906404 80.6732293,20.9416102 80.6732293,29.8904653 C80.6732293,38.8393203 63.0267092,46.438081 42.1336126,46.438081 L42.1815326,46.438081 Z M90.6765181,35.9957589 C91.9946455,37.2581443 93.0420838,38.7742639 93.7553746,40.4522648 C94.2106141,41.6470385 94.0428943,42.2205299 93.9949743,42.2802685 C93.6235948,42.6506484 90.7963179,42.0652093 87.7054814,38.9826931 C86.3868435,37.7207405 85.3393284,36.2045096 84.6266249,34.5261872 C84.1713854,33.3314135 84.3391052,32.7579221 84.3870251,32.6981835 C84.4570083,32.6476059 84.5402907,32.6185355 84.6266249,32.6145493 C84.8061931,32.6242496 84.9861561,32.6242496 85.1657243,32.6145493 L85.2495842,32.6145493 C87.3290869,33.2148475 89.1972712,34.3865651 90.6405781,35.9957589 L90.6765181,35.9957589 Z M85.357404,29.0660714 L84.8901846,29.0660714 C84.8901846,29.0660714 84.7943447,29.0660714 84.7703847,29.0660714 C84.3990051,28.6956916 84.9860245,25.8760256 88.076861,22.7935095 C90.6166181,20.1530596 93.0006355,19.364509 93.9470544,19.364509 C94.0861098,19.3472667 94.2266929,19.3812558 94.3423939,19.4600909 C94.3423939,19.4600909 94.5580337,20.0574777 94.1027942,21.2880946 C93.3900907,22.966417 92.3425756,24.4826479 91.0239377,25.7446005 C89.5182418,27.4193399 87.5238419,28.5810009 85.3214641,29.0660714 L85.357404,29.0660714 Z" id="Shape" fill="#253673"></path>
                <circle id="Oval" fill="#000000" cx="14.5" cy="28.5" r="2.5"></circle>
            </g>
        </g>
    </g>
</svg>