<?xml version="1.0" encoding="UTF-8" standalone="no"?>
<svg width="112px" height="112px" viewBox="0 0 112 112" version="1.1" xmlns="http://www.w3.org/2000/svg" xmlns:xlink="http://www.w3.org/1999/xlink">
    <!-- Generator: Sketch 50.2 (55047) - http://www.bohemiancoding.com/sketch -->
    <title>catfood</title>
    <desc>Created with Sketch.</desc>
    <defs>
        <rect id="path-1" x="0" y="0" width="112" height="112"></rect>
    </defs>
    <g id="Symbols" stroke="none" stroke-width="1" fill="none" fill-rule="evenodd">
        <g id="tile-/-donate-/-catfood" transform="translate(-24.000000, -24.000000)">
            <g id="catfood" transform="translate(24.000000, 24.000000)">
                <mask id="mask-2" fill="white">
                    <use xlink:href="#path-1"></use>
                </mask>
                <use id="Mask" fill="#FFFFFF" xlink:href="#path-1"></use>
                <g id="Group" mask="url(#mask-2)" fill-rule="nonzero">
                    <g transform="translate(56.540000, 56.356250) rotate(17.000000) translate(-56.540000, -56.356250) translate(12.317500, 30.635000)">
                        <path d="M87.9551144,20.3015715 C89.0363082,17.4225552 88.0848576,15.8913929 87.4253294,15.2336401 C85.0358912,12.8506341 80.4516295,14.9317208 77.1648004,18.209702 C76.1111032,19.2550519 75.1987914,20.4331521 74.451004,21.7141226 C71.8885747,17.5950805 66.3961103,14.1661397 59.0656165,11.8478307 L59.0656165,9.11977403 C59.0147153,8.12835347 58.5231919,7.21120459 57.7249362,6.61815685 C53.3028536,2.79025126 35.5064039,-0.778866347 28.867874,0.148457261 C24.1538691,0.719947391 21.223834,4.14888817 21.223834,9.09820836 L21.223834,10.6832848 C8.55224284,13.6162152 0,19.751647 0,27.0300591 C0,35.1279664 10.617323,41.8241055 25.7216001,44.2178943 L25.7216001,46.5901175 C25.7244473,47.883635 26.2439046,49.1227238 27.1650798,50.033325 C28.0862549,50.9439261 29.3332365,51.4509996 30.6302199,51.4423922 C44.5127481,51.0218617 44.5127481,48.8437295 44.5127481,47.6684008 L44.5127481,44.8864299 C58.2006614,43.8081467 69.1964022,39.3656196 73.75904,33.3272333 C74.5486658,34.8567971 75.5779235,36.2509267 76.8080065,37.4570582 C79.1109492,39.7538016 82.0517963,41.468272 84.376363,41.468272 C85.3705367,41.487893 86.3288291,41.0978062 87.0252877,40.3899887 C87.6848159,39.7322359 88.6362665,38.2334222 87.5550727,35.3220574 C86.7542711,33.3767153 85.5578048,31.618055 84.0411929,30.1570805 C83.194735,29.3098507 82.2636755,28.5511107 81.2625249,27.8926857 C82.3965789,27.1890704 83.4451135,26.3568429 84.3871749,25.4126342 C85.9171297,23.9725215 87.1318871,22.2323852 87.9551144,20.3015715 Z M24.4674153,9.11977403 C24.4674153,6.76911651 25.2999346,3.85775169 29.2895396,3.37252422 C32.4033777,2.93042808 38.6310539,3.59896371 44.7830466,5.04386328 C52.1027285,6.76911651 55.3030621,8.58063239 55.8220351,9.27073368 L55.8220351,10.9312899 C49.9952654,9.52704446 44.0200269,8.82831018 38.0255854,8.85020321 C33.4775174,8.83962147 28.9372318,9.22567946 24.4566034,10.0039663 L24.4674153,9.11977403 Z M20.1426402,39.7106703 C10.1199738,37.0688763 3.27601717,32.3136471 3.27601717,27.0300591 C3.27601717,22.1670015 9.07121585,17.756823 17.8072616,15.0179835 C21.5602303,22.6957202 22.3789611,31.4743419 20.1102044,39.7106703 L20.1426402,39.7106703 Z M41.3124145,46.9998651 C39.7338716,47.5821381 34.7603802,48.0781484 30.6302199,48.2075424 C29.7345297,48.2075424 29.0084292,47.4833966 29.0084292,46.5901175 L29.0084292,44.6492076 C32.0166861,44.9869663 35.0415725,45.1561632 38.0688332,45.1560007 C39.1500269,45.1560007 40.2312207,45.1560007 41.3124145,45.0913037 L41.3124145,46.9998651 Z M38.0688332,41.9103681 C33.090993,41.9292329 28.1242138,41.4414793 23.2456664,40.4546857 C25.6432165,31.6872982 24.826648,22.3545371 20.9427236,14.1337912 C26.5336344,12.7679861 32.2693917,12.0800999 38.0255854,12.085053 C56.881605,12.085053 72.8075895,18.8998032 72.8075895,26.9761449 C72.8075895,35.0524866 56.881605,41.9103681 38.0255854,41.9103681 L38.0688332,41.9103681 Z M81.8355576,32.4861724 C83.0251676,33.6254752 83.9704806,34.9937732 84.6142256,36.508169 C85.0250792,37.5864522 84.8737121,38.1040282 84.8304643,38.1579424 C84.4952943,38.4922102 81.9436769,37.9638514 79.154197,35.1818805 C77.9641263,34.0429683 77.0187439,32.67457 76.3755289,31.159884 C75.9646753,30.0816007 76.1160424,29.5640247 76.1592902,29.5101106 C76.22245,29.4644643 76.2976124,29.4382283 76.3755289,29.4346307 C76.5375892,29.4433852 76.7000059,29.4433852 76.8620661,29.4346307 L76.9377497,29.4346307 C78.814501,29.9763998 80.5005373,31.033875 81.8031217,32.4861724 L81.8355576,32.4861724 Z M77.0350572,26.2321294 L76.6133916,26.2321294 C76.6133916,26.2321294 76.5268961,26.2321294 76.5052722,26.2321294 C76.1701021,25.8978616 76.6998871,23.3531131 79.489367,20.5711423 C81.7814979,18.1881363 83.9330735,17.4764693 84.7872166,17.4764693 C84.9127141,17.4609082 85.0395903,17.4915833 85.1440105,17.562732 C85.1440105,17.562732 85.3386254,18.1018736 84.9277718,19.2125054 C84.2845568,20.7271914 83.3391745,22.0955897 82.1491038,23.234502 C80.7902132,24.7459542 78.9902674,25.7943533 77.0026213,26.2321294 L77.0350572,26.2321294 Z" id="Shape" fill="#253673"></path>
                        <circle id="Oval" fill="#000000" cx="13.08625" cy="25.72125" r="2.25625"></circle>
                    </g>
                </g>
            </g>
        </g>
    </g>
</svg>