<?xml version="1.0" encoding="UTF-8" standalone="no"?>
<svg width="160px" height="160px" viewBox="0 0 160 160" version="1.1" xmlns="http://www.w3.org/2000/svg" xmlns:xlink="http://www.w3.org/1999/xlink">
    <!-- Generator: Sketch 50.2 (55047) - http://www.bohemiancoding.com/sketch -->
    <title>tile / donate / dogfood</title>
    <desc>Created with Sketch.</desc>
    <defs></defs>
    <g id="tile-/-donate-/-dogfood" stroke="none" stroke-width="1" fill="none" fill-rule="evenodd">
        <g id="noun_dog-food_1517935" transform="translate(14.000000, 53.000000)" fill="#253673" fill-rule="nonzero">
            <path d="M80.3774016,37.42848 C81.3727296,36.52128 82.0025856,35.217504 82.0025856,33.765984 C82.0025856,31.0389408 79.7942016,28.820448 77.0702688,28.802304 L77.0702688,28.799712 C77.0648256,28.799712 77.0596416,28.802304 77.0544576,28.802304 C77.0492736,28.802304 77.0414976,28.799712 77.0363136,28.799712 L77.0363136,28.802304 C74.5298496,28.820448 72.4640256,30.70224 72.1503936,33.130944 L61.2536256,33.15168 C60.9374016,30.72816 58.8715776,28.846368 56.3677056,28.830816 L56.3677056,28.828224 L56.3340096,28.828224 L56.3340096,28.830816 C53.6098176,28.84896 51.4014336,31.067712 51.4014336,33.791904 C51.4014336,35.2436832 52.0312896,36.5472 53.0266176,37.456992 C52.0209216,38.3670432 51.3856224,39.6760032 51.3856224,41.13504 C51.3856224,42.726528 52.1373024,44.144352 53.3037024,45.051552 C54.1357344,45.702144 55.1829024,46.090944 56.3156064,46.0984608 L56.3156064,46.101312 C56.3207904,46.101312 56.3259744,46.0984608 56.3337504,46.0984608 C56.3389344,46.0984608 56.3441184,46.101312 56.3493024,46.101312 L56.3493024,46.0984608 C57.4845984,46.088352 58.5291744,45.699552 59.3612064,45.051552 C60.3694944,44.266176 61.0641504,43.099776 61.2349632,41.77008 L72.1682784,41.749344 C72.3419424,43.092 73.0521504,44.266176 74.0783232,45.051552 C74.9051712,45.6837408 75.9341952,46.0621728 77.0539392,46.070208 L77.0539392,46.0728 L77.0878944,46.0728 L77.0878944,46.070208 C78.2047872,46.065024 79.2364032,45.684 80.0632512,45.051552 C81.250128,44.144352 82.0176192,42.7133088 82.0176192,41.1062688 C82.0181376,39.647232 81.3830976,38.338272 80.3774016,37.42848 Z M58.3739136,39.183264 L58.6486656,40.7076192 C58.6745856,40.8527712 58.6875456,41.0031072 58.6875456,41.148 C58.6823616,42.444 57.6300096,43.498944 56.3340096,43.50672 C55.0328256,43.4992032 53.9778816,42.4390752 53.9778816,41.1352992 C53.9778816,39.8263392 55.0406016,38.7610272 56.3495616,38.7610272 L56.3495616,38.7584352 L56.3677056,38.7584352 L56.3677056,36.1664352 C55.0587456,36.1664352 53.9934336,35.1011232 53.9934336,33.7921632 C53.9934336,32.49072 55.0483776,31.4308512 56.3495616,31.4207424 C57.6455616,31.4308512 58.6979136,32.4834624 58.7056896,33.7794624 C58.7056896,33.9272064 58.6927296,34.0749504 58.6668096,34.2201024 L58.3894656,35.7517152 L75.0148128,35.7182784 L74.7374688,34.1939232 C74.7112896,34.0487712 74.6985888,33.8984352 74.6985888,33.7535424 C74.7061056,32.4575424 75.7587168,31.4025984 77.0547168,31.3945632 C78.3559008,31.4023392 79.4108448,32.4624672 79.4108448,33.7662432 C79.4108448,35.0752032 78.345792,36.140256 77.0365728,36.140256 L77.0365728,38.732256 C77.042016,38.732256 77.049792,38.729664 77.0547168,38.729664 L77.0547168,38.7351072 C78.363936,38.7351072 79.4263968,39.8004192 79.4263968,41.106528 C79.4263968,42.410304 78.3714528,43.470432 77.0702688,43.4808 C75.7742688,43.470432 74.7216576,42.41808 74.7167328,41.12208 C74.7167328,40.974336 74.7296928,40.8263328 74.7556128,40.68144 L75.0326976,39.149568 L58.3739136,39.183264 Z" id="Shape"></path>
            <path d="M111.119818,48.8560896 L102.697543,19.4550751 C102.451775,18.5971343 101.667323,18.0058464 100.774875,18.0058464 L98.52192,18.0058464 C97.7114016,15.4563552 95.34672,13.680576 92.5986816,13.680576 C92.2798656,13.680576 91.9646784,13.7044224 91.6538976,13.7515968 C90.4172544,9.4807584 86.4517536,6.412608 81.8934624,6.412608 C80.861328,6.412608 79.8416352,6.5735712 78.870672,6.8757984 C78.4549152,3.1231008 75.2654592,0.1944 71.4036384,0.1944 C69.0620256,0.1944 66.859344,1.298592 65.4511104,3.1254336 C64.0900512,1.9214496 62.327232,1.24416 60.4809504,1.24416 C56.392848,1.24416 53.0592768,4.5274464 52.9734816,8.5955904 C51.383808,7.8540192 49.609584,7.459776 47.7726336,7.459776 C41.535504,7.459776 36.4611456,12.0188448 36.4611456,17.623008 C36.4611456,17.7510528 36.4645152,17.8785792 36.4696992,18.0058464 L32.3634938,18.0058464 C31.4807488,18.0058464 30.7024016,18.5845753 30.4482079,19.4299298 L21.5999136,48.8560896 L19.3664,48.8560896 C18.2618305,48.8560896 17.3664,49.7515201 17.3664,50.8560896 L17.3664,55.348 C17.3664,56.4525695 18.2618305,57.348 19.3664,57.348 L113.344,57.348 C114.448569,57.348 115.344,56.4525695 115.344,55.348 L115.344,50.8560896 C115.344,49.7515201 114.448569,48.8560896 113.344,48.8560896 L111.119818,48.8560896 Z M30.9388896,26.7994656 L92.0074464,26.7994656 L92.0074464,24.2074656 L31.718304,24.2074656 L32.8038336,20.5978464 L43.6332096,20.5978464 L43.6332096,18.0058464 L39.070512,18.0058464 C39.0632544,17.87832 39.0531456,17.7515712 39.0531456,17.623008 C39.0531456,13.4483328 42.9647328,10.051776 47.7726336,10.051776 C50.1142464,10.051776 52.314336,10.851408 53.9701056,12.30552 C54.6564672,12.9050496 55.2228192,13.604112 55.6536096,14.383008 L57.9218688,13.12848 C57.3962112,12.1779936 56.7204768,11.3195232 55.9154016,10.5719904 C55.6849728,9.9981216 55.5618528,9.38952 55.5618528,8.755776 C55.5618528,6.0429888 57.7686816,3.83616 60.4814688,3.83616 C61.9104384,3.83616 63.2632032,4.4522784 64.2022848,5.5372896 C64.324368,5.6754432 64.4467104,5.835888 64.5747552,6.0245856 L64.575792,6.0362496 L64.5825312,6.0357312 C64.5843456,6.0385824 64.5864192,6.0409152 64.5882336,6.0437664 L64.603008,6.0339168 L66.8575296,5.8187808 L66.8572704,5.8167072 L66.8590848,5.8172256 C66.939696,5.6238624 67.0348224,5.432832 67.1449824,5.2443936 C68.0215968,3.7283328 69.6537792,2.7864 71.4041568,2.7864 C74.1184992,2.7864 76.3261056,4.9945248 76.3261056,7.708608 C76.3261056,7.8361344 76.3185888,7.9628832 76.3089984,8.089632 C74.4886368,9.28584 73.0907712,11.0416608 72.3403872,13.0994496 L74.7758304,13.9872096 C75.3916896,12.2982624 76.5915264,10.8804384 78.1615008,9.9911232 C79.285392,9.3457152 80.5759488,9.004608 81.8939808,9.004608 C85.6593792,9.004608 88.8827904,11.8132992 89.3916,15.5382624 L89.5450464,16.658784 L90.678528,16.658784 L90.94032,16.658784 L91.181376,16.5571776 C91.629792,16.3682208 92.1069792,16.272576 92.5994592,16.272576 C93.9009024,16.272576 95.0548608,16.9547904 95.6971584,18.0058464 L46.6137504,18.0058464 L46.6137504,20.5978464 L100.328544,20.5978464 L101.362493,24.2074656 L95.9555808,24.2074656 L95.9555808,26.7994656 L102.105101,26.7994656 L108.345082,48.5828928 L24.3889056,48.5828928 L30.9388896,26.7994656 Z M112.752,54.756 L19.9584,54.756 L19.9584,51.4480896 L112.752,51.4480896 L112.752,54.756 Z" id="Shape"></path>
        </g>
    </g>
</svg>