<?xml version="1.0" encoding="UTF-8" standalone="no"?>
<svg width="112px" height="112px" viewBox="0 0 112 112" version="1.1" xmlns="http://www.w3.org/2000/svg" xmlns:xlink="http://www.w3.org/1999/xlink">
    <!-- Generator: Sketch 50.2 (55047) - http://www.bohemiancoding.com/sketch -->
    <title>dogfood</title>
    <desc>Created with Sketch.</desc>
    <defs>
        <rect id="path-1" x="0" y="0" width="112" height="112"></rect>
    </defs>
    <g id="Symbols" stroke="none" stroke-width="1" fill="none" fill-rule="evenodd">
        <g id="tile-/-donate-/-dogfood" transform="translate(-24.000000, -24.000000)">
            <g id="dogfood" transform="translate(24.000000, 24.000000)">
                <mask id="mask-2" fill="white">
                    <use xlink:href="#path-1"></use>
                </mask>
                <use id="Mask" fill="#FFFFFF" xlink:href="#path-1"></use>
                <path d="M68.5406049,63.7792032 C69.4388885,62.9604552 70.0073335,61.7837974 70.0073335,60.4738006 C70.0073335,58.0126441 68.0142669,56.0104543 65.5559176,55.9940794 L65.5559176,55.9917401 C65.5510051,55.9917401 65.5463265,55.9940794 65.541648,55.9940794 C65.5369694,55.9940794 65.5299516,55.9917401 65.525273,55.9917401 L65.525273,55.9940794 C63.2631893,56.0104543 61.3987831,57.7087716 61.1157302,59.900677 L51.2813971,59.9193912 C50.9960049,57.7321644 49.1315988,56.0338471 46.8718543,56.0198114 L46.8718543,56.0174722 L46.8414437,56.0174722 L46.8414437,56.0198114 C44.3828604,56.0361864 42.3897938,58.0386101 42.3897938,60.4971934 C42.3897938,61.8074241 42.9582389,62.983848 43.8565224,63.8049353 C42.9488817,64.6262565 42.3755242,65.8075929 42.3755242,67.1243736 C42.3755242,68.5606915 43.0539154,69.8402777 44.1065914,70.6590257 C44.8575003,71.246185 45.8025694,71.597077 46.8248348,71.6038609 L46.8248348,71.6064341 C46.8295133,71.6064341 46.8341919,71.6038609 46.8412097,71.6038609 C46.8458883,71.6038609 46.8505669,71.6064341 46.8552454,71.6064341 L46.8552454,71.6038609 C47.8798501,71.5947377 48.8225799,71.2438457 49.5734888,70.6590257 C50.4834687,69.9502238 51.1103957,68.8975478 51.2645543,67.6974972 L61.1318713,67.678783 C61.288603,68.89053 61.9295657,69.9502238 62.8556867,70.6590257 C63.601917,71.2295761 64.5306112,71.571111 65.5411801,71.5783627 L65.5411801,71.580702 L65.5718247,71.580702 L65.5718247,71.5783627 C66.5798204,71.5736842 67.5108539,71.22981 68.2570842,70.6590257 C69.3282405,69.8402777 70.0209013,68.5487612 70.0209013,67.0984076 C70.0213692,65.7816269 69.4482456,64.6002905 68.5406049,63.7792032 Z M48.682457,65.3628958 L48.9304207,66.7386263 C48.9538135,66.869626 48.9655099,67.0053042 48.9655099,67.13607 C48.9608313,68.30571 48.0110837,69.257797 46.8414437,69.2648148 C45.6671251,69.2580309 44.7150381,68.3012654 44.7150381,67.1246075 C44.7150381,65.9432711 45.6741429,64.981827 46.8554793,64.981827 L46.8554793,64.9794878 L46.8718543,64.9794878 L46.8718543,62.6402078 C45.6905179,62.6402078 44.7290738,61.6787637 44.7290738,60.4974273 C44.7290738,59.3228748 45.6811608,58.3663432 46.8554793,58.35722 C48.0251193,58.3663432 48.974867,59.3163248 48.9818849,60.4859648 C48.9818849,60.6193038 48.9701885,60.7526427 48.9467957,60.8836424 L48.6964927,62.265923 L63.7008686,62.2357463 L63.4505656,60.8600157 C63.4269389,60.729016 63.4154764,60.5933378 63.4154764,60.462572 C63.4222603,59.292932 64.3722419,58.3408451 65.5418819,58.3335933 C66.7162005,58.3406111 67.6682874,59.2973766 67.6682874,60.4740345 C67.6682874,61.6553709 66.7070773,62.616581 65.525507,62.616581 L65.525507,64.955861 C65.5304194,64.955861 65.5374373,64.9535218 65.5418819,64.9535218 L65.5418819,64.9584342 C66.7234522,64.9584342 67.6823231,65.9198783 67.6823231,67.0986415 C67.6823231,68.2752994 66.7302362,69.2320649 65.5559176,69.241422 C64.3862776,69.2320649 63.436296,68.2823172 63.4318514,67.1126772 C63.4318514,66.9793382 63.4435478,66.8457654 63.4669406,66.7149996 L63.7170096,65.3324851 L48.682457,65.3628958 Z" id="Shape" fill="#253673" fill-rule="nonzero" mask="url(#mask-2)"></path>
                <path d="M96.2856354,74.0926209 L88.6845322,47.5582053 C88.4627271,46.7839137 87.7547592,46.2502764 86.9493246,46.2502764 L84.9160328,46.2502764 C84.1845399,43.9493606 82.0504148,42.3467198 79.5703101,42.3467198 C79.2825787,42.3467198 78.9981223,42.3682412 78.7176426,42.4108161 C77.6015721,38.5563845 74.0227076,35.7873787 69.9088498,35.7873787 C68.9773485,35.7873787 68.0570758,35.932648 67.1807815,36.2054081 C66.805561,32.8185985 63.9270769,30.175446 60.4417837,30.175446 C58.3284781,30.175446 56.340558,31.1719793 55.0696271,32.8207038 C53.8412712,31.7341083 52.2503269,31.1228544 50.5840577,31.1228544 C46.8945453,31.1228544 43.8859973,34.0860204 43.8085671,37.7575203 C42.3738867,37.0882523 40.7726496,36.7324478 39.1148018,36.7324478 C33.4857924,36.7324478 28.9061839,40.8470074 28.9061839,45.9047647 C28.9061839,46.0203252 28.909225,46.1354177 28.9139035,46.2502764 L25.2080531,46.2502764 C24.4113758,46.2502764 23.7089174,46.7725792 23.4795076,47.5355117 L15.493922,74.0926209 L13.478176,74.0926209 C12.481302,74.0926209 11.673176,74.9007469 11.673176,75.8976209 L11.673176,79.95157 C11.673176,80.948444 12.481302,81.75657 13.478176,81.75657 L98.29296,81.75657 C99.289834,81.75657 100.09796,80.948444 100.09796,79.95157 L100.09796,75.8976209 C100.09796,74.9007469 99.289834,74.0926209 98.29296,74.0926209 L96.2856354,74.0926209 Z M23.9223479,54.1865177 L79.0367204,54.1865177 L79.0367204,51.8472377 L24.6257694,51.8472377 L25.6054598,48.5895564 L35.3789717,48.5895564 L35.3789717,46.2502764 L31.2611371,46.2502764 C31.2545871,46.1351838 31.2454639,46.020793 31.2454639,45.9047647 C31.2454639,42.1371204 34.7756714,39.0717278 39.1148018,39.0717278 C41.2281074,39.0717278 43.2136882,39.7933957 44.7080203,41.1057318 C45.3274616,41.6468073 45.8385943,42.2777111 46.2273827,42.9806647 L48.2744866,41.8484532 C47.8000806,40.9906392 47.1902303,40.2158697 46.4636499,39.5412213 C46.255688,39.0233047 46.1445722,38.4740418 46.1445722,37.9020878 C46.1445722,35.4537974 48.1362351,33.4621344 50.5845256,33.4621344 C51.8741707,33.4621344 53.0950409,34.0181813 53.942562,34.9974039 C54.0527421,35.1220875 54.1631561,35.2668889 54.2787166,35.4371885 L54.2796523,35.4477153 L54.2857344,35.4472474 C54.2873719,35.4498206 54.2892433,35.451926 54.2908808,35.4544992 L54.3042147,35.4456099 L56.3389205,35.2514497 L56.3386865,35.2495782 L56.340324,35.2500461 C56.4130756,35.0755358 56.4989272,34.9031309 56.5983466,34.7330652 C57.3894911,33.3648204 58.8625357,32.514726 60.4422515,32.514726 C62.8919455,32.514726 64.8843103,34.5075586 64.8843103,36.9570187 C64.8843103,37.0721113 64.8775264,37.1865021 64.8688711,37.3008929 C63.2259947,38.3804706 61.964421,39.9650989 61.2871994,41.8222533 L63.4851869,42.6234567 C64.0409999,41.0991818 65.1238526,39.8195957 66.5407545,39.0169887 C67.5550663,38.434508 68.7197938,38.1266587 69.9093177,38.1266587 C73.3075897,38.1266587 76.2167183,40.6615025 76.675919,44.0232818 L76.8144044,45.0345526 L77.8373715,45.0345526 L78.0736388,45.0345526 L78.2911918,44.9428528 C78.6958873,44.7723193 79.1265487,44.6859998 79.5710119,44.6859998 C80.7455644,44.6859998 81.7870119,45.3016983 82.3666855,46.2502764 L38.0689097,46.2502764 L38.0689097,48.5895564 L86.546511,48.5895564 L87.4796498,51.8472377 L82.5999117,51.8472377 L82.5999117,54.1865177 L88.1498535,54.1865177 L93.7814361,73.8460608 L18.0109873,73.8460608 L23.9223479,54.1865177 Z M97.75868,79.41729 L14.012456,79.41729 L14.012456,76.4319009 L97.75868,76.4319009 L97.75868,79.41729 Z" id="Shape" fill="#253673" fill-rule="nonzero" mask="url(#mask-2)"></path>
            </g>
        </g>
    </g>
</svg>