<?xml version="1.0" encoding="UTF-8" standalone="no"?>
<svg width="112px" height="112px" viewBox="0 0 112 112" version="1.1" xmlns="http://www.w3.org/2000/svg" xmlns:xlink="http://www.w3.org/1999/xlink">
    <!-- Generator: Sketch 50.2 (55047) - http://www.bohemiancoding.com/sketch -->
    <title>dressesandskirts</title>
    <desc>Created with Sketch.</desc>
    <defs>
        <rect id="path-1" x="0" y="0" width="112" height="112"></rect>
    </defs>
    <g id="Symbols" stroke="none" stroke-width="1" fill="none" fill-rule="evenodd">
        <g id="tile-/-donate-/-dressesandskirts" transform="translate(-24.000000, -24.000000)">
            <g id="dressesandskirts" transform="translate(24.000000, 24.000000)">
                <mask id="mask-2" fill="white">
                    <use xlink:href="#path-1"></use>
                </mask>
                <use id="Mask" fill="#FFFFFF" xlink:href="#path-1"></use>
                <g id="noun_dress_644779" mask="url(#mask-2)" fill="#253673" fill-rule="nonzero">
                    <g transform="translate(1.000000, 20.000000)" id="Shape">
                        <path d="M28.7669814,20.8905705 C30.7092667,22.8091982 33.8518414,22.8091982 35.7941267,20.8905705 L36.6973587,19.9955172 C37.2713245,19.4124498 38.1196857,19.1845048 38.9122641,19.4003972 C39.7048425,19.6162896 40.3164293,20.2419134 40.5089979,21.033779 L43.7425686,33.3139095 C43.9576458,34.1284268 44.3806839,34.8743695 44.9709642,35.4799383 C44.1993786,36.0412511 43.5789939,36.7820455 43.1645001,37.6370166 L28.3243977,68.6148094 C28.1013725,68.8603175 27.9789594,69.1795401 27.9811695,69.5098626 C27.9210859,70.1637589 28.3502489,70.7637031 28.9927894,70.9240467 C31.1560642,72.5337139 34.1859168,72.3159813 36.0921933,70.4138664 C37.1813389,69.3829869 38.8959777,69.3829869 39.9851233,70.4138664 C42.1205949,72.520093 45.5722857,72.520093 47.7077573,70.4138664 C48.7969029,69.3829869 50.5115418,69.3829869 51.6006874,70.4138664 C53.7341079,72.5250106 57.1899008,72.5250106 59.3233213,70.4138664 C60.412467,69.3829869 62.1271058,69.3829869 63.2162514,70.4138664 C65.351723,72.520093 68.8034138,72.520093 70.9388854,70.4138664 C72.028031,69.3829869 73.7426698,69.3829869 74.8318155,70.4138664 C76.7417021,72.3183174 79.7774818,72.5323762 81.9402516,70.9150962 C82.5750211,70.7709671 83.0085767,70.189256 82.9609038,69.5456647 C82.9631139,69.2153422 82.8407009,68.8961196 82.6176756,68.6506115 L67.8137025,37.6459672 C67.3992087,36.790996 66.778824,36.0502016 66.0072384,35.4888888 C66.5975187,34.8833201 67.0205568,34.1373774 67.235634,33.32286 L70.4692047,21.033779 C70.6655829,20.249366 71.2735525,19.6308455 72.0596957,19.4156863 C72.8458389,19.2005272 73.6879738,19.4221691 74.2627793,19.9955172 L75.1660113,20.8905705 C77.1082966,22.8091982 80.2508713,22.8091982 82.1931566,20.8905705 L85.5441475,17.5699229 C86.4762906,16.6466538 87,15.394172 87,14.0881658 C87,12.7821596 86.4762906,11.5296778 85.5441475,10.6064087 L76.2769867,1.44106349 C75.3472805,0.514597954 74.0819097,-0.00437369566 72.7634141,2.7770224e-05 L68.644676,2.7770224e-05 C67.978371,0.00302767265 67.3189422,0.1337192 66.7027271,0.384900665 C66.5928436,0.410398036 66.4866329,0.449490508 66.3865959,0.501257586 C59.2600951,4.19782748 52.1155296,4.19782748 44.5374128,0.501257586 C44.4369483,0.452578898 44.3307527,0.416498658 44.2212816,0.393851197 C43.6169331,0.14408437 42.9701799,0.0104376339 42.315462,2.7770224e-05 L38.1876916,2.7770224e-05 C36.869196,-0.00437369566 35.6038252,0.514597954 34.674119,1.44106349 L25.4521198,10.5974582 C23.5159601,12.522156 23.5159601,15.6362746 25.4521198,17.5609724 L28.7669814,20.8905705 Z M79.8628179,69.0981381 C78.8207267,69.5855415 77.5815473,69.3665196 76.7737643,68.5521556 C75.7551496,67.527188 74.3641436,66.9500396 72.9124474,66.9500396 C71.4607512,66.9500396 70.0697451,67.527188 69.0511304,68.5521556 C67.9756387,69.6162545 66.233692,69.6162545 65.1582003,68.5521556 C64.1395856,67.527188 62.7485795,66.9500396 61.2968833,66.9500396 C59.8451871,66.9500396 58.4541811,67.527188 57.4355664,68.5521556 C56.3600747,69.6162545 54.618128,69.6162545 53.5426363,68.5521556 C52.5240215,67.527188 51.1330155,66.9500396 49.6813193,66.9500396 C48.2296231,66.9500396 46.8386171,67.527188 45.8200023,68.5521556 C44.7445106,69.6162545 43.0025639,69.6162545 41.9270722,68.5521556 C40.9084575,67.527188 39.5174515,66.9500396 38.0657553,66.9500396 C36.614059,66.9500396 35.223053,67.527188 34.2044383,68.5521556 C33.3966554,69.3665196 32.1574759,69.5855415 31.1153847,69.0981381 L45.585162,38.7916353 C46.1115639,37.7020412 47.2203249,37.0066481 48.4393752,37.0015288 L62.5117304,37.0015288 C63.7307808,37.0066481 64.8395418,37.7020412 65.3659437,38.7916353 L79.8628179,69.0981381 Z M55.6561992,5.93423077 C58.2784972,5.92821807 60.8828228,5.50514539 63.3698009,4.68115623 C62.0171715,7.82832552 58.8914306,9.86436069 55.4395027,9.84676867 C51.9875748,9.82917665 48.8831322,7.76139067 47.5632402,4.60060144 C50.1721662,5.46876495 52.9041449,5.91896454 55.6561992,5.93423077 Z M27.3669717,12.494971 L36.5980032,3.33857637 C37.0211645,2.91749581 37.5970406,2.68213824 38.1967239,2.6851875 L42.315462,2.6851875 C43.359489,2.65942289 44.2933246,3.32511102 44.6006391,4.3141844 C45.9455239,9.17435884 50.4034671,12.5436641 55.4891013,12.5436641 C60.5747355,12.5436641 65.0326788,9.17435884 66.3775636,4.3141844 C66.6848781,3.32511102 67.6187136,2.65942289 68.6627406,2.6851875 L72.7814787,2.6851875 C73.380378,2.68607869 73.954791,2.92083833 74.3801994,3.33857637 L83.6021986,12.494971 C84.026906,12.9147701 84.2655944,13.4847779 84.2655944,14.0792153 C84.2655944,14.6736526 84.026906,15.2436605 83.6021986,15.6634595 L80.2512077,18.984107 C79.8275726,19.4049687 79.2523562,19.6414958 78.652487,19.6414958 C78.0526178,19.6414958 77.4774014,19.4049687 77.0537663,18.984107 L76.1505342,18.0890538 C74.8914601,16.8417785 73.0551076,16.3575159 71.3369648,16.8196725 C69.6188221,17.2818291 68.2816068,18.6197375 67.8317671,20.3266869 L64.6252934,32.6426195 C64.3661938,33.628601 63.467645,34.316647 62.4394719,34.3163691 L48.5206661,34.3163691 C47.492493,34.316647 46.5939442,33.628601 46.3348446,32.6426195 L43.1012739,20.362489 C42.6514342,18.6555396 41.3142189,17.3176312 39.5960762,16.8554747 C37.8779335,16.3933181 36.0415809,16.8775807 34.7825068,18.1248559 L33.8792748,19.0199092 C33.4556397,19.4407708 32.8804232,19.677298 32.280554,19.677298 C31.6806849,19.677298 31.1054684,19.4407708 30.6818333,19.0199092 L27.3308425,15.6992616 C26.899661,15.2733059 26.6603301,14.6928576 26.6671324,14.0895677 C26.6739347,13.4862779 26.9262936,12.9112736 27.3669717,12.494971 Z"></path>
                    </g>
                </g>
            </g>
        </g>
    </g>
</svg>