<?xml version="1.0" encoding="UTF-8" standalone="no"?>
<svg width="112px" height="112px" viewBox="0 0 112 112" version="1.1" xmlns="http://www.w3.org/2000/svg" xmlns:xlink="http://www.w3.org/1999/xlink">
    <!-- Generator: Sketch 50.2 (55047) - http://www.bohemiancoding.com/sketch -->
    <title>dressesandskirts</title>
    <desc>Created with Sketch.</desc>
    <defs>
        <rect id="path-1" x="0" y="0" width="112" height="112"></rect>
    </defs>
    <g id="Symbols" stroke="none" stroke-width="1" fill="none" fill-rule="evenodd">
        <g id="tile-/-donate-/-dressesandskirts" transform="translate(-24.000000, -24.000000)">
            <g id="dressesandskirts" transform="translate(24.000000, 24.000000)">
                <mask id="mask-2" fill="white">
                    <use xlink:href="#path-1"></use>
                </mask>
                <use id="Mask" fill="#FFFFFF" xlink:href="#path-1"></use>
                <g id="noun_dress_644779" mask="url(#mask-2)" fill="#253673" fill-rule="nonzero">
                    <g transform="translate(25.000000, 20.000000)" id="Shape">
                        <path d="M4.76698141,20.8905705 C6.7092667,22.8091982 9.85184138,22.8091982 11.7941267,20.8905705 L12.6973587,19.9955172 C13.2713245,19.4124498 14.1196857,19.1845048 14.9122641,19.4003972 C15.7048425,19.6162896 16.3164293,20.2419134 16.5089979,21.033779 L19.7425686,33.3139095 C19.9576458,34.1284268 20.3806839,34.8743695 20.9709642,35.4799383 C20.1993786,36.0412511 19.5789939,36.7820455 19.1645001,37.6370166 L4.32439771,68.6148094 C4.10137249,68.8603175 3.97895944,69.1795401 3.98116953,69.5098626 C3.92108592,70.1637589 4.35024893,70.7637031 4.99278942,70.9240467 C7.15606419,72.5337139 10.1859168,72.3159813 12.0921933,70.4138664 C13.1813389,69.3829869 14.8959777,69.3829869 15.9851233,70.4138664 C18.1205949,72.520093 21.5722857,72.520093 23.7077573,70.4138664 C24.7969029,69.3829869 26.5115418,69.3829869 27.6006874,70.4138664 C29.7341079,72.5250106 33.1899008,72.5250106 35.3233213,70.4138664 C36.412467,69.3829869 38.1271058,69.3829869 39.2162514,70.4138664 C41.351723,72.520093 44.8034138,72.520093 46.9388854,70.4138664 C48.028031,69.3829869 49.7426698,69.3829869 50.8318155,70.4138664 C52.7417021,72.3183174 55.7774818,72.5323762 57.9402516,70.9150962 C58.5750211,70.7709671 59.0085767,70.189256 58.9609038,69.5456647 C58.9631139,69.2153422 58.8407009,68.8961196 58.6176756,68.6506115 L43.8137025,37.6459672 C43.3992087,36.790996 42.778824,36.0502016 42.0072384,35.4888888 C42.5975187,34.8833201 43.0205568,34.1373774 43.235634,33.32286 L46.4692047,21.033779 C46.6655829,20.249366 47.2735525,19.6308455 48.0596957,19.4156863 C48.8458389,19.2005272 49.6879738,19.4221691 50.2627793,19.9955172 L51.1660113,20.8905705 C53.1082966,22.8091982 56.2508713,22.8091982 58.1931566,20.8905705 L61.5441475,17.5699229 C62.4762906,16.6466538 63,15.394172 63,14.0881658 C63,12.7821596 62.4762906,11.5296778 61.5441475,10.6064087 L52.2769867,1.44106349 C51.3472805,0.514597954 50.0819097,-0.00437369566 48.7634141,2.7770224e-05 L44.644676,2.7770224e-05 C43.978371,0.00302767265 43.3189422,0.1337192 42.7027271,0.384900665 C42.5928436,0.410398036 42.4866329,0.449490508 42.3865959,0.501257586 C35.2600951,4.19782748 28.1155296,4.19782748 20.5374128,0.501257586 C20.4369483,0.452578898 20.3307527,0.416498658 20.2212816,0.393851197 C19.6169331,0.14408437 18.9701799,0.0104376339 18.315462,2.7770224e-05 L14.1876916,2.7770224e-05 C12.869196,-0.00437369566 11.6038252,0.514597954 10.674119,1.44106349 L1.45211982,10.5974582 C-0.48403994,12.522156 -0.48403994,15.6362746 1.45211982,17.5609724 L4.76698141,20.8905705 Z M55.8628179,69.0981381 C54.8207267,69.5855415 53.5815473,69.3665196 52.7737643,68.5521556 C51.7551496,67.527188 50.3641436,66.9500396 48.9124474,66.9500396 C47.4607512,66.9500396 46.0697451,67.527188 45.0511304,68.5521556 C43.9756387,69.6162545 42.233692,69.6162545 41.1582003,68.5521556 C40.1395856,67.527188 38.7485795,66.9500396 37.2968833,66.9500396 C35.8451871,66.9500396 34.4541811,67.527188 33.4355664,68.5521556 C32.3600747,69.6162545 30.618128,69.6162545 29.5426363,68.5521556 C28.5240215,67.527188 27.1330155,66.9500396 25.6813193,66.9500396 C24.2296231,66.9500396 22.8386171,67.527188 21.8200023,68.5521556 C20.7445106,69.6162545 19.0025639,69.6162545 17.9270722,68.5521556 C16.9084575,67.527188 15.5174515,66.9500396 14.0657553,66.9500396 C12.614059,66.9500396 11.223053,67.527188 10.2044383,68.5521556 C9.39665536,69.3665196 8.15747589,69.5855415 7.11538471,69.0981381 L21.585162,38.7916353 C22.1115639,37.7020412 23.2203249,37.0066481 24.4393752,37.0015288 L38.5117304,37.0015288 C39.7307808,37.0066481 40.8395418,37.7020412 41.3659437,38.7916353 L55.8628179,69.0981381 Z M31.6561992,5.93423077 C34.2784972,5.92821807 36.8828228,5.50514539 39.3698009,4.68115623 C38.0171715,7.82832552 34.8914306,9.86436069 31.4395027,9.84676867 C27.9875748,9.82917665 24.8831322,7.76139067 23.5632402,4.60060144 C26.1721662,5.46876495 28.9041449,5.91896454 31.6561992,5.93423077 Z M3.36697174,12.494971 L12.5980032,3.33857637 C13.0211645,2.91749581 13.5970406,2.68213824 14.1967239,2.6851875 L18.315462,2.6851875 C19.359489,2.65942289 20.2933246,3.32511102 20.6006391,4.3141844 C21.9455239,9.17435884 26.4034671,12.5436641 31.4891013,12.5436641 C36.5747355,12.5436641 41.0326788,9.17435884 42.3775636,4.3141844 C42.6848781,3.32511102 43.6187136,2.65942289 44.6627406,2.6851875 L48.7814787,2.6851875 C49.380378,2.68607869 49.954791,2.92083833 50.3801994,3.33857637 L59.6021986,12.494971 C60.026906,12.9147701 60.2655944,13.4847779 60.2655944,14.0792153 C60.2655944,14.6736526 60.026906,15.2436605 59.6021986,15.6634595 L56.2512077,18.984107 C55.8275726,19.4049687 55.2523562,19.6414958 54.652487,19.6414958 C54.0526178,19.6414958 53.4774014,19.4049687 53.0537663,18.984107 L52.1505342,18.0890538 C50.8914601,16.8417785 49.0551076,16.3575159 47.3369648,16.8196725 C45.6188221,17.2818291 44.2816068,18.6197375 43.8317671,20.3266869 L40.6252934,32.6426195 C40.3661938,33.628601 39.467645,34.316647 38.4394719,34.3163691 L24.5206661,34.3163691 C23.492493,34.316647 22.5939442,33.628601 22.3348446,32.6426195 L19.1012739,20.362489 C18.6514342,18.6555396 17.3142189,17.3176312 15.5960762,16.8554747 C13.8779335,16.3933181 12.0415809,16.8775807 10.7825068,18.1248559 L9.87927475,19.0199092 C9.45563968,19.4407708 8.88042323,19.677298 8.28055404,19.677298 C7.68068485,19.677298 7.10546841,19.4407708 6.68183333,19.0199092 L3.33084246,15.6992616 C2.89966097,15.2733059 2.66033013,14.6928576 2.6671324,14.0895677 C2.67393466,13.4862779 2.92629355,12.9112736 3.36697174,12.494971 Z"></path>
                    </g>
                </g>
            </g>
        </g>
    </g>
</svg>