<?xml version="1.0" encoding="UTF-8" standalone="no"?>
<svg width="112px" height="112px" viewBox="0 0 112 112" version="1.1" xmlns="http://www.w3.org/2000/svg" xmlns:xlink="http://www.w3.org/1999/xlink">
    <!-- Generator: Sketch 50.2 (55047) - http://www.bohemiancoding.com/sketch -->
    <title>femininehygiene</title>
    <desc>Created with Sketch.</desc>
    <defs>
        <rect id="path-1" x="0" y="0" width="112" height="112"></rect>
    </defs>
    <g id="Symbols" stroke="none" stroke-width="1" fill="none" fill-rule="evenodd">
        <g id="tile-/-donate-/-femininehygiene" transform="translate(-24.000000, -24.000000)">
            <g id="femininehygiene" transform="translate(24.000000, 24.000000)">
                <mask id="mask-2" fill="white">
                    <use xlink:href="#path-1"></use>
                </mask>
                <use id="Mask" fill="#FFFFFF" xlink:href="#path-1"></use>
                <g id="Group" mask="url(#mask-2)" fill="#253673" fill-rule="nonzero">
                    <g transform="translate(37.350000, 15.600000)" id="Shape">
                        <path d="M34.7475,40.375 C34.7475,35.8328125 35.67,30.886875 37.6175,25.9409375 C38.6425,23.1146875 39.0525,20.1875 38.745,17.159375 C37.8225,8.276875 30.6475,1.21125 21.6275,0.201875 C16.0925,-0.40375 10.5575,1.3121875 6.4575,4.9459375 C2.3575,8.5796875 -3.55271368e-15,13.7275 -3.55271368e-15,19.178125 C-3.55271368e-15,21.600625 0.41,23.9221875 1.3325,26.1428125 C3.1775,30.7859375 4.1,35.6309375 4.1,40.375 C4.1,44.9171875 3.1775,49.863125 1.23,54.8090625 C0.205,57.6353125 -0.205,60.5625 0.1025,63.590625 C1.025,72.473125 8.2,79.53875 17.22,80.548125 C17.9375,80.6490625 18.655,80.6490625 19.3725,80.6490625 C24.19,80.6490625 28.8025,78.933125 32.39,75.8040625 C36.49,72.1703125 38.8475,67.0225 38.8475,61.571875 C38.8475,59.149375 38.4375,56.8278125 37.515,54.6071875 C35.67,49.9640625 34.7475,45.1190625 34.7475,40.375 Z M30.34,73.5834375 C26.855,76.7125 22.345,78.125625 17.5275,77.6209375 C9.9425,76.8134375 3.895,70.858125 3.1775,63.38875 C2.87,60.8653125 3.1775,58.341875 4.1,56.0203125 C6.15,50.670625 7.175,45.421875 7.175,40.4759375 C7.175,35.328125 6.15,30.1803125 4.2025,25.1334375 C3.485,23.215625 3.1775,21.196875 3.1775,19.178125 C3.1775,14.6359375 5.125,10.1946875 8.61,7.1665625 C11.685,4.44125 15.4775,3.028125 19.475,3.028125 C20.09,3.028125 20.705,3.028125 21.32,3.1290625 C28.905,3.9365625 34.9525,9.891875 35.67,17.36125 C35.9775,19.8846875 35.67,22.408125 34.7475,24.7296875 C32.6975,30.079375 31.6725,35.328125 31.6725,40.2740625 C31.6725,45.421875 32.6975,50.5696875 34.645,55.6165625 C35.3625,57.4334375 35.7725,59.4521875 35.7725,61.4709375 C35.7725,66.1140625 33.825,70.454375 30.34,73.5834375 Z"></path>
                        <path d="M8.7125,20.793125 C9.5325,20.793125 10.25,20.0865625 10.25,19.2790625 C10.25,18.97625 10.3525,11.0021875 19.475,11.0021875 C28.3925,11.0021875 28.7,18.370625 28.7,19.2790625 C28.7,20.0865625 29.4175,20.793125 30.2375,20.793125 C31.0575,20.793125 31.775,20.0865625 31.775,19.2790625 C31.775,19.178125 31.775,16.4528125 30.2375,13.7275 C28.8025,11.103125 25.83,8.075 19.475,8.075 C7.38,8.075 7.175,19.2790625 7.175,19.38 C7.175,20.0865625 7.8925,20.793125 8.7125,20.793125 Z"></path>
                        <path d="M30.2375,60.764375 C29.4175,60.764375 28.7,61.4709375 28.7,62.2784375 C28.7,62.58125 28.5975,70.5553125 19.475,70.5553125 C10.5575,70.5553125 10.25,63.186875 10.25,62.2784375 C10.25,61.4709375 9.5325,60.764375 8.7125,60.764375 C7.8925,60.764375 7.175,61.37 7.175,62.2784375 C7.175,62.379375 7.175,65.1046875 8.7125,67.83 C10.1475,70.454375 13.12,73.4825 19.475,73.4825 C31.57,73.4825 31.775,62.2784375 31.775,62.1775 C31.775,61.37 31.0575,60.764375 30.2375,60.764375 Z"></path>
                        <path d="M10.25,53.1940625 C10.455,53.1940625 10.5575,53.295 10.7625,53.295 C11.3775,53.295 11.9925,52.89125 12.1975,52.285625 C15.8875,41.0815625 12.4025,29.8775 12.1975,29.3728125 C11.89,28.5653125 11.07,28.1615625 10.25,28.3634375 C9.43,28.66625 9.02,29.47375 9.225,30.28125 C9.225,30.3821875 12.6075,41.0815625 9.225,51.27625 C9.02,52.08375 9.43,52.89125 10.25,53.1940625 Z"></path>
                        <path d="M28.29,28.3634375 C27.47,28.060625 26.65,28.5653125 26.3425,29.3728125 C22.6525,40.576875 26.1375,51.7809375 26.3425,52.285625 C26.5475,52.89125 27.1625,53.295 27.7775,53.295 C27.9825,53.295 28.085,53.295 28.29,53.1940625 C29.11,52.9921875 29.52,52.08375 29.315,51.27625 C29.315,51.1753125 25.9325,40.4759375 29.315,30.28125 C29.52,29.47375 29.11,28.5653125 28.29,28.3634375 Z"></path>
                    </g>
                </g>
            </g>
        </g>
    </g>
</svg>