<?xml version="1.0" encoding="UTF-8" standalone="no"?>
<svg width="160px" height="160px" viewBox="0 0 160 160" version="1.1" xmlns="http://www.w3.org/2000/svg" xmlns:xlink="http://www.w3.org/1999/xlink">
    <!-- Generator: Sketch 50.2 (55047) - http://www.bohemiancoding.com/sketch -->
    <title>tile / donate / jacket</title>
    <desc>Created with Sketch.</desc>
    <defs></defs>
    <g id="tile-/-donate-/-jacket" stroke="none" stroke-width="1" fill="none" fill-rule="evenodd">
        <g id="noun_coat_644790" transform="translate(29.000000, 39.000000)" fill="#253673" fill-rule="nonzero">
            <path d="M68.84,19.53 C67.8976625,18.5940329 66.7702707,17.8651451 65.53,17.39 C66.6579037,15.8350087 67.3140577,13.9880566 67.42,12.07 C67.42,4.69 60.72,0.07 49.93,0.07 C39.14,0.07 32.44,4.66 32.44,12.07 C32.5459423,13.9880566 33.2020963,15.8350087 34.33,17.39 C33.0827257,17.8629404 31.9483625,18.5919305 31,19.53 L7,43.58 C6.5297915,44.0490213 6.26553108,44.6858637 6.26553108,45.35 C6.26553108,46.0141363 6.5297915,46.6509787 7,47.12 L14.18,54.3 C15.1685523,55.2409526 16.7214477,55.2409526 17.71,54.3 L32.92,39.05 L32.92,74.63 C32.92,76.0107119 34.0392881,77.13 35.42,77.13 L64.42,77.13 C65.8007119,77.13 66.92,76.0107119 66.92,74.63 L66.92,61.06 C66.92,61.06 66.92,61.01 66.92,60.98 L66.92,39 L82.18,54.3 C83.1556744,55.2726272 84.7343256,55.2726272 85.71,54.3 L92.89,47.12 C93.3602085,46.6509787 93.6244689,46.0141363 93.6244689,45.35 C93.6244689,44.6858637 93.3602085,44.0490213 92.89,43.58 L68.84,19.53 Z M64.42,12.07 C64.42,14.97 60.72,19.07 55.96,22.89 C59.15,17.37 60.46,12.38 59.76,8.21 C59.5422784,6.88793609 59.0919823,5.61491849 58.43,4.45 C61.63,5.65 64.42,7.89 64.42,12.07 Z M41.42,4.45 C40.7580177,5.61491849 40.3077216,6.88793609 40.09,8.21 C39.39,12.38 40.7,17.38 43.89,22.89 C39.13,19.08 35.43,14.97 35.43,12.07 C35.44,7.89 38.23,5.65 41.44,4.45 L41.42,4.45 Z M48.42,74.13 L35.92,74.13 L35.92,61.64 L42.08,55.48 C42.5338507,54.8871124 42.4825423,54.0506932 41.9596283,53.5177232 C41.4367143,52.9847531 40.601424,52.9175237 40,53.36 L36,57.36 L36,37.85 C36.0018116,36.8374556 35.3926856,35.9238076 34.4573164,35.5360785 C33.5219472,35.1483493 32.445071,35.3631158 31.73,36.08 L15.91,51.82 L9.44,45.35 L33.14,21.65 C34.0090618,20.7941398 35.1001504,20.1983708 36.29,19.93 C39.96,24.11 45.37,27.85 48.43,29.8 L48.42,74.13 Z M43.07,8.71 C43.397991,6.49536437 44.6571284,4.52659738 46.53,3.3 C48.7923782,3.03693005 51.0776218,3.03693005 53.34,3.3 C55.2128716,4.52659738 56.472009,6.49536437 56.8,8.71 C57.36,12.02 56.56,17.71 49.94,26.53 C43.31,17.75 42.51,12 43.07,8.71 Z M84,51.82 L68.2,36.07 C67.484929,35.3531158 66.4080528,35.1383493 65.4726836,35.5260785 C64.5373144,35.9138076 63.9281884,36.8274556 63.93,37.84 L63.93,57.39 L59.93,53.39 C59.3389805,52.8392823 58.4179806,52.8555322 57.8467564,53.4267564 C57.2755322,53.9979806 57.2592823,54.9189805 57.81,55.51 L63.97,61.66 L63.97,74.16 L51.43,74.16 L51.43,29.81 C54.49,27.81 59.9,24.12 63.57,19.94 C64.7600396,20.2078672 65.8512591,20.8037077 66.72,21.66 L90.43,45.36 L84,51.82 Z" id="Shape"></path>
            <circle id="Oval" cx="16.3" cy="45.28" r="1.69"></circle>
            <circle id="Oval" cx="83.92" cy="45.28" r="1.69"></circle>
        </g>
    </g>
</svg>