<?xml version="1.0" encoding="UTF-8" standalone="no"?>
<svg width="112px" height="112px" viewBox="0 0 112 112" version="1.1" xmlns="http://www.w3.org/2000/svg" xmlns:xlink="http://www.w3.org/1999/xlink">
    <!-- Generator: Sketch 50.2 (55047) - http://www.bohemiancoding.com/sketch -->
    <title>jacketsandsweaters</title>
    <desc>Created with Sketch.</desc>
    <defs>
        <rect id="path-1" x="0" y="0" width="112" height="112"></rect>
    </defs>
    <g id="Symbols" stroke="none" stroke-width="1" fill="none" fill-rule="evenodd">
        <g id="tile-/-donate-/-jacketsandsweaters" transform="translate(-24.000000, -24.000000)">
            <g id="jacketsandsweaters" transform="translate(24.000000, 24.000000)">
                <mask id="mask-2" fill="white">
                    <use xlink:href="#path-1"></use>
                </mask>
                <use id="Mask" fill="#FFFFFF" xlink:href="#path-1"></use>
                <g id="noun_coat_644790" mask="url(#mask-2)">
                    <g transform="translate(11.000000, 20.000000)"></g>
                </g>
                <path d="M76.0538,38.45585 C75.1632911,37.5713611 74.0979058,36.8825622 72.92585,36.43355 C73.991719,34.9640832 74.6117846,33.2187135 74.7119,31.40615 C74.7119,24.43205 68.3804,20.06615 58.18385,20.06615 C47.9873,20.06615 41.6558,24.4037 41.6558,31.40615 C41.7559154,33.2187135 42.375981,34.9640832 43.44185,36.43355 C42.2631758,36.8804787 41.1912026,37.5693744 40.295,38.45585 L17.615,61.1831 C17.170653,61.6263251 16.9209269,62.2281412 16.9209269,62.85575 C16.9209269,63.4833588 17.170653,64.0851749 17.615,64.5284 L24.4001,71.3135 C25.3342819,72.2027002 26.8017681,72.2027002 27.73595,71.3135 L42.1094,56.90225 L42.1094,90.52535 C42.1094,91.8301227 43.1671273,92.88785 44.4719,92.88785 L71.8769,92.88785 C73.1816727,92.88785 74.2394,91.8301227 74.2394,90.52535 L74.2394,77.7017 C74.2394,77.7017 74.2394,77.65445 74.2394,77.6261 L74.2394,56.855 L88.6601,71.3135 C89.5821123,72.2326327 91.0739377,72.2326327 91.99595,71.3135 L98.78105,64.5284 C99.225397,64.0851749 99.4751231,63.4833588 99.4751231,62.85575 C99.4751231,62.2281412 99.225397,61.6263251 98.78105,61.1831 L76.0538,38.45585 Z M71.8769,31.40615 C71.8769,34.14665 68.3804,38.02115 63.8822,41.63105 C66.89675,36.41465 68.1347,31.6991 67.4732,27.75845 C67.2674531,26.5090996 66.8419233,25.306098 66.21635,24.20525 C69.24035,25.33925 71.8769,27.45605 71.8769,31.40615 Z M50.1419,24.20525 C49.5163267,25.306098 49.0907969,26.5090996 48.88505,27.75845 C48.22355,31.6991 49.4615,36.4241 52.47605,41.63105 C47.97785,38.0306 44.48135,34.14665 44.48135,31.40615 C44.4908,27.45605 47.12735,25.33925 50.1608,24.20525 L50.1419,24.20525 Z M56.7569,90.05285 L44.9444,90.05285 L44.9444,78.2498 L50.7656,72.4286 C51.1944889,71.8683212 51.1460025,71.0779051 50.6518487,70.5742484 C50.157695,70.0705917 49.3683457,70.0070599 48.8,70.4252 L45.02,74.2052 L45.02,55.76825 C45.021712,54.8113955 44.4460879,53.9479982 43.562164,53.5815941 C42.6782401,53.2151901 41.6605921,53.4181444 40.98485,54.0956 L26.03495,68.9699 L19.9208,62.85575 L42.3173,40.45925 C43.1385634,39.6504621 44.1696421,39.0874604 45.29405,38.83385 C48.7622,42.78395 53.87465,46.31825 56.76635,48.161 L56.7569,90.05285 Z M51.70115,28.23095 C52.0111014,26.1381193 53.2009864,24.2776345 54.97085,23.1185 C57.1087974,22.8698989 59.2683526,22.8698989 61.4063,23.1185 C63.1761636,24.2776345 64.3660486,26.1381193 64.676,28.23095 C65.2052,31.3589 64.4492,36.73595 58.1933,45.07085 C51.92795,36.77375 51.17195,31.34 51.70115,28.23095 Z M90.38,68.9699 L75.449,54.08615 C74.7732579,53.4086944 73.7556099,53.2057401 72.871686,53.5721441 C71.9877621,53.9385482 71.412138,54.8019455 71.41385,55.7588 L71.41385,74.23355 L67.63385,70.45355 C67.0753366,69.9331218 66.2049916,69.948478 65.6651848,70.4882848 C65.125378,71.0280916 65.1100218,71.8984366 65.63045,72.45695 L71.45165,78.2687 L71.45165,90.0812 L59.60135,90.0812 L59.60135,48.17045 C62.49305,46.28045 67.6055,42.7934 71.07365,38.8433 C72.1982374,39.0964345 73.2294399,39.6595038 74.0504,40.4687 L96.45635,62.8652 L90.38,68.9699 Z" id="Shape" fill="#253673" fill-rule="nonzero" mask="url(#mask-2)"></path>
                <circle id="Oval" fill="#253673" fill-rule="nonzero" mask="url(#mask-2)" cx="26.4035" cy="62.7896" r="1.59705"></circle>
                <circle id="Oval" fill="#253673" fill-rule="nonzero" mask="url(#mask-2)" cx="90.3044" cy="62.7896" r="1.59705"></circle>
            </g>
        </g>
    </g>
</svg>