<?xml version="1.0" encoding="UTF-8" standalone="no"?>
<svg width="112px" height="112px" viewBox="0 0 112 112" version="1.1" xmlns="http://www.w3.org/2000/svg" xmlns:xlink="http://www.w3.org/1999/xlink">
    <!-- Generator: Sketch 50.2 (55047) - http://www.bohemiancoding.com/sketch -->
    <title>shampoo</title>
    <desc>Created with Sketch.</desc>
    <defs>
        <rect id="path-1" x="0" y="0" width="112" height="112"></rect>
    </defs>
    <g id="Symbols" stroke="none" stroke-width="1" fill="none" fill-rule="evenodd">
        <g id="tile-/-donate-/-shampoo" transform="translate(-24.000000, -24.000000)">
            <g id="shampoo" transform="translate(24.000000, 24.000000)">
                <mask id="mask-2" fill="white">
                    <use xlink:href="#path-1"></use>
                </mask>
                <use id="Mask" fill="#FFFFFF" xlink:href="#path-1"></use>
                <g id="noun_shampoo_1367807" mask="url(#mask-2)">
                    <g transform="translate(13.000000, 13.000000)" id="Group">
                        <g transform="translate(23.000000, 0.000000)"></g>
                    </g>
                </g>
                <path d="M67.3887795,29.74624 L67.3887795,14.84672 C67.3887795,13.8526075 66.582892,13.04672 65.5887795,13.04672 L45.2839719,13.04672 C44.2898593,13.04672 43.4839719,13.8526075 43.4839719,14.84672 L43.4839719,29.1817 L43.2489405,29.67737 C43.0996378,29.99262 28.4660465,61.61656 42.652693,97.70832 L42.652693,97.70832 C42.834594,98.1706518 43.2808369,98.47462 43.7776655,98.47462 L68.7935869,98.47462 C69.2882081,98.47462 69.7327735,98.1728546 69.9153665,97.71317 C70.0415514,97.39598 82.3518,65.57222 67.3887795,29.74624 Z M51.6879146,15.47172 L58.4200216,15.47172 L58.4200216,18.43701 C58.4200216,18.87545 58.0655481,19.23241 57.6301622,19.23241 L52.4777741,19.23241 C52.0423881,19.23241 51.6879146,18.87545 51.6879146,18.43701 L51.6879146,15.47172 Z M49.2798065,15.47172 L49.2798065,18.43701 C49.2798065,20.21308 50.7140757,21.65741 52.4777741,21.65741 L57.6301622,21.65741 C59.3938605,21.65741 60.8281297,20.21308 60.8281297,18.43701 L60.8281297,15.47172 L64.9806714,15.47172 L64.9806714,28.9877 L45.89208,28.9877 L45.89208,26.14075 L53.3100162,26.14075 L53.3100162,23.71575 L45.89208,23.71575 L45.89208,15.47172 L49.2798065,15.47172 Z M67.9561297,96.04962 L44.5936281,96.04962 C32.4191968,64.19967 43.1304616,36.12302 45.1195589,31.4127 L65.4690357,31.4127 C78.3350757,62.95516 69.6697395,91.11329 67.9561297,96.04962 Z" id="Shape" fill="#253673" fill-rule="nonzero" mask="url(#mask-2)"></path>
                <path d="M55.7922941,51.0552 C49.0052822,51.0552 43.4839719,56.61524 43.4839719,63.44889 C43.4839719,70.28351 49.0052822,75.84355 55.7922941,75.84355 C62.5793059,75.84355 68.1006162,70.28351 68.1006162,63.44889 C68.1015795,56.61524 62.5793059,51.0552 55.7922941,51.0552 Z M55.7922941,73.41952 C50.3335946,73.41952 45.89208,68.94685 45.89208,63.44986 C45.89208,57.95287 50.3335946,53.4802 55.7922941,53.4802 C61.2509935,53.4802 65.6925081,57.9519 65.6925081,63.44889 C65.6925081,68.94588 61.2509935,73.41952 55.7922941,73.41952 Z" id="Shape" fill="#253673" fill-rule="nonzero" mask="url(#mask-2)"></path>
                <rect id="Rectangle-path" fill="#253673" fill-rule="nonzero" mask="url(#mask-2)" x="44.6880259" y="78.44121" width="22.2094995" height="2.425"></rect>
                <rect id="Rectangle-path" fill="#253673" fill-rule="nonzero" mask="url(#mask-2)" x="44.6880259" y="46.05679" width="22.2094995" height="2.425"></rect>
                <rect id="Rectangle-path" fill="#253673" fill-rule="nonzero" mask="url(#mask-2)" x="46.3284292" y="91.24327" width="12.1330119" height="2.425"></rect>
                <rect id="Rectangle-path" fill="#253673" fill-rule="nonzero" mask="url(#mask-2)" x="60.9543146" y="91.24327" width="4.81910595" height="2.425"></rect>
                <rect id="Rectangle-path" fill="#253673" fill-rule="nonzero" mask="url(#mask-2)" x="55.7922941" y="23.71575" width="3.83274486" height="2.425"></rect>
            </g>
        </g>
    </g>
</svg>