<?xml version="1.0" encoding="UTF-8" standalone="no"?>
<svg width="160px" height="160px" viewBox="0 0 160 160" version="1.1" xmlns="http://www.w3.org/2000/svg" xmlns:xlink="http://www.w3.org/1999/xlink">
    <!-- Generator: Sketch 50.2 (55047) - http://www.bohemiancoding.com/sketch -->
    <title>tile / donate / shoes</title>
    <desc>Created with Sketch.</desc>
    <defs></defs>
    <g id="tile-/-donate-/-shoes" stroke="none" stroke-width="1" fill="none" fill-rule="evenodd">
        <g id="noun_gumshoes_646410" transform="translate(35.000000, 55.000000)" fill="#253673" fill-rule="nonzero">
            <path d="M82.197,33.435 C80.514,30.492 76.419,27.81 72.468,28.368 C70.9406334,28.5289435 69.4036862,28.5800748 67.869,28.521 L67.671,28.521 C62.1516613,28.2133165 56.8128892,26.4461487 52.2,23.4 L52.155,23.4 C44.955,19.8 37.512,11.367 28.548,0.774 L28.44,0.666 L28.35,0.594 L28.233,0.513 L28.125,0.459 L27.9,0.351 L27.783,0.351 L27.648,0.351 L27.522,0.351 L27.252,0.351 L27.135,0.351 L26.991,0.351 L27,0.351 C24.6913019,1.30921771 22.6453558,2.80587515 21.033,4.716 C17.4707817,5.4829039 13.7833147,5.4552479 10.233,4.635 L10.17,4.635 L10.008,4.635 L9.747,4.635 L9.621,4.635 L9.477,4.635 L9.378,4.635 L9.234,4.707 L9.153,4.761 L9.027,4.86 L9,5.04 L8.901,5.157 L8.838,5.247 L8.739,5.4 L8.739,5.499 C8.71792838,5.54886333 8.69989539,5.59995682 8.685,5.652 C8.685,5.652 8.685,5.697 8.685,5.724 C8.68238582,5.77196441 8.68238582,5.82003559 8.685,5.868 C8.68273346,5.91297146 8.68273346,5.95802854 8.685,6.003 C8.685,6.003 8.685,6.057 8.685,6.084 C9.88639104,16.5381991 9.41243605,27.1171177 7.281,37.422 C6.45862205,38.0100549 5.96957271,38.9580067 5.967,39.969 L5.967,45.747 C5.967,47.486697 7.37730304,48.897 9.117,48.897 L80.568,48.897 C82.307697,48.897 83.718,47.486697 83.718,45.747 L83.718,39.969 C83.7058573,39.154099 83.3765476,38.3760242 82.8,37.8 C83.2543312,36.3274159 83.0335544,34.7292556 82.197,33.435 Z M68.886,31.257 L68.994,31.257 C70.2415995,31.2561222 71.4883003,31.1900321 72.729,31.059 L72.792,31.059 C75.492,30.645 78.633,32.661 79.857,34.794 C80.2525806,35.3931649 80.4069051,36.1197762 80.289,36.828 L68.661,36.828 C68.5699922,34.9680048 68.6452914,33.103598 68.886,31.257 Z M27.117,3.276 C28.239,4.614 29.352,5.922 30.456,7.2 L28.449,7.2 C27.7034156,7.2 27.099,7.80441559 27.099,8.55 C27.099,9.29558441 27.7034156,9.9 28.449,9.9 L31.707,9.9 L30.861,13.203 C30.6770892,13.9262169 31.1142831,14.6615892 31.8375,14.8455 C32.5607169,15.0294108 33.2960892,14.5922169 33.48,13.869 L34.128,11.349 C36.252,13.707 38.313,15.849 40.329,17.811 L37.629,18.396 C37.1475864,18.4887497 36.7542962,18.8352041 36.6015704,19.3010758 C36.4488447,19.7669474 36.5606924,20.2790001 36.8937608,20.6387598 C37.2268292,20.9985194 37.728759,21.1494308 38.205,21.033 L41.4,20.322 L41.274,23.724 C41.2486632,24.4663536 41.8277914,25.0897208 42.57,25.119 L42.624,25.119 C43.3489953,25.1195802 43.9450004,24.5474153 43.974,23.823 L44.073,21.123 C46.0838808,22.8480513 48.2709589,24.3563811 50.598,25.623 L48.231,26.937 C47.7417426,27.124148 47.4049129,27.5774299 47.3668768,28.0998764 C47.3288408,28.622323 47.5964655,29.1196114 48.0534572,29.3756499 C48.510449,29.6316884 49.0743022,29.6002515 49.5,29.295 L52.353,27.711 L53.253,31.005 C53.4084222,31.5984961 53.9444909,32.0125629 54.558,32.013 C54.6715512,32.0273061 54.7864488,32.0273061 54.9,32.013 C55.6203958,31.8236762 56.0513311,31.086656 55.863,30.366 L55.305,28.224 C58.7276529,29.8455479 62.4126076,30.842223 66.186,31.167 C65.951886,33.0503416 65.8766206,34.9500398 65.961,36.846 C44.73,36.9 30.753,26.847 23.274,6.3 C24.3528594,5.05869429 25.6567792,4.03265901 27.117,3.276 Z M11.448,7.632 C12.8999912,7.86947019 14.3687196,7.98985776 15.84,7.992 C17.5247959,7.99004316 19.2058533,7.83338548 20.862,7.524 C26.433,22.608 35.676,32.4 48.474,36.819 L10.152,36.819 C11.994409,27.2040097 12.4309631,17.3724462 11.448,7.632 Z M56.403,46.197 L9.117,46.197 C8.86847186,46.197 8.667,45.9955281 8.667,45.747 L8.667,44.289 L48.924,44.289 C49.6695844,44.289 50.274,43.6845844 50.274,42.939 C50.274,42.1934156 49.6695844,41.589 48.924,41.589 L8.667,41.589 L8.667,39.969 C8.667,39.7204719 8.86847186,39.519 9.117,39.519 L56.403,39.519 L56.403,46.197 Z M81,45.747 C81,45.9955281 80.7985281,46.197 80.55,46.197 L59.103,46.197 L59.103,39.519 L80.568,39.519 C80.8165281,39.519 81.018,39.7204719 81.018,39.969 L81,45.747 Z" id="Shape"></path>
            <path d="M19.584,18.981 C16.7358675,18.981 14.427,21.2898675 14.427,24.138 C14.427,26.9861325 16.7358675,29.295 19.584,29.295 C22.4321325,29.295 24.741,26.9861325 24.741,24.138 C24.741,21.2898675 22.4321325,18.981 19.584,18.981 Z M19.584,26.586 C18.2270364,26.586 17.127,25.4859636 17.127,24.129 C17.127,22.7720364 18.2270364,21.672 19.584,21.672 C20.9409636,21.672 22.041,22.7720364 22.041,24.129 C22.041,25.4859636 20.9409636,26.586 19.584,26.586 Z" id="Shape"></path>
        </g>
    </g>
</svg>