<?xml version="1.0" encoding="UTF-8" standalone="no"?>
<svg width="112px" height="112px" viewBox="0 0 112 112" version="1.1" xmlns="http://www.w3.org/2000/svg" xmlns:xlink="http://www.w3.org/1999/xlink">
    <!-- Generator: Sketch 50.2 (55047) - http://www.bohemiancoding.com/sketch -->
    <title>shorts</title>
    <desc>Created with Sketch.</desc>
    <defs>
        <rect id="path-1" x="0" y="0" width="112" height="112"></rect>
    </defs>
    <g id="Symbols" stroke="none" stroke-width="1" fill="none" fill-rule="evenodd">
        <g id="tile-/-donate-/-shorts" transform="translate(-24.000000, -24.000000)">
            <g id="shorts" transform="translate(24.000000, 24.000000)">
                <mask id="mask-2" fill="white">
                    <use xlink:href="#path-1"></use>
                </mask>
                <use id="Mask" fill="#FFFFFF" xlink:href="#path-1"></use>
                <g id="noun_shorts_644800" mask="url(#mask-2)">
                    <g transform="translate(6.000000, 26.000000)"></g>
                </g>
                <g id="Group" mask="url(#mask-2)" fill="#253673" fill-rule="nonzero">
                    <g transform="translate(16.000000, 26.000000)">
                        <circle id="Oval" cx="40.8393" cy="8.4293" r="1.6393"></circle>
                        <path d="M2.93355694,52.3889116 L33.4497569,60.1489116 C35.2658232,60.6149027 37.1158176,59.5205399 37.5819569,57.7045116 L38.7168569,53.2522116 C39.0250413,52.0933575 38.6838497,50.8583919 37.8244569,50.0221116 L40.2300569,40.6616116 L42.6744569,50.1579116 C41.9207574,51.0018491 41.6370417,52.1658112 41.9178569,53.2619116 L43.0333569,57.7433116 C43.4994963,59.5593399 45.3494907,60.6537027 47.1655569,60.1877116 L77.6817569,52.4277116 C79.4977852,51.9615723 80.592148,50.1115779 80.1261569,48.2955116 L78.9912569,43.8335116 C78.6547035,42.5188172 77.567556,41.5308481 76.2267569,41.3212116 L68.6219569,11.7265116 L68.6219569,2.42421165 C68.6245586,1.71771496 68.3176966,1.04550008 67.7822037,0.58464034 C67.2467108,0.1237806 66.536282,-0.0795126467 65.8380569,0.0283116467 C48.85038,2.56293021 31.5806339,2.56293021 14.5929569,0.0283116467 C13.8947319,-0.0795126467 13.1843031,0.1237806 12.6488102,0.58464034 C12.1133173,1.04550008 11.8064553,1.71771496 11.8090569,2.42421165 L11.8090569,11.7265116 L4.23335694,41.3309116 C2.97258823,41.5944038 1.9694995,42.548653 1.64345694,43.7947116 L0.508556942,48.2567116 C0.0413157868,50.0668484 1.12538887,51.9141089 2.93355694,52.3889116 Z M75.6835569,44.1536116 C75.7688941,44.1549475 75.8524342,44.1783387 75.9260569,44.2215116 C76.037676,44.287841 76.1180386,44.3961559 76.1491569,44.5222116 L77.2840569,48.9842116 C77.3164434,49.108993 77.2978186,49.2415341 77.2322967,49.3525573 C77.1667749,49.4635805 77.0597477,49.5439496 76.9348569,49.5759116 L46.4186569,57.3359116 C46.2938756,57.3682981 46.1613345,57.3496733 46.0503113,57.2841515 C45.9392881,57.2186296 45.858919,57.1116024 45.8269569,56.9867116 L44.6920569,52.5247116 C44.6596705,52.3999303 44.6782953,52.2673892 44.7438171,52.156366 C44.809339,52.0453428 44.9163662,51.9649737 45.0412569,51.9330116 L75.5574569,44.1730116 L75.6835569,44.1536116 Z M47.0006569,4.71341165 C53.2637816,4.47319765 59.5097008,3.90008843 65.7119569,2.99651165 L65.7119569,9.78651165 C59.5110465,10.7084527 53.2648349,11.294541 47.0006569,11.5422116 L47.0006569,4.71341165 Z M14.7384569,2.99651165 C24.4585518,4.41341055 34.2799136,5.01690355 44.1003569,4.80071165 L44.1003569,11.5907116 C34.2785528,11.8076393 24.456046,11.1910961 14.7384569,9.74771165 L14.7384569,2.99651165 Z M14.5929569,12.6965116 C23.0816526,13.9452252 31.650009,14.5741549 40.2300569,14.5783116 C41.5201569,14.5783116 42.8102569,14.5783116 44.1100569,14.5783116 L44.1100569,21.7078116 C44.1100569,23.0471022 43.0243475,24.1328116 41.6850569,24.1328116 L40.1233569,24.1328116 C39.3197826,24.1328116 38.6683569,24.7842373 38.6683569,25.5878116 C38.6683569,26.391386 39.3197826,27.0428116 40.1233569,27.0428116 L41.6656569,27.0428116 C44.6098819,27.0374731 46.9953184,24.6520366 47.0006569,21.7078116 L47.0006569,14.4134116 C53.3129266,14.1685705 59.6075468,13.5857353 65.8574569,12.6674116 L73.3361569,41.7674116 L45.3419569,48.8678116 L41.6365569,34.4924116 C41.4743247,33.8450976 40.892541,33.3911293 40.2252069,33.3911293 C39.5578728,33.3911293 38.9760891,33.8450976 38.8138569,34.4924116 L35.1181569,48.8678116 L7.14335694,41.6995116 L14.5929569,12.6965116 Z M3.26335694,48.9842116 L4.39825694,44.5319116 C4.45500759,44.3211329 4.64557542,44.1742368 4.86385694,44.1730116 L4.93175694,44.1730116 C5.01566301,44.1803603 5.10005087,44.1803603 5.18395694,44.1730116 L35.3703569,51.9330116 C35.4933013,52.0110448 35.6274024,52.0699185 35.7680569,52.1076116 L35.8456569,52.1949116 C35.9101431,52.3064584 35.9275933,52.4390804 35.8941569,52.5635116 L34.7592569,57.0255116 C34.7272949,57.1504024 34.6469258,57.2574296 34.5359026,57.3229515 C34.4248794,57.3884733 34.2923383,57.4070981 34.1675569,57.3747116 L3.65135694,49.6147116 C3.5103583,49.5932771 3.38594057,49.51087 3.31119454,49.3894077 C3.23644852,49.2679455 3.21895145,49.119741 3.26335694,48.9842116 Z" id="Shape"></path>
                    </g>
                </g>
            </g>
        </g>
    </g>
</svg>