<?xml version="1.0" encoding="UTF-8" standalone="no"?>
<svg width="160px" height="160px" viewBox="0 0 160 160" version="1.1" xmlns="http://www.w3.org/2000/svg" xmlns:xlink="http://www.w3.org/1999/xlink">
    <!-- Generator: Sketch 50.2 (55047) - http://www.bohemiancoding.com/sketch -->
    <title>tile / donate / shorts</title>
    <desc>Created with Sketch.</desc>
    <defs></defs>
    <g id="tile-/-donate-/-shorts" stroke="none" stroke-width="1" fill="none" fill-rule="evenodd">
        <g id="noun_shorts_644800" transform="translate(18.000000, 51.000000)" fill="#253673" fill-rule="nonzero">
            <circle id="Oval" cx="61.69" cy="8.69" r="1.69"></circle>
            <path d="M22.6119144,54.0091873 L54.0719144,62.0091873 C55.9441476,62.4895905 57.8513583,61.3613813 58.3319144,59.4891873 L59.5019144,54.8991873 C59.8196302,53.7044923 59.4678862,52.4313319 58.5819144,51.5691873 L61.0619144,41.9191873 L63.5819144,51.7091873 C62.8049046,52.5792259 62.5124141,53.7791868 62.8019144,54.9091873 L63.9519144,59.5291873 C64.4324704,61.4013813 66.3396811,62.5295905 68.2119144,62.0491873 L99.6719144,54.0491873 C101.544108,53.5686312 102.672318,51.6614205 102.191914,49.7891873 L101.021914,45.1891873 C100.674952,43.8338322 99.5541815,42.8153074 98.1719144,42.5991873 L90.3319144,12.0891873 L90.3319144,2.49918726 C90.3345965,1.77084016 90.0182439,1.07783513 89.4661894,0.602722 C88.9141348,0.127608866 88.181734,-0.0819718007 87.4619144,0.0291872646 C69.9488453,2.6421961 52.1449834,2.6421961 34.6319144,0.0291872646 C33.9120947,-0.0819718007 33.1796939,0.127608866 32.6276394,0.602722 C32.0755849,1.07783513 31.7592322,1.77084016 31.7619144,2.49918726 L31.7619144,12.0891873 L23.9519144,42.6091873 C22.6521528,42.8808287 21.6180407,43.8645907 21.2819144,45.1491873 L20.1119144,49.7491873 C19.6302225,51.6153076 20.7478236,53.5196999 22.6119144,54.0091873 Z M97.6119144,45.5191873 C97.6998908,45.5205644 97.7860146,45.5446791 97.8619144,45.5891873 C97.9769855,45.6575681 98.0598337,45.7692329 98.0919144,45.8991873 L99.2619144,50.4991873 C99.2953025,50.6278278 99.2761017,50.7644681 99.2085533,50.878925 C99.141005,50.9933819 99.0306677,51.0762367 98.9019144,51.1091873 L67.4419144,59.1091873 C67.3132738,59.1425754 67.1766335,59.1233746 67.0621766,59.0558262 C66.9477197,58.9882779 66.8648649,58.8779406 66.8319144,58.7491873 L65.6619144,54.1491873 C65.6285263,54.0205467 65.6477271,53.8839064 65.7152754,53.7694495 C65.7828237,53.6549926 65.893161,53.5721378 66.0219144,53.5391873 L97.4819144,45.5391873 L97.6119144,45.5191873 Z M68.0419144,4.85918726 C74.4987439,4.61154397 80.9378358,4.02070972 87.3319144,3.08918726 L87.3319144,10.0891873 C80.9392232,11.039642 74.4998298,11.6438567 68.0419144,11.8991873 L68.0419144,4.85918726 Z M34.7819144,3.08918726 C44.8026307,4.54990779 54.927746,5.17206552 65.0519144,4.94918726 L65.0519144,11.9491873 C54.9263431,12.1728241 44.8000474,11.5372125 34.7819144,10.0491873 L34.7819144,3.08918726 Z M34.6319144,13.0891873 C43.383147,14.3765208 52.2165042,15.0249019 61.0619144,15.0291873 C62.3919144,15.0291873 63.7219144,15.0291873 65.0619144,15.0291873 L65.0619144,22.3791873 C65.0619144,23.7598991 63.9426262,24.8791873 62.5619144,24.8791873 L60.9519144,24.8791873 C60.1234872,24.8791873 59.4519144,25.5507601 59.4519144,26.3791873 C59.4519144,27.2076144 60.1234872,27.8791873 60.9519144,27.8791873 L62.5419144,27.8791873 C65.5771979,27.8736836 68.0364107,25.4144708 68.0419144,22.3791873 L68.0419144,14.8591873 C74.5494089,14.6067737 81.038708,14.0059127 87.4819144,13.0591873 L95.1919144,43.0591873 L66.3319144,50.3791873 L62.5119144,35.5591873 C62.3446647,34.8918532 61.7448877,34.4238446 61.0569144,34.4238446 C60.3689411,34.4238446 59.7691641,34.8918532 59.6019144,35.5591873 L55.7919144,50.3791873 L26.9519144,42.9891873 L34.6319144,13.0891873 Z M22.9519144,50.4991873 L24.1219144,45.9091873 C24.1804202,45.6918896 24.3768819,45.5404504 24.6019144,45.5391873 L24.6719144,45.5391873 C24.7584155,45.5467632 24.8454133,45.5467632 24.9319144,45.5391873 L56.0519144,53.5391873 C56.1786611,53.6196338 56.3169097,53.6803283 56.4619144,53.7191873 L56.5419144,53.8091873 C56.6083949,53.9241839 56.6263849,54.0609076 56.5919144,54.1891873 L55.4219144,58.7891873 C55.3889638,58.9179406 55.306109,59.0282779 55.1916521,59.0958262 C55.0771952,59.1633746 54.9405549,59.1825754 54.8119144,59.1491873 L23.3519144,51.1491873 C23.206555,51.1270898 23.0782892,51.042134 23.0012315,50.9169152 C22.9241737,50.7916963 22.9061355,50.6389083 22.9519144,50.4991873 Z" id="Shape"></path>
        </g>
    </g>
</svg>