<?xml version="1.0" encoding="UTF-8" standalone="no"?>
<svg width="112px" height="112px" viewBox="0 0 112 112" version="1.1" xmlns="http://www.w3.org/2000/svg" xmlns:xlink="http://www.w3.org/1999/xlink">
    <!-- Generator: Sketch 50.2 (55047) - http://www.bohemiancoding.com/sketch -->
    <title>sleepingbags</title>
    <desc>Created with Sketch.</desc>
    <defs>
        <rect id="path-1" x="0" y="0" width="112" height="112"></rect>
    </defs>
    <g id="Symbols" stroke="none" stroke-width="1" fill="none" fill-rule="evenodd">
        <g id="tile-/-donate-/-sleepingbags" transform="translate(-24.000000, -24.000000)">
            <g id="sleepingbags" transform="translate(24.000000, 24.000000)">
                <mask id="mask-2" fill="white">
                    <use xlink:href="#path-1"></use>
                </mask>
                <use id="Mask" fill="#FFFFFF" xlink:href="#path-1"></use>
                <g id="Group" mask="url(#mask-2)" fill="#253673" fill-rule="nonzero" stroke="#253673">
                    <g transform="translate(34.000000, 17.000000)" id="Shape">
                        <path d="M39.5006931,79 L4.49835384,79 C2.01758794,79 0,76.9824718 0,74.5027324 L0,4.49822064 C0,2.0175282 2.01758794,0 4.49835384,0 L39.5016462,0 C41.9824121,0 44,2.0175282 44,4.49822064 L44,74.5027324 C43.999047,76.9824718 41.981459,79 39.5006931,79 Z M4.49835384,1.9060257 C3.06879224,1.9060257 1.90608213,3.06870137 1.90608213,4.49822064 L1.90608213,74.5027324 C1.90608213,75.9322516 3.06879224,77.0939743 4.49835384,77.0939743 L39.5016462,77.0939743 C40.9312078,77.0939743 42.0939179,75.9312986 42.0939179,74.5027324 L42.0939179,4.49822064 C42.0939179,3.06870137 40.9312078,1.9060257 39.5016462,1.9060257 L4.49835384,1.9060257 Z"></path>
                        <path d="M14.2451911,45.8952381 C14.1127148,45.8952381 13.9821446,45.8677809 13.8591989,45.8138134 C13.6161668,45.7068251 13.4293657,45.5032634 13.3435896,45.2542553 L0.0511633338,6.51882224 C-0.0794068535,6.13915592 0.0454449315,5.71877724 0.362816263,5.46976915 C0.679234527,5.22170787 1.11955151,5.19898469 1.46170258,5.41201443 L43.5558155,31.8229673 C43.8541255,32.0104335 44.0247245,32.3474939 43.9970855,32.6978094 C43.9694466,33.048125 43.748335,33.353941 43.4233392,33.4931204 L14.6216526,45.8185474 C14.5025192,45.8696745 14.3738551,45.8952381 14.2451911,45.8952381 Z M2.72642257,8.44461103 L14.8160782,43.6731013 L41.0092203,32.4639501 L2.72642257,8.44461103 Z"></path>
                        <path d="M42.3156094,65.4571429 L1.68346577,65.4571429 C1.17202644,65.4571429 0.75862069,65.1200762 0.75862069,64.7047619 C0.75862069,64.2894476 1.17202644,63.952381 1.68346577,63.952381 L42.3165342,63.952381 C42.8279736,63.952381 43.2413793,64.2894476 43.2413793,64.7047619 C43.2413793,65.1200762 42.8270487,65.4571429 42.3156094,65.4571429 Z"></path>
                        <path d="M42.3118191,51.1619048 L1.68818085,51.1619048 C1.17413408,51.1619048 0.75862069,50.8248381 0.75862069,50.4095238 C0.75862069,49.9942095 1.17413408,49.6571429 1.68818085,49.6571429 L42.3118191,49.6571429 C42.8258659,49.6571429 43.2413793,49.9942095 43.2413793,50.4095238 C43.2413793,50.8248381 42.8258659,51.1619048 42.3118191,51.1619048 Z"></path>
                        <path d="M11.9892208,39.1238095 L1.66504523,39.1238095 C1.16379246,39.1238095 0.75862069,38.7867429 0.75862069,38.3714286 C0.75862069,37.9561143 1.16379246,37.6190476 1.66504523,37.6190476 L11.9901272,37.6190476 C12.49138,37.6190476 12.8965517,37.9561143 12.8965517,38.3714286 C12.8965517,38.7867429 12.4904735,39.1238095 11.9892208,39.1238095 Z"></path>
                        <path d="M42.3544721,39.1238095 L29.7136074,39.1238095 C29.2236377,39.1238095 28.8275862,38.7867429 28.8275862,38.3714286 C28.8275862,37.9561143 29.2236377,37.6190476 29.7136074,37.6190476 L42.3553581,37.6190476 C42.8453278,37.6190476 43.2413793,37.9561143 43.2413793,38.3714286 C43.2413793,38.7867429 42.8444418,39.1238095 42.3544721,39.1238095 Z"></path>
                        <path d="M6.77648367,24.8285714 L1.56834391,24.8285714 C1.12056697,24.8285714 0.75862069,24.4915048 0.75862069,24.0761905 C0.75862069,23.6608762 1.12056697,23.3238095 1.56834391,23.3238095 L6.77648367,23.3238095 C7.22426062,23.3238095 7.5862069,23.6608762 7.5862069,24.0761905 C7.5862069,24.4915048 7.22426062,24.8285714 6.77648367,24.8285714 Z"></path>
                        <path d="M3.01122178,12.0380952 L1.54050236,12.0380952 C1.1081218,12.0380952 0.75862069,11.7010286 0.75862069,11.2857143 C0.75862069,10.8704 1.1081218,10.5333333 1.54050236,10.5333333 L3.01122178,10.5333333 C3.44360234,10.5333333 3.79310345,10.8704 3.79310345,11.2857143 C3.79310345,11.7010286 3.44360234,12.0380952 3.01122178,12.0380952 Z"></path>
                    </g>
                </g>
            </g>
        </g>
    </g>
</svg>