<?xml version="1.0" encoding="UTF-8" standalone="no"?>
<svg width="112px" height="112px" viewBox="0 0 112 112" version="1.1" xmlns="http://www.w3.org/2000/svg" xmlns:xlink="http://www.w3.org/1999/xlink">
    <!-- Generator: Sketch 50.2 (55047) - http://www.bohemiancoding.com/sketch -->
    <title>soap</title>
    <desc>Created with Sketch.</desc>
    <defs>
        <rect id="path-1" x="0" y="0" width="112" height="112"></rect>
    </defs>
    <g id="Symbols" stroke="none" stroke-width="1" fill="none" fill-rule="evenodd">
        <g id="tile-/-donate-/-soap" transform="translate(-24.000000, -24.000000)">
            <g id="soap" transform="translate(24.000000, 24.000000)">
                <mask id="mask-2" fill="white">
                    <use xlink:href="#path-1"></use>
                </mask>
                <use id="Mask" fill="#FFFFFF" xlink:href="#path-1"></use>
                <g id="noun_Soap-Bar_588274" mask="url(#mask-2)">
                    <g transform="translate(12.000000, 33.000000)" id="Group">
                        <g transform="translate(3.800000, 0.000000)">
                            <path d="M14.5293,50.61885 L14.5198,50.61885 C6.93595,50.61885 0.76285,44.4486 0.7581,36.8638 L0.74195,14.48845 C0.7372,6.8989 6.90745,0.7201 14.497,0.7144 L65.4094,0.6802 C73.00275,0.6802 79.1768,6.8514 79.18155,14.4362 L79.19105,27.4265 C80.91815,28.25205 82.05435,29.99815 82.05435,31.97605 C82.05625,34.0556 80.7994,35.8834 78.9165,36.6529 L78.8576,36.83055 L77.86295,36.9569 C75.04905,37.31695 72.9828,39.65585 72.9847,42.40895 C72.98565,43.6373 73.38845,44.802 74.14845,45.77765 L74.96355,46.8255 L73.9195,47.6463 C71.47135,49.5672 68.53965,50.58275 65.44075,50.5837 L14.5293,50.61885 Z M65.41605,3.3478 L14.49795,3.382 C8.3809,3.3858 3.40575,8.3676 3.40955,14.4875 L3.4257,36.8619 C3.42855,42.97705 8.4056,47.9522 14.52075,47.9522 L14.52075,49.28505 L14.52835,47.9522 L65.44075,47.91705 C67.5317,47.9161 69.5286,47.3423 71.28135,46.246 C70.65055,45.0718 70.3209,43.76935 70.319,42.41275 C70.31615,38.31825 73.3837,34.84125 77.4554,34.3235 L77.55135,34.30165 C78.63435,34.0404 79.39055,33.08565 79.38865,31.9789 C79.38865,30.8712 78.63245,29.91835 77.55135,29.6609 L76.5282,29.4177 L76.5168,14.43905 C76.51205,8.32295 71.53215,3.3478 65.41605,3.3478 Z" id="Shape" fill="#253673" fill-rule="nonzero"></path>
                            <g transform="translate(10.450000, 11.400000)" fill="#253673" fill-rule="nonzero" id="Shape">
                                <path d="M2.26195,6.89985 C1.5257,6.89985 0.92815,6.30325 0.92815,5.567 C0.92815,2.7759 3.19675,0.50255 5.9869,0.50065 C5.9869,0.50065 5.9869,0.50065 5.98785,0.50065 C6.72315,0.50065 7.3207,1.0963 7.32165,1.83255 C7.32165,2.5688 6.726,3.16635 5.98975,3.1673 C4.6683,3.16825 3.5948,4.2446 3.5948,5.56605 C3.59575,6.3023 2.99915,6.89985 2.26195,6.89985 C2.26195,6.89985 2.26195,6.89985 2.26195,6.89985 Z"></path>
                                <path d="M56.9582,6.8647 C56.22195,6.8647 55.62535,6.2681 55.6244,5.53185 C55.6244,4.2104 54.54805,3.13595 53.22755,3.13595 C53.2266,3.13595 53.2266,3.13595 53.2266,3.13595 L5.9888,3.1673 L5.98785,3.1673 C5.2516,3.1673 4.655,2.57165 4.655,1.8354 C4.65405,1.09915 5.2516,0.5016 5.98785,0.5016 L53.22565,0.47025 C53.22565,0.47025 53.2266,0.47025 53.2266,0.47025 C56.0177,0.47025 58.28915,2.74075 58.29105,5.53185 C58.292,6.26715 57.69445,6.8647 56.9582,6.8647 Z"></path>
                            </g>
                            <g transform="translate(10.450000, 32.300000)" fill="#253673" fill-rule="nonzero" id="Shape">
                                <path d="M53.2304,6.7678 C52.4951,6.7678 51.89755,6.1712 51.89755,5.4359 C51.89755,4.69965 52.4932,4.1021 53.22945,4.10115 C54.5509,4.1002 55.62535,3.02385 55.62535,1.70335 C55.62535,0.9671 56.22195,0.36955 56.95915,0.36955 C57.6954,0.36955 58.292,0.96615 58.292,1.70335 C58.292,4.4935 56.0215,6.7659 53.2323,6.76875 C53.23135,6.7678 53.23135,6.7678 53.2304,6.7678 Z"></path>
                                <path d="M5.9945,6.79915 C4.64075,6.79915 3.36965,6.27285 2.413,5.3181 C1.45635,4.36335 0.93005,3.0913 0.9291,1.7385 C0.9291,1.00225 1.52475,0.4047 2.26195,0.4047 C2.26195,0.4047 2.26195,0.4047 2.26195,0.4047 C2.9982,0.4047 3.5948,1.00035 3.5948,1.73755 C3.5948,2.3788 3.84465,2.98015 4.29685,3.43235 C4.75,3.88455 5.35135,4.13345 5.9926,4.13345 C5.99355,4.13345 5.99355,4.13345 5.99355,4.13345 L53.22945,4.10115 C53.9657,4.10115 54.5623,4.69775 54.56325,5.434 C54.56325,6.17025 53.96665,6.76685 53.2304,6.7678 L5.9945,6.79915 C5.99545,6.79915 5.9945,6.79915 5.9945,6.79915 Z"></path>
                            </g>
                            <path d="M78.49375,50.57705 L78.49185,50.57705 C73.98885,50.57705 70.3228,46.9148 70.31805,42.41275 C70.3171,37.9088 73.97935,34.2399 78.48235,34.23515 C82.9901,34.23515 86.6571,37.89835 86.65805,42.4023 C86.65995,44.5835 85.81255,46.63645 84.26975,48.18115 C82.7279,49.723 80.6759,50.57515 78.49375,50.57705 Z M78.4833,36.90085 C75.4509,36.90465 72.9828,39.3756 72.9847,42.4099 C72.98755,45.44135 75.45755,47.90945 78.48995,47.90945 C79.96055,47.9085 81.3428,47.3347 82.3821,46.29445 C83.4214,45.25515 83.99235,43.87195 83.99045,42.4023 C83.99045,39.368 81.52045,36.90085 78.4833,36.90085 Z" id="Shape" fill="#253673" fill-rule="nonzero"></path>
                            <path d="M76.9956,37.04335 L76.9899,37.04335 C74.2007,37.04335 71.93115,34.7738 71.92925,31.9846 C71.9283,29.1935 74.1969,26.92015 76.988,26.91825 C78.34175,26.91825 79.6138,27.44455 80.57045,28.40025 C81.5271,29.3569 82.05435,30.62705 82.05435,31.9808 C82.05625,34.7681 79.78765,37.03955 76.9956,37.04335 Z M76.99085,29.58395 C75.6694,29.5849 74.59495,30.66125 74.59495,31.9827 C74.5959,33.30225 75.6694,34.3767 76.9899,34.3767 L76.9899,35.7105 L76.99275,34.3767 C78.3142,34.3748 79.38865,33.30035 79.3877,31.98175 C79.38675,30.6584 78.3123,29.58395 76.99085,29.58395 Z" id="Shape" fill="#253673" fill-rule="nonzero"></path>
                        </g>
                    </g>
                </g>
            </g>
        </g>
    </g>
</svg>