<?xml version="1.0" encoding="UTF-8" standalone="no"?>
<svg width="160px" height="160px" viewBox="0 0 160 160" version="1.1" xmlns="http://www.w3.org/2000/svg" xmlns:xlink="http://www.w3.org/1999/xlink">
    <!-- Generator: Sketch 50.2 (55047) - http://www.bohemiancoding.com/sketch -->
    <title>tile / donate / socks</title>
    <desc>Created with Sketch.</desc>
    <defs></defs>
    <g id="tile-/-donate-/-socks" stroke="none" stroke-width="1" fill="none" fill-rule="evenodd">
        <g id="noun_socks_644795" transform="translate(32.000000, 41.000000)" fill="#253673" fill-rule="nonzero">
            <path d="M20.9,65.474 C22.7653191,65.4717726 24.6096411,65.0802587 26.315,64.3245 L55.67,51.4045 C60.1205685,49.4263948 62.992957,45.017353 63.004,40.147 L63.004,5.1395 C62.9987736,2.55504232 60.9049577,0.461226422 58.3205,0.456 L40.9165,0.456 C38.3320423,0.461226422 36.2382264,2.55504232 36.233,5.1395 L36.233,30.7135 L15.5515,39.824 C9.76274344,42.3782334 6.5507196,48.6346628 7.84887717,54.8272872 C9.14703474,61.0199117 14.6012886,65.4596325 20.9285,65.474 L20.9,65.474 Z M60.154,40.147 C60.1411714,43.8862308 57.9360486,47.2701461 54.5205,48.792 L52.478,49.6945 C50.5531823,46.5478199 50.3225774,42.6490013 51.8630364,39.2973592 C53.4034954,35.945717 56.5125196,33.5818361 60.154,32.9935 L60.154,40.147 Z M39.083,5.1395 C39.0881952,4.12904567 39.9060457,3.31119524 40.9165,3.306 L58.3205,3.306 C59.3309543,3.31119524 60.1488048,4.12904567 60.154,5.1395 L60.154,8.227 L39.083,8.227 L39.083,5.1395 Z M38.228,32.946 C38.7458029,32.7200157 39.0812011,32.2094651 39.083,31.6445 L39.083,11.077 L60.154,11.077 L60.154,30.077 C55.5221254,30.6558875 51.488913,33.5182573 49.4135998,37.6994591 C47.3382867,41.8806608 47.497281,46.823806 49.837,50.863 L27.6735,60.629 L18.829,41.496 L38.228,32.946 Z M11.058,48.45 C11.9747336,45.9245978 13.8289001,43.8492921 16.2355,42.655 L25.061,61.75 C21.2017805,63.3802882 16.7433407,62.5690903 13.7056898,59.6839402 C10.6680389,56.79879 9.62847542,52.3880038 11.058,48.45 Z" id="Shape"></path>
            <path d="M65.854,11.761 C65.854,12.5480058 66.4919942,13.186 67.279,13.186 L80.3985,13.186 C81.4089543,13.1911952 82.2268048,14.0090457 82.232,15.0195 L82.232,18.107 L67.279,18.107 C66.4919942,18.107 65.854,18.7449942 65.854,19.532 C65.854,20.3190058 66.4919942,20.957 67.279,20.957 L82.2415,20.957 L82.2415,39.957 C77.6096254,40.5358875 73.576413,43.3982573 71.5010998,47.5794591 C69.4257867,51.7606608 69.584781,56.703806 71.9245,60.743 L49.761,70.509 L45.239,60.724 C45.0382423,60.241589 44.5895625,59.9077418 44.0698117,59.8540471 C43.5500609,59.8003524 43.0426071,60.035423 42.7474676,60.4666035 C42.4523282,60.8977841 42.4168434,61.4559135 42.655,61.921 L47.158,71.6585 C42.0065623,73.8595291 36.034264,71.6319329 33.5825,66.595 C33.2147859,65.9299573 32.3899021,65.6704776 31.7076818,66.0052474 C31.0254615,66.3400172 30.7259747,67.1512328 31.027,67.849 C34.1707783,74.3188299 41.8760153,77.1337202 48.45,74.214 L77.767,61.294 C82.2175685,59.3158948 85.089957,54.906853 85.101,50.0365 L85.101,19.5415 L85.101,15.0195 C85.0957736,12.4350423 83.0019577,10.3412264 80.4175,10.336 L67.279,10.336 C66.4919942,10.336 65.854,10.9739942 65.854,11.761 Z M82.2415,50.0365 C82.2286714,53.7757308 80.0235486,57.1596461 76.608,58.6815 L74.5655,59.584 C72.6406823,56.4373199 72.4100774,52.5385013 73.9505364,49.1868592 C75.4909954,45.835217 78.6000196,43.4713361 82.2415,42.883 L82.2415,50.0365 Z" id="Shape"></path>
        </g>
    </g>
</svg>