<?xml version="1.0" encoding="UTF-8" standalone="no"?>
<svg width="112px" height="112px" viewBox="0 0 112 112" version="1.1" xmlns="http://www.w3.org/2000/svg" xmlns:xlink="http://www.w3.org/1999/xlink">
    <!-- Generator: Sketch 50.2 (55047) - http://www.bohemiancoding.com/sketch -->
    <title>toothpaste</title>
    <desc>Created with Sketch.</desc>
    <defs></defs>
    <g id="Symbols" stroke="none" stroke-width="1" fill="none" fill-rule="evenodd">
        <g id="tile-/-donate-/-toothpaste" transform="translate(-24.000000, -24.000000)">
            <g id="toothpaste" transform="translate(24.000000, 24.000000)">
                <rect id="Rectangle-5" fill="#FFFFFF" x="0" y="0" width="112" height="112"></rect>
                <path d="M85.5,71 L85,71 L85,53.5 C85,51.5670034 83.4329966,50 81.5,50 L79.19,50 C85.290337,46.2787733 89.0086273,39.6457376 89,32.5 L89,30.67 L87.2,31 C76.3531654,33.039633 65.2343477,33.1783644 54.34,31.41 C50.6933603,30.8038814 46.9502672,31.212093 43.52,32.59 C35.9171653,35.7942399 30.9811258,43.249552 31,51.5 L31,53.3 L32.77,53 C34.24,52.73 35.77,52.51 37.23,52.31 C37.083914,52.6900444 37.006053,53.0928904 37,53.5 L37,71 L8.5,71 C7.67157288,71 7,71.6715729 7,72.5 C7,73.3284271 7.67157288,74 8.5,74 L85.5,74 C86.8807119,74 88,75.1192881 88,76.5 C88,77.8807119 86.8807119,79 85.5,79 L8.5,79 C7.67157288,79 7,79.6715729 7,80.5 C7,81.3284271 7.67157288,82 8.5,82 L85.5,82 C88.5375661,82 91,79.5375661 91,76.5 C91,73.4624339 88.5375661,71 85.5,71 Z M34.09,49.7 C34.7374971,43.3445361 38.8023636,37.8492967 44.69,35.37 C47.6107634,34.2006103 50.7963203,33.8547301 53.9,34.37 C64.5006377,36.0725974 75.3069126,36.0489587 85.9,34.3 C85.4869958,39.0140067 83.1345798,43.3446989 79.4049368,46.2571196 C75.6752938,49.1695404 70.9035262,50.4020134 66.23,49.66 C60.7289777,48.8999806 55.1832433,48.5091065 49.63,48.49 C44.4259283,48.4758165 39.2291547,48.8804559 34.09,49.7 Z M82,71 L40,71 L40,53.5 C40,53.2238576 40.2238576,53 40.5,53 L43.43,53 L43.43,66.5 C43.43,67.3284271 44.1015729,68 44.93,68 C45.7584271,68 46.43,67.3284271 46.43,66.5 L46.43,53 L49.86,53 L49.86,66.5 C49.86,67.3284271 50.5315729,68 51.36,68 C52.1884271,68 52.86,67.3284271 52.86,66.5 L52.86,53 L56.29,53 L56.29,66.5 C56.29,67.3284271 56.9615729,68 57.79,68 C58.6184271,68 59.29,67.3284271 59.29,66.5 L59.29,53 L62.72,53 L62.72,66.5 C62.7200001,67.3284271 63.3915729,67.9999999 64.22,67.9999999 C65.0484271,67.9999999 65.7199999,67.3284271 65.72,66.5 L65.72,53 L69.15,53 L69.15,66.5 C69.15,67.3284271 69.8215729,68 70.65,68 C71.4784271,68 72.15,67.3284271 72.15,66.5 L72.15,53 L75.58,53 L75.58,66.5 C75.58,67.3284271 76.2515729,68 77.08,68 C77.9084271,68 78.58,67.3284271 78.58,66.5 L78.58,53 L81.5,53 C81.7761424,53 82,53.2238576 82,53.5 L82,71 Z" id="Shape" fill="#253673" fill-rule="nonzero"></path>
            </g>
        </g>
    </g>
</svg>