<?xml version="1.0" encoding="UTF-8"?>
<svg width="44px" height="46px" viewBox="0 0 44 46" version="1.1" xmlns="http://www.w3.org/2000/svg" xmlns:xlink="http://www.w3.org/1999/xlink">
    <!-- Generator: Sketch 50.2 (55047) - http://www.bohemiancoding.com/sketch -->
    <title>icon / donation</title>
    <desc>Created with Sketch.</desc>
    <defs></defs>
    <g id="Interfaces" stroke="none" stroke-width="1" fill="none" fill-rule="evenodd">
        <g id="Request_Confirmation" transform="translate(-490.000000, -509.000000)">
            <g id="Group" transform="translate(490.000000, 308.000000)">
                <g id="icon-/-donation" transform="translate(0.000000, 201.000000)">
                    <g id="Group">
                        <rect id="Rectangle" fill="#FFFFFF" x="0" y="0" width="44" height="46"></rect>
                        <path d="M11.9088153,7.35960509 L5.2418588,13.9716051 C4.5818588,14.6231051 4.66268489,15.4441051 5.29590228,16.0671051 L11.9355979,22.6221051 C12.366511,23.1031051 13.1613805,23.1171051 13.5922936,22.6356051 C14.0232066,22.1686051 13.9696414,21.3191051 13.4980762,20.9086051 L8.74368489,16.1801051 L37.8358153,16.1801051 C38.4422501,16.1941051 38.9941631,15.6281051 38.9941631,14.9906051 C38.9941631,14.3536051 38.4422501,13.7871051 37.8358153,13.7871051 L8.73029358,13.7871051 L13.4980762,9.07260509 C14.656424,7.67110509 12.9193805,6.34010509 11.9088153,7.35960509 Z M30.2668588,25.0431051 L35.0212501,29.7576051 L5.94251098,29.7576051 C5.33655445,29.7436051 4.78416315,30.3241051 4.78416315,30.9471051 C4.78416315,31.5841051 5.33655445,32.1651051 5.94251098,32.1506051 L35.0346414,32.1506051 L30.2668588,36.8791051 C29.7278588,37.4171051 29.8622501,38.2101051 30.2266849,38.5776051 C30.8058588,39.1581051 31.4122936,39.0166051 31.8699892,38.5916051 L38.5364675,31.9801051 C39.1969458,31.3286051 39.1156414,30.5076051 38.482424,29.8701051 L31.8427284,23.3011051 C30.6571197,22.1266051 29.108511,23.8961051 30.2668588,25.0431051 Z" id="Shape" fill="#A13604" fill-rule="nonzero"></path>
                    </g>
                </g>
            </g>
        </g>
    </g>
</svg>