<?xml version="1.0" encoding="UTF-8"?>
<svg width="44px" height="46px" viewBox="0 0 44 46" version="1.1" xmlns="http://www.w3.org/2000/svg" xmlns:xlink="http://www.w3.org/1999/xlink">
    <!-- Generator: Sketch 50.2 (55047) - http://www.bohemiancoding.com/sketch -->
    <title>icon / email</title>
    <desc>Created with Sketch.</desc>
    <defs></defs>
    <g id="Interfaces" stroke="none" stroke-width="1" fill="none" fill-rule="evenodd">
        <g id="Request_Confirmation" transform="translate(-490.000000, -409.000000)">
            <g id="Group" transform="translate(490.000000, 308.000000)">
                <g id="icon-/-email" transform="translate(0.000000, 101.000000)">
                    <rect id="Rectangle" fill="#FFFFFF" fill-rule="evenodd" x="0" y="0" width="44" height="46"></rect>
                    <path d="M7.86461158,11 C5.64678497,11 3.82608696,12.8309035 3.82608696,15.0608705 L3.82608696,31.9385974 C3.82608696,34.1685644 5.64731027,36 7.86461158,36 L37.0919102,36 C39.3097368,36 41.1304348,34.1690965 41.1304348,31.9385974 L41.1304348,15.0608705 C41.1304348,12.8314356 39.3092115,11 37.0919102,11 L7.86461158,11 Z M7.86461158,13.4954773 L37.0919102,13.4954773 C37.9728422,13.4954773 38.6483811,14.1744174 38.6483811,15.0603384 L38.6483811,15.3263808 L22.4927067,24.9693519 L6.30761535,15.3269128 L6.30761535,15.0608705 C6.30761535,14.1749495 6.9831542,13.4954773 7.86461158,13.4954773 Z M6.30761535,18.2352879 L21.8607679,27.4935618 C22.2431881,27.7298074 22.7422253,27.7298074 23.1241201,27.4935618 L38.6478558,18.2352879 L38.6478558,31.9380653 C38.6478558,32.8245185 37.9723169,33.5039906 37.0913849,33.5039906 L7.86461158,33.5039906 C6.9836795,33.5039906 6.30814066,32.8245185 6.30814066,31.9380653 L6.30814066,18.2352879 L6.30761535,18.2352879 Z" id="Shape" fill="#A13604" fill-rule="nonzero"></path>
                </g>
            </g>
        </g>
    </g>
</svg>