<?xml version="1.0" encoding="UTF-8"?>
<svg width="512px" height="512px" viewBox="0 0 512 512" version="1.1" xmlns="http://www.w3.org/2000/svg" xmlns:xlink="http://www.w3.org/1999/xlink">
    <!-- Generator: Sketch 49.2 (51160) - http://www.bohemiancoding.com/sketch -->
    <title>noun_266627_cc</title>
    <desc>Created with Sketch.</desc>
    <defs></defs>
    <g id="Page-1" stroke="none" stroke-width="1" fill="none" fill-rule="evenodd" opacity="0.5">
        <g id="noun_266627_cc" fill="#FFFFFF" fill-rule="nonzero">
            <path d="M450.896,367.672 C447.552,367.399 443.873,367.274 439.849,367.274 C424.935,367.274 405.294,369.079 380.841,372.446 C355.802,325.462 306.732,245.228 259.483,235.915 C259.139,222.212 260.663,208.649 264.092,195.345 C265.725,189.001 267.787,182.712 270.272,176.486 C283.216,184.869 297.888,188.947 312.459,188.947 C335.818,188.947 358.912,178.486 374.248,158.533 C416.982,102.971 398.068,0.002 398.068,0.002 C398.068,0.002 298.248,7.815 253.881,60.127 C220.092,42.252 175.819,40.705 161.553,40.705 C158.576,40.705 156.905,40.768 156.905,40.768 C156.905,40.768 151.741,122.002 189.827,160.994 C201.686,173.142 217.413,179.236 233.147,179.236 C237.85,179.236 242.545,178.673 247.147,177.58 C245.803,181.557 244.6,185.549 243.553,189.564 C239.514,205.048 237.709,220.822 238.139,236.736 C199.6,247.111 160.139,302.314 133.749,346.97 C125.069,346.501 116.694,346.04 108.882,345.611 C104.991,345.4 101.226,345.298 97.601,345.298 C16.797,345.298 -5.68434189e-14,395.736 -5.68434189e-14,395.736 L-5.68434189e-14,447.978 C0.031,477.939 92.351,492.611 92.671,492.666 C165.999,507.148 256.131,512 256.131,512 C256.131,512 503.13,414.963 509.614,409.299 C516.09,403.625 513.254,372.672 450.896,367.672 Z M233.146,157.899 C222.49,157.899 212.529,153.704 205.083,146.086 C192.849,133.555 184.286,112.126 180.325,84.118 C179.223,76.321 178.622,68.977 178.309,62.68 C186.997,63.313 197.747,64.555 208.918,66.938 C221.715,69.665 232.91,73.446 242.191,78.118 C237.605,87.852 235.191,98.251 234.863,108.657 C231.441,104.719 229.168,102.173 228.941,101.923 C227.121,99.884 224.519,98.54 221.582,98.376 C215.699,98.04 210.66,102.54 210.332,108.423 C210.168,111.368 211.207,114.095 213.035,116.134 C224.746,129.243 237.488,144.548 245.949,155.766 C241.88,157.165 237.568,157.899 233.146,157.899 Z M267.881,76.736 C286.271,52.814 320.318,39.072 345.646,31.759 C358.349,28.087 370.232,25.626 379.599,24.017 C380.451,33.486 381.122,45.595 380.833,58.822 C380.27,85.174 375.731,121.611 357.341,145.532 C346.552,159.563 330.193,167.61 312.458,167.61 C300.528,167.61 289.185,163.939 279.521,156.978 C282.668,151.275 286.161,145.65 290.02,140.111 C311.317,109.565 336.254,92.158 336.504,91.986 L336.496,91.986 C339.801,89.705 341.676,85.658 340.973,81.439 C339.996,75.626 334.496,71.712 328.692,72.681 C327.098,72.954 325.661,73.564 324.419,74.415 L324.419,74.407 C323.286,75.188 296.489,93.774 272.967,127.274 C269.897,131.649 267.037,136.087 264.358,140.563 C260.319,133.915 257.663,126.438 256.631,118.485 C254.685,103.525 258.678,88.697 267.881,76.736 Z M167.99,332.383 C183.412,309.07 198.287,290.641 212.193,277.586 C226.865,263.828 240.044,256.485 250.318,256.344 C250.412,256.344 250.506,256.344 250.607,256.344 L250.615,256.344 C260.733,256.344 273.756,263.547 288.271,277.172 C302.115,290.164 316.912,308.602 332.248,331.961 C342.24,347.172 351.131,362.484 358.381,375.766 C345.561,377.766 331.678,380.094 316.709,382.735 C309.732,362.868 265.452,354.141 265.452,354.141 C265.452,354.141 210.866,351.172 157.866,348.282 C161.092,343.031 164.467,337.703 167.99,332.383 Z M380.669,439.703 C337.763,456.859 290.599,475.531 252.709,490.422 C233.631,489.219 158.522,483.93 96.803,471.734 L96.405,471.656 L96.014,471.593 C95.834,471.562 77.983,468.687 58.843,463.093 C31.742,455.155 23.414,448.179 21.336,445.991 L21.336,400.272 C22.938,397.366 26.422,391.967 32.609,386.514 C38.914,380.959 46.64,376.483 55.585,373.217 C67.538,368.842 81.671,366.631 97.6,366.631 C100.881,366.631 104.288,366.725 107.717,366.912 C163.967,369.982 249.615,374.646 262.615,375.35 C265.287,375.952 271.763,377.538 278.81,380.139 C285.754,382.702 290.293,385.162 293.098,387.061 C270.872,392.327 203.99,407.233 156.552,407.764 C150.716,407.827 146.005,412.577 146.005,418.428 C146.005,424.319 150.778,429.092 156.669,429.092 C181.919,428.811 214.825,424.819 254.223,417.225 C277.13,412.819 295.363,408.655 302.574,406.889 L320.41,403.748 C379.004,393.412 416.957,388.6 439.848,388.6 C443.301,388.6 446.45,388.717 449.192,388.936 C468.153,390.452 478.644,394.483 484.121,397.616 C463.583,406.359 424.341,422.25 380.669,439.703 Z" id="Shape"></path>
        </g>
    </g>
</svg>