<?xml version="1.0" encoding="UTF-8"?>
<svg width="46px" height="46px" viewBox="0 0 46 46" version="1.1" xmlns="http://www.w3.org/2000/svg" xmlns:xlink="http://www.w3.org/1999/xlink">
    <!-- Generator: Sketch 51.1 (57501) - http://www.bohemiancoding.com/sketch -->
    <title>icon / requestors / learn more</title>
    <desc>Created with Sketch.</desc>
    <defs></defs>
    <g id="icon-/-requestors-/-learn-more" stroke="none" stroke-width="1" fill="none" fill-rule="evenodd">
        <g id="noun_learn_1195067" transform="translate(8.000000, 10.000000)" fill="#A13604" fill-rule="nonzero" stroke="#A13604" stroke-width="0.5">
            <path d="M8.66363636,23.1459091 C9.94960839,23.1481476 11.1734156,23.6856305 12.0272727,24.6231818 L12.1333333,24.7295455 C12.2703153,24.8686229 12.4182408,24.9970445 12.5757576,25.1136364 C12.6393939,25.1579545 12.7,25.2022727 12.7575758,25.2377273 C12.8944623,25.3265507 13.0371949,25.4064961 13.1848485,25.4770455 L13.269697,25.5154545 C13.3484848,25.5538636 13.4272727,25.5863636 13.5121212,25.6159091 C13.6162372,25.6541598 13.7224633,25.6867105 13.830303,25.7134091 C13.9030303,25.7340909 14,25.7606818 14.1151515,25.7813636 C14.2791664,25.813051 14.4452092,25.833781 14.6121212,25.8434091 L14.8454545,25.8434091 C15.0958397,25.8430063 15.3455598,25.8182627 15.5909091,25.7695455 C15.6878788,25.7518182 15.769697,25.7311364 15.8121212,25.7163636 C15.9395939,25.68521 16.0650654,25.6467338 16.1878788,25.6011364 L16.2151515,25.6011364 L16.4030303,25.5213636 L16.4787879,25.4859091 C16.6394354,25.4111409 16.7943781,25.3252388 16.9424242,25.2288636 L17.1030303,25.1195455 C17.2721999,24.9937245 17.4303227,24.8543788 17.5757576,24.7029545 L17.6757576,24.5965909 C18.5207092,23.667505 19.7355427,23.1388039 21.0090909,23.1459091 L22.2454545,23.1459091 C22.6638521,23.1459091 23.0030303,22.8152103 23.0030303,22.4072727 C23.0030303,21.9993351 22.6638521,21.6686364 22.2454545,21.6686364 L21.0242424,21.6686364 C19.3066862,21.6602934 17.6696979,22.378037 16.5363636,23.6363636 L16.5090909,23.6659091 L16.4848485,23.6895455 C16.3913933,23.781556 16.2900112,23.8655764 16.1818182,23.9406818 L16.0909091,24.0027273 C15.9941536,24.0632564 15.8928566,24.1165893 15.7878788,24.1622727 L15.7393939,24.1859091 L15.6212121,24.2361364 C15.5468764,24.2630836 15.4709895,24.2857737 15.3939394,24.3040909 L15.2636364,24.3336364 C15.1170277,24.3627845 14.9678071,24.3776304 14.8181818,24.3779545 L14.6848485,24.3779545 C14.5830446,24.3720436 14.4817883,24.3592094 14.3818182,24.3395455 C14.3181818,24.3395455 14.2666667,24.3129545 14.2030303,24.2952273 C14.1404353,24.2797293 14.0787317,24.2609906 14.0181818,24.2390909 L13.8818182,24.1829545 L13.8272727,24.1563636 C13.7361143,24.1129068 13.648039,24.0635543 13.5636364,24.0086364 L13.4848485,23.9318182 C13.3878206,23.8600092 13.2966392,23.7809853 13.2121212,23.6954545 L13.1545455,23.6363636 C12.011716,22.3900205 10.3783118,21.6775553 8.66363636,21.6775 L1.51515152,21.6775 L1.51515152,4.86613636 L3.40606061,4.86613636 L3.40606061,18.7761364 C3.40606061,19.184074 3.74523883,19.5147727 4.16363636,19.5147727 L8.87575758,19.5147727 C10.9396956,19.5170622 12.9048421,20.3767449 14.2787879,21.8784091 C14.4590446,22.0752706 14.733326,22.1634164 14.9983128,22.1096429 C15.2632997,22.0558694 15.4787342,21.868346 15.5634643,21.617711 C15.6481945,21.3670761 15.5893476,21.0914069 15.4090909,20.8945455 C13.7504085,19.0734603 11.3737147,18.0287513 8.87575758,18.0227273 L4.92121212,18.0227273 L4.92121212,1.63386364 L8.87575758,1.63386364 C10.8405829,1.63567608 12.720478,2.41511076 14.0848485,3.79363636 L14.0848485,5.48068182 C14.0848485,5.88861942 14.4240267,6.21931818 14.8424242,6.21931818 C15.2608218,6.21931818 15.6,5.88861942 15.6,5.48068182 L15.6,3.79068182 C16.9643705,2.41215622 18.8442656,1.63272154 20.8090909,1.63090909 L24.7666667,1.63090909 L24.7666667,7.76454545 C24.7666667,8.17248305 25.1058449,8.50318182 25.5242424,8.50318182 C25.94264,8.50318182 26.2818182,8.17248305 26.2818182,7.76454545 L26.2818182,4.86613636 L28.1818182,4.86613636 L28.1818182,17.5943182 C28.1818182,18.0022558 28.5209964,18.3329545 28.9393939,18.3329545 C29.3577915,18.3329545 29.6969697,18.0022558 29.6969697,17.5943182 L29.6969697,4.50568182 C29.6969697,4.20948322 29.5762882,3.92541615 29.3614738,3.71597211 C29.1466594,3.50652807 28.8553086,3.38886364 28.5515152,3.38886364 L26.2818182,3.38886364 L26.2818182,0.886363636 C26.2818182,0.478426037 25.94264,0.147727273 25.5242424,0.147727273 L20.8121212,0.147727273 C18.5983094,0.151614849 16.4679171,0.971702223 14.8484848,2.44340909 C13.2253606,0.972847422 11.0914753,0.155832443 8.87575758,0.156590909 L4.16363636,0.156590909 C3.74876349,0.156561784 3.41103908,0.481891706 3.40606061,0.886363636 L3.40606061,3.38 L1.14545455,3.38 C0.840079431,3.37999062 0.547342373,3.498871 0.332264727,3.710236 C0.117187082,3.92160099 -0.00242361218,4.20795046 -5.89763901e-14,4.50568182 L-5.89763901e-14,22.0320455 C-5.88081762e-14,22.6488471 0.512837468,23.1488636 1.14545455,23.1488636 L8.66363636,23.1459091 Z" id="Shape"></path>
            <path d="M24.669697,16.2943182 C26.2067811,13.3849915 25.3412173,9.81758651 22.6300898,7.88811532 C19.9189623,5.95864412 16.1703636,6.24221475 13.7969237,8.55631874 C11.4234837,10.8704227 11.132642,14.5253064 13.1115868,17.1686557 C15.0905316,19.812005 18.7494085,20.6559297 21.7333333,19.1572727 L26.1515152,23.465 C26.676046,23.9769454 27.4408551,24.1771643 28.1578464,23.9902364 C28.8748376,23.8033085 29.435083,23.2576324 29.6275434,22.5587591 C29.8200038,21.8598858 29.6154399,21.1139908 29.0909091,20.6020455 L24.669697,16.2943182 Z M14.8727273,16.9059091 C13.0858645,15.163654 12.810112,12.4333463 14.2141093,10.3847363 C15.6181066,8.33612636 18.3108198,7.53978208 20.6454899,8.4827168 C22.98016,9.42565152 24.3065471,11.8452441 23.8134842,14.2617654 C23.3204213,16.6782868 21.1452337,18.4187002 18.6181818,18.4186364 C17.2125539,18.4225272 15.8637904,17.8777838 14.8727273,16.9059091 Z M28.0181818,22.4190909 C27.795848,22.6254401 27.4465762,22.6254401 27.2242424,22.4190909 L23.030303,18.3181818 C23.1727273,18.2 23.3121212,18.0788636 23.4454545,17.9488636 C23.5787879,17.8188636 23.7030303,17.6829545 23.8242424,17.5440909 L28.0181818,21.645 C28.1236597,21.7475499 28.1829417,21.8868121 28.1829417,22.0320455 C28.1829417,22.1772788 28.1236597,22.3165411 28.0181818,22.4190909 Z" id="Shape"></path>
        </g>
    </g>
</svg>