<?xml version="1.0" encoding="UTF-8"?>
<svg width="44px" height="46px" viewBox="0 0 44 46" version="1.1" xmlns="http://www.w3.org/2000/svg" xmlns:xlink="http://www.w3.org/1999/xlink">
    <!-- Generator: sketchtool 50.2 (55047) - http://www.bohemiancoding.com/sketch -->
    <title>43A3D740-1E92-4F58-98C0-7EE443E930E8</title>
    <desc>Created with sketchtool.</desc>
    <defs></defs>
    <g id="Interfaces" stroke="none" stroke-width="1" fill="none" fill-rule="evenodd">
        <g id="Request_Confirmation" transform="translate(-490.000000, -309.000000)">
            <g id="Group" transform="translate(490.000000, 308.000000)">
                <g id="icon-/-requests" transform="translate(0.000000, 1.000000)">
                    <g id="Group">
                        <rect id="Rectangle" fill="#FFFFFF" x="0" y="0" width="44" height="46"></rect>
                        <path d="M14.2608696,5 C12.3501791,5 10.7826087,6.6224354 10.7826087,8.6 C10.7826087,10.5775651 12.3501791,12.2 14.2608696,12.2 C14.6501365,12.2 15.0246357,12.1270235 15.375,12.003125 L18.6630435,17.9375 C18.0909261,18.4579394 17.605013,19.0835204 17.236413,19.7796875 L10.7690217,17.4171875 C10.7754483,17.328425 10.7826087,17.2403708 10.7826087,17.15 C10.7826087,15.1724354 9.21503826,13.55 7.30434783,13.55 C5.39365761,13.55 3.82608696,15.1724354 3.82608696,17.15 C3.82608696,19.1275651 5.39365761,20.75 7.30434783,20.75 C8.52006391,20.75 9.58975261,20.0915974 10.2119565,19.1046875 L16.625,21.453125 C16.5115135,21.9505046 16.4347826,22.4675393 16.4347826,23 C16.4347826,24.4230008 16.858603,25.7488777 17.5896739,26.8390625 L12.1277174,32.4921875 C11.6159509,32.1843218 11.0329139,32 10.4021739,32 C8.49148391,32 6.92391304,33.6224354 6.92391304,35.6 C6.92391304,37.577565 8.49148391,39.2 10.4021739,39.2 C12.3128643,39.2 13.8804348,37.577565 13.8804348,35.6 C13.8804348,34.9210225 13.6839974,34.2875493 13.3641304,33.74375 L18.7581522,28.1609375 C19.8931948,29.1516076 21.3609335,29.75 22.9565217,29.75 C23.9774352,29.75 24.9345557,29.4967998 25.7961957,29.0609375 L29.0706522,35.009375 C28.517703,35.6473333 28.173913,36.4819307 28.173913,37.4 C28.173913,39.3775646 29.7414835,41 31.6521739,41 C33.5628643,41 35.1304348,39.3775646 35.1304348,37.4 C35.1304348,35.4224349 33.5628643,33.8 31.6521739,33.8 C31.262907,33.8 30.8884078,33.8729765 30.5380435,33.996875 L27.25,28.0625 C27.8221174,27.5420606 28.30803,26.9164796 28.6766304,26.2203125 L35.1440217,28.5828125 C35.1375952,28.671575 35.1304348,28.7596292 35.1304348,28.85 C35.1304348,30.8275646 36.6980052,32.45 38.6086957,32.45 C40.5193861,32.45 42.0869565,30.8275646 42.0869565,28.85 C42.0869565,26.8724349 40.5193861,25.25 38.6086957,25.25 C37.3929796,25.25 36.3232909,25.9084026 35.701087,26.8953125 L29.2880435,24.546875 C29.40153,24.0494954 29.4782609,23.5324607 29.4782609,23 C29.4782609,21.5769992 29.0544409,20.2511223 28.3233696,19.1609375 L31.8288043,15.5328125 C32.086245,15.2751441 32.1647475,14.8804822 32.0265803,14.5385183 C31.8884131,14.1965544 31.5618313,13.9772203 31.2038043,13.9859375 C30.9766737,13.995221 30.7620824,14.0961765 30.6059783,14.2671875 L27.1548913,17.8390625 C26.0198487,16.8483924 24.55211,16.25 22.9565217,16.25 C21.9356083,16.25 20.9784878,16.5032001 20.1168478,16.9390625 L16.8423913,10.990625 C17.3953404,10.3526668 17.7391304,9.5180693 17.7391304,8.6 C17.7391304,6.6224354 16.17156,5 14.2608696,5 Z M14.2608696,6.8 C15.2316648,6.8 16,7.5952265 16,8.6 C16,9.6047726 15.2316648,10.4 14.2608696,10.4 C13.2900743,10.4 12.5217391,9.6047726 12.5217391,8.6 C12.5217391,7.5952265 13.2900743,6.8 14.2608696,6.8 Z M35.5108696,6.8 C33.6001791,6.8 32.0326087,8.42243495 32.0326087,10.4 C32.0326087,12.3775646 33.6001791,14 35.5108696,14 C37.42156,14 38.9891304,12.3775646 38.9891304,10.4 C38.9891304,8.42243495 37.42156,6.8 35.5108696,6.8 Z M35.5108696,8.6 C36.4816648,8.6 37.25,9.3952274 37.25,10.4 C37.25,11.4047735 36.4816648,12.2 35.5108696,12.2 C34.5400743,12.2 33.7717391,11.4047735 33.7717391,10.4 C33.7717391,9.3952274 34.5400743,8.6 35.5108696,8.6 Z M7.30434783,15.35 C8.27514304,15.35 9.04347826,16.1452265 9.04347826,17.15 C9.04347826,18.1547726 8.27514304,18.95 7.30434783,18.95 C6.33355261,18.95 5.56521739,18.1547726 5.56521739,17.15 C5.56521739,16.1452265 6.33355261,15.35 7.30434783,15.35 Z M22.9565217,18.05 C25.6081826,18.05 27.7391304,20.2555305 27.7391304,23 C27.7391304,25.744469 25.6081826,27.95 22.9565217,27.95 C20.3048609,27.95 18.173913,25.744469 18.173913,23 C18.173913,20.2555305 20.3048609,18.05 22.9565217,18.05 Z M38.6086957,27.05 C39.5794909,27.05 40.3478261,27.8452274 40.3478261,28.85 C40.3478261,29.8547735 39.5794909,30.65 38.6086957,30.65 C37.6379004,30.65 36.8695652,29.8547735 36.8695652,28.85 C36.8695652,27.8452274 37.6379004,27.05 38.6086957,27.05 Z M10.4021739,33.8 C11.3729691,33.8 12.1413043,34.5952265 12.1413043,35.6 C12.1413043,36.6047726 11.3729691,37.4 10.4021739,37.4 C9.4313787,37.4 8.66304348,36.6047726 8.66304348,35.6 C8.66304348,34.5952265 9.4313787,33.8 10.4021739,33.8 Z M31.6521739,35.6 C32.6229691,35.6 33.3913043,36.3952274 33.3913043,37.4 C33.3913043,38.4047735 32.6229691,39.2 31.6521739,39.2 C30.6813787,39.2 29.9130435,38.4047735 29.9130435,37.4 C29.9130435,36.3952274 30.6813787,35.6 31.6521739,35.6 Z" id="Shape" stroke="#A13604" stroke-width="0.75" fill="#A13604" fill-rule="nonzero"></path>
                    </g>
                </g>
            </g>
        </g>
    </g>
</svg>