<?xml version="1.0" encoding="UTF-8" standalone="no"?>
<svg width="105px" height="30px" viewBox="0 0 105 30" version="1.1" xmlns="http://www.w3.org/2000/svg" xmlns:xlink="http://www.w3.org/1999/xlink">
    <!-- Generator: Sketch 50.2 (55047) - http://www.bohemiancoding.com/sketch -->
    <title>logo / primary</title>
    <desc>Created with Sketch.</desc>
    <defs></defs>
    <g id="logo-/-primary" stroke="none" stroke-width="1" fill="none" fill-rule="evenodd">
        <g id="Spare-Logo-002" fill="#253673" fill-rule="nonzero">
            <g id="Group" transform="translate(31.637540, 1.011628)">
                <path d="M13.0588997,2.15813953 C13.0588997,2.96744186 12.1165049,4.78837209 11.3760518,4.78837209 C10.9721683,4.78837209 10.0297735,4.04651163 8.01035599,4.04651163 C5.65436893,4.04651163 5.18317152,5.05813953 5.18317152,5.73255814 C5.18317152,7.41860465 6.66407767,8.0255814 8.41423948,8.7 C10.9048544,9.74534884 13.9339806,10.9930233 13.9339806,15.1069767 C13.9339806,20.0639535 10.4,21.75 7.10161812,21.75 C2.49061489,21.75 0,20.0976744 0,19.0860465 C0,18.1418605 1.24530744,16.3883721 1.88478964,16.3883721 C2.42330097,16.3883721 3.90420712,17.7709302 6.32750809,17.7709302 C7.64012945,17.7709302 9.18834951,17.3662791 9.18834951,15.6465116 C9.18834951,13.8255814 6.7987055,13.3197674 4.51003236,12.2406977 C2.42330097,11.2290698 0.437540453,9.77906977 0.437540453,6.1372093 C0.437540453,1.75348837 4.07249191,0 7.60647249,0 C10.8038835,0.0337209302 13.0588997,1.14651163 13.0588997,2.15813953 Z" id="Shape"></path>
                <path d="M30.1229773,13.5895349 C30.1229773,18.5465116 27.8343042,21.75 23.7281553,21.75 C22.3145631,21.75 21.2711974,21.277907 20.6317152,20.805814 L20.6317152,26.7744186 C20.6317152,27.4151163 20.0932039,27.7523256 18.8142395,27.7523256 L17.9728155,27.7523256 C16.6938511,27.7523256 16.1553398,27.4151163 16.1553398,26.7744186 L16.1553398,10.9593023 C16.1553398,7.9244186 15.7851133,7.28372093 15.7851133,6.67674419 C15.7851133,5.93488372 18.410356,5.69883721 19.184466,5.69883721 C20.1605178,5.69883721 20.2278317,6.9127907 20.3961165,7.65465116 C21.1029126,6.33953488 22.5838188,5.36162791 24.4686084,5.36162791 C27.7333333,5.39534884 30.1229773,8.29534884 30.1229773,13.5895349 Z M20.6653722,10.8581395 L20.6653722,17.6360465 C21.1365696,17.905814 21.8433657,18.2093023 22.7857605,18.2093023 C24.7042071,18.2093023 25.612945,16.6244186 25.612945,13.5895349 C25.612945,10.655814 24.838835,9.07093023 23.1559871,9.07093023 C21.9779935,9.07093023 21.2038835,9.91395349 20.6653722,10.8581395 Z" id="Shape"></path>
                <path d="M45.1339806,10.4534884 L45.1339806,16.1523256 C45.1339806,19.2883721 45.5042071,19.9290698 45.5042071,20.5360465 C45.5042071,21.277907 42.8789644,21.5139535 42.1048544,21.5139535 C41.1288026,21.5139535 41.0614887,20.2325581 40.8932039,19.4232558 C40.6912621,19.827907 39.2440129,21.7162791 36.4504854,21.7162791 C33.1857605,21.7162791 31.97411,19.7604651 31.97411,17.2988372 C31.97411,14.8372093 32.9838188,11.6674419 40.6576052,11.6674419 L40.6576052,10.655814 C40.6576052,9.50930233 39.9508091,8.93604651 38.3016181,8.93604651 C36.0802589,8.93604651 34.8012945,9.91395349 34.431068,9.91395349 C33.7915858,9.91395349 32.8491909,8.12674419 32.8491909,7.48604651 C32.8491909,6.44069767 35.2724919,5.39534884 38.6381877,5.39534884 C43.4174757,5.39534884 45.1339806,7.51976744 45.1339806,10.4534884 Z M36.4168285,16.8604651 C36.4168285,17.6023256 36.9216828,18.2093023 37.9313916,18.2093023 C39.0757282,18.2093023 40.1864078,17.4 40.6576052,16.2872093 L40.6576052,14.6348837 C37.7631068,14.6011628 36.4168285,15.4104651 36.4168285,16.8604651 Z" id="Shape"></path>
                <path d="M57.6880259,7.01395349 C57.6880259,7.5872093 57.3514563,9.57674419 56.7456311,9.57674419 C56.3080906,9.57674419 55.9378641,9.34069767 55.3320388,9.34069767 C54.0867314,9.34069767 53.2789644,10.2511628 52.9087379,10.8581395 L52.9087379,20.6034884 C52.9087379,21.244186 52.3702265,21.5813953 51.0912621,21.5813953 L50.2498382,21.5813953 C48.9708738,21.5813953 48.4323625,21.244186 48.4323625,20.6034884 L48.4323625,10.9930233 C48.4323625,7.95813953 48.0621359,7.31744186 48.0621359,6.71046512 C48.0621359,5.96860465 50.6873786,5.73255814 51.4614887,5.73255814 C52.4375405,5.73255814 52.5048544,6.94651163 52.6731392,7.68837209 C53.3126214,6.54186047 54.2213592,5.39534884 55.971521,5.39534884 C57.4187702,5.39534884 57.6880259,6.40697674 57.6880259,7.01395349 Z" id="Shape"></path>
                <path d="M72.3288026,13.2186047 C72.3288026,13.7244186 71.184466,15.005814 70.7805825,15.005814 L63.0731392,15.005814 C63.2750809,17.4337209 64.5877023,18.1755814 66.5398058,18.1755814 C68.4582524,18.1755814 69.7708738,17.2313953 70.2084142,17.2313953 C70.8815534,17.2313953 71.7902913,18.9174419 71.7902913,19.5244186 C71.7902913,21.0418605 68.020712,21.7162791 66.3378641,21.7162791 C60.8517799,21.7162791 58.428479,18.5127907 58.428479,13.6569767 C58.428479,7.68837209 61.4576052,5.36162791 65.7993528,5.36162791 C70.5449838,5.39534884 72.3288026,9.00348837 72.3288026,13.2186047 Z M63.0731392,12.0046512 L67.987055,12.0046512 C67.987055,10.2511628 67.3139159,8.93604651 65.7993528,8.93604651 C64.5203883,8.93604651 63.4097087,9.67790698 63.0731392,12.0046512 Z" id="Shape"></path>
            </g>
            <g id="Group">
                <path d="M10.3326861,5.22674419 C10.4,5.39534884 10.5009709,5.56395349 10.5682848,5.69883721 C11.0731392,6.33953488 11.5779935,6.94651163 12.4194175,7.08139535 C13.2608414,7.21627907 13.9003236,6.87906977 14.2705502,6.20465116 C14.405178,6.00232558 14.438835,5.90116279 14.5061489,5.73255814 C14.5398058,5.63139535 14.5734628,5.56395349 14.6071197,5.4627907 C14.2032362,5.56395349 13.3281553,5.69883721 12.3521036,5.69883721 C11.5443366,5.63139535 10.7702265,5.4627907 10.3326861,5.22674419 Z" id="Shape"></path>
                <path d="M12.0828479,0.236046512 C5.5197411,0.236046512 0.235598706,5.56395349 0.235598706,12.105814 C0.235598706,18.6476744 5.55339806,23.9755814 12.0828479,23.9755814 C18.6122977,23.9755814 23.9300971,18.6476744 23.9300971,12.105814 C23.9300971,5.56395349 18.6459547,0.236046512 12.0828479,0.236046512 Z M18.376699,13.4209302 C18.376699,13.4209302 18.1074434,13.1174419 17.5016181,10.5883721 C17.5352751,11.127907 17.568932,11.8697674 17.7035599,12.8813953 C17.9391586,14.7697674 18.0737864,16.5569767 17.4343042,18.85 C15.8187702,20.4011628 14.0686084,21.1093023 11.8809061,21.1430233 C9.69320388,21.1767442 7.64012945,20.5697674 6.09190939,18.8162791 C6.49579288,16.3546512 7.06796117,14.7697674 6.96699029,12.7802326 C6.86601942,10.7906977 6.83236246,10.8581395 6.86601942,10.3186047 C6.46213592,11.7348837 6.7987055,12.9825581 6.5631068,13.522093 C6.5631068,13.522093 5.08220065,12.8139535 4.67831715,12.7127907 C3.53398058,12.3755814 3.39935275,11.8697674 3.39935275,11.8697674 C3.39935275,11.8697674 5.21682848,6.5755814 5.68802589,6.00232558 C6.66407767,4.82209302 7.33721683,4.38372093 9.92880259,3.74302326 C9.96245955,3.77674419 9.96245955,3.77674419 9.9961165,3.81046512 C10.0297735,3.84418605 10.9721683,4.65348837 11.9482201,4.6872093 C13.2608414,4.75465116 14.405178,4.45116279 14.9436893,4.31627907 C14.9773463,4.31627907 15.0446602,4.31627907 15.0783172,4.31627907 C15.179288,4.31627907 15.2466019,4.31627907 15.3139159,4.31627907 C16.2899676,4.31627907 16.7275081,4.51860465 17.8718447,5.63139535 C18.376699,6.1372093 19.1171521,7.62093023 19.9249191,9.10465116 C20.7326861,10.5883721 20.7326861,10.622093 20.9009709,10.8918605 C20.1941748,12.1395349 18.7469256,13.1174419 18.376699,13.4209302 Z" id="Shape"></path>
            </g>
        </g>
    </g>
</svg>