<?xml version="1.0" encoding="UTF-8"?>
<svg width="114px" height="31px" viewBox="0 0 114 31" version="1.1" xmlns="http://www.w3.org/2000/svg" xmlns:xlink="http://www.w3.org/1999/xlink">
    <!-- Generator: Sketch 51.1 (57501) - http://www.bohemiancoding.com/sketch -->
    <title>logo_spare_alt</title>
    <desc>Created with Sketch.</desc>
    <defs></defs>
    <g id="logo_spare_alt" stroke="none" stroke-width="1" fill="none" fill-rule="evenodd">
        <g id="option-2" transform="translate(5.000000, 1.000000)" fill="#A13604">
            <path d="M46.4281898,2.12646265 C46.4281898,2.94666967 45.4587715,4.76935194 44.7082541,4.76935194 C44.3017238,4.76935194 43.3323054,4.00990099 41.2374584,4.00990099 C38.7982767,4.00990099 38.3292033,5.0120387 38.3292033,5.71073357 C38.3292033,7.38152565 39.8615098,7.98908641 41.6749128,8.68778128 C44.2391807,9.72063456 47.3663366,10.9661341 47.3663366,15.0972097 C47.3663366,20.0488299 43.7075641,21.75 40.2989641,21.75 C35.5460345,21.75 32.950495,20.1092484 32.950495,19.0767327 C32.950495,18.1350135 34.232629,16.3730873 34.8893318,16.3730873 C35.4522198,16.3730873 36.9845263,17.770477 39.486251,17.770477 C40.8309281,17.770477 42.4254302,17.3755626 42.4254302,15.6443519 C42.4254302,13.8213321 39.9553244,13.305243 37.6099575,12.2420117 C35.4522198,11.2391989 33.3882969,9.78139064 33.3882969,6.1360261 C33.3882969,1.76192619 37.1408841,0 40.7993091,0 C44.1140944,0 46.4281898,1.12364986 46.4281898,2.12646265" id="Fill-1"></path>
            <path d="M53.5445545,12.1840575 L53.5445545,19.0904763 C54.0499646,19.3692107 54.7764917,19.6785714 55.7557238,19.6785714 C57.7457763,19.6785714 58.6930693,18.0684502 58.6930693,14.9714014 C58.6930693,11.9676082 57.8721288,10.3571429 56.1347814,10.3571429 C54.9344323,10.3571429 54.1131409,11.2243165 53.5445545,12.1840575 M63.8415842,14.5617419 C63.8415842,19.6013394 61.3600356,22.8786238 56.9517399,22.8786238 C55.4168736,22.8786238 54.3065448,22.3835958 53.6207535,21.9201727 L53.6207535,28.0102876 C53.6207535,28.6599045 53.0329324,29 51.6613497,29 L50.7473241,29 C49.3753786,29 48.7879204,28.6599045 48.7879204,28.0102876 L48.7879204,11.9031566 C48.7879204,8.81137895 48.3960396,8.16210564 48.3960396,7.54375011 C48.3960396,6.802067 51.2368122,6.55438126 52.0532305,6.55438126 C53.0982458,6.55438126 53.1635593,7.79109232 53.3594997,8.53311896 C54.1106044,7.2039981 55.7107842,6.21428571 57.7351386,6.21428571 C61.2620654,6.21428571 63.8415842,9.18239227 63.8415842,14.5617419" id="Fill-3"></path>
            <path d="M67.960396,17.484445 C67.960396,18.1428 68.4605375,18.6428571 69.4314003,18.6428571 C70.5493635,18.6428571 71.6084866,17.9318338 72.0792079,16.9838026 L72.0792079,15.5357143 C69.2842999,15.5357143 67.960396,16.2204035 67.960396,17.484445 M77.870404,11.3487674 L77.870404,17.1289024 C77.870404,20.2953369 78.2574257,20.9413319 78.2574257,21.5866437 C78.2574257,22.3245333 75.4518768,22.5704965 74.6455816,22.5704965 C73.6135237,22.5704965 73.5486617,21.2791897 73.3551509,20.4490639 C73.1293882,20.8487541 71.5816598,22.7857143 68.6144934,22.7857143 C65.1316565,22.7857143 63.8415842,20.8180087 63.8415842,18.2972276 C63.8415842,15.7761049 64.9055355,12.5785834 73.0974948,12.5785834 L73.0974948,11.5643268 C73.0974948,10.3960016 72.3557032,9.81183904 70.5818537,9.81183904 C68.2278301,9.81183904 66.8410023,10.7956918 66.4539806,10.7956918 C65.7766927,10.7956918 64.7768866,8.98137165 64.7768866,8.33605988 C64.7768866,7.2907163 67.3566729,6.21428571 70.9366236,6.21428571 C76.032051,6.21428571 77.870404,8.36680528 77.870404,11.3487674" id="Fill-6"></path>
            <path d="M88.5544554,7.89326217 C88.5544554,8.48401315 88.234189,10.5050033 87.6509737,10.5050033 C87.2429496,10.5050033 86.8640702,10.2562661 86.2811787,10.2562661 C85.086575,10.2562661 84.2993477,11.1890308 83.9499367,11.8105284 L83.9499367,21.7911107 C83.9499367,22.4437006 83.4253343,22.7857143 82.2012622,22.7857143 L81.3852142,22.7857143 C80.1611421,22.7857143 79.6365398,22.4437006 79.6365398,21.7911107 L79.6365398,11.9352425 C79.6365398,8.82602688 79.2871287,8.17309158 79.2871287,7.55124845 C79.2871287,6.80538216 81.8223828,6.55629944 82.5509971,6.55629944 C83.4836235,6.55629944 83.5419126,7.79964024 83.7167801,8.57694415 C84.3288161,7.39578767 85.2028295,6.21428571 86.8932148,6.21428571 C88.3212989,6.21428571 88.5544554,7.27141904 88.5544554,7.89326217" id="Fill-8"></path>
            <path d="M93.7029703,13.4642857 L98.8514851,13.4642857 C98.8514851,11.6801314 98.1523041,10.3571429 96.5632563,10.3571429 C95.2284562,10.3571429 94.0843418,11.0952132 93.7029703,13.4642857 M104,14.1465987 C104,14.6692705 102.806503,15.9602357 102.398201,15.9602357 L94.3895553,15.9602357 C94.60941,18.419526 95.9599464,19.188161 98.0014549,19.188161 C99.9801477,19.188161 101.361743,18.2353952 101.801452,18.2353952 C102.492773,18.2353952 103.434659,19.9567959 103.434659,20.5720455 C103.434659,22.1093155 99.5404382,22.7857143 97.7816001,22.7857143 C92.0971332,22.7857143 89.5841584,19.5571058 89.5841584,14.6074381 C89.5841584,8.55093606 92.7249407,6.21428571 97.2162593,6.21428571 C102.146938,6.21428571 104,9.87298822 104,14.1465987" id="Fill-10"></path>
            <g id="shirt-icon">
                <path d="M19.0551021,14.4926635 C19.0418598,14.5031375 18.7648439,14.1762749 18.1173998,11.4584395 C18.1632112,12.0290946 18.1896959,12.8431811 18.3221195,13.9194801 C18.5833877,15.9489176 18.7329906,17.8472489 18.0526196,20.3198471 C16.3386285,21.9743859 14.4818347,22.7292399 12.1433052,22.7826936 C9.80441783,22.8365086 7.63410214,22.177727 5.97451212,20.2866191 C6.41866809,17.6590772 7.01815338,15.9438612 6.91006707,13.8183513 C6.80198077,11.6935638 6.76762221,11.7535187 6.79804385,11.1944212 C6.36068802,12.724716 6.71751598,14.0491416 6.46591111,14.624492 C6.46591111,14.624492 4.89758602,13.8837239 4.44698782,13.7511729 C3.23262748,13.3939717 3.08910891,12.8540164 3.08910891,12.8540164 C3.08910891,12.8540164 5.0221358,7.1749141 5.51246108,6.57825441 C6.56003925,5.3029485 7.26474762,4.84209029 10.0109271,4.14285714 C10.0309696,4.16561111 10.0467173,4.184031 10.0674756,4.20136735 C10.1004025,4.22953894 11.092148,5.08985575 12.1433052,5.15775649 C13.5273109,5.24732768 14.7595664,4.91974273 15.3107349,4.77021663 C15.3329248,4.76407667 15.4062947,4.7651602 15.4431585,4.76841076 C15.5333498,4.76768842 15.6188883,4.76732724 15.7012056,4.76841076 C16.7387626,4.78069068 17.2147718,4.97391885 18.4162477,6.1719335 C18.968132,6.72200172 19.7583789,8.30286096 20.6019531,9.88408137 C21.4455273,11.465663 21.4544749,11.5039474 21.6237624,11.8029996 C20.980971,13.1306758 19.4473624,14.1798867 19.0551021,14.4926635 M12.8712871,0 C5.76266852,0 0,5.56445805 0,12.4285714 C0,19.292332 5.76266852,24.8571429 12.8712871,24.8571429 C19.9799057,24.8571429 25.7425743,19.292332 25.7425743,12.4285714 C25.7425743,5.56445805 19.9799057,0 12.8712871,0" id="Fill-14"></path>
                <path d="M10.2970297,4.14285714 C10.365789,4.322566 10.4419384,4.52039676 10.5347956,4.65404578 C11.0321761,5.37099352 11.5105996,6.05283006 12.3132201,6.18610155 C13.1161619,6.32012811 13.7179666,5.97354674 14.0813628,5.20185577 C14.1957475,4.95872025 14.2513333,4.8496113 14.31945,4.66763721 C14.3560788,4.56947691 14.3869241,4.46867383 14.4158416,4.36711568 C14.034131,4.46187812 13.2041995,4.6351688 12.2781978,4.61742444 C11.4685086,4.60194532 10.7349687,4.40864503 10.2970297,4.14285714" id="Fill-12"></path>
            </g>
        </g>
    </g>
</svg>