<svg id="Layer_1" data-name="Layer 1" xmlns="http://www.w3.org/2000/svg" viewBox="0 0 385.1476 366.09134"><defs><style>.cls-1{opacity:0.31;}.cls-2{fill:#243673;}.cls-3,.cls-7{fill:#fff;}.cls-4{fill:#333;}.cls-5{fill:none;}.cls-5,.cls-7{stroke:#243673;stroke-linecap:round;stroke-linejoin:round;stroke-width:4.30167px;}.cls-6{fill:#a13603;}.cls-8{fill:#9a9a9a;}.cls-9{fill:#495366;}</style></defs><title>Blanket_patrice</title><g class="cls-1"><ellipse class="cls-2" cx="212.16746" cy="172.74977" rx="172.98014" ry="172.74977"/></g><path class="cls-3" d="M714.87476,665.73932a9.86061,9.86061,0,0,0-3.11152-6.55847,7.36074,7.36074,0,0,0-1.09973-2.096l-1.23559-1.63757a13.56411,13.56411,0,0,0-5.63959-4.49536,10.007,10.007,0,0,0-3.80212-.72919c-1.2425.01141-2.94611.10528-3.91669.87353a1.55273,1.55273,0,0,0-.50287,2.00067,3.58817,3.58817,0,0,0,1.30408.9513,14.93981,14.93981,0,0,1,2.50915,2.32013l-8.54028.60193c-10.09821-.09381-10.699,5.861-6.42511,5.861h.14453a2.8667,2.8667,0,0,0,0,5.7334h7.24689c-1.58112,0-7.27173.68915-7.87451,2.06677a2.40757,2.40757,0,0,0,2.00244,3.22669l7.15478-.43122c-2.15173.21045-5.4151.8327-5.4151,2.00159,0,1.47937,1.28174,2.39111,2.86286,2.39111l13.93646-1.54584s10.43072-2.12109,10.43072-9.7948Q714.90356,666.10252,714.87476,665.73932Z" transform="translate(-441.15792 -333.50046)"/><path class="cls-4" d="M690.53613,679.96973a4.74339,4.74339,0,0,1-4.97851-3.97754,4.20749,4.20749,0,0,1-3.14063-1.96289,4.5839,4.5839,0,0,1-.51953-4.10547,5.06659,5.06659,0,0,1-2.35156-4.22559,4.92538,4.92538,0,0,1,.80469-2.68554c-.03418-.05274-.06641-.10645-.09766-.16114a4.01038,4.01038,0,0,1,.11914-4.05664c1.4834-2.53222,5.208-3.97656,10.24121-3.97656.05274,0,.10547.001.15918.001l3.22852-.22754a3.42009,3.42009,0,0,1-.23243-.31543,3.66056,3.66056,0,0,1,.9668-4.86719c1.459-1.15527,3.5625-1.32129,5.23047-1.33691a11.51514,11.51514,0,0,1,4.62207.88378,15.76913,15.76913,0,0,1,6.55664,5.19629l-.00293.002c.16016.20508.48535.63574,1.23828,1.63574a9.38832,9.38832,0,0,1,1.23047,2.18555,12.08877,12.08877,0,0,1,3.40918,7.5957v.00391q.03369.44384.03418.90429c0,9.32324-11.65625,11.80078-12.15234,11.90137-.06348.01269-.127.02344-.19141.03027l-13.93652,1.5459A2.14643,2.14643,0,0,1,690.53613,679.96973Zm2.55469-8.69434a2.15105,2.15105,0,0,1,1.14844,3.96875l9.88183-1.0957c.86426-.2002,8.63184-2.15723,8.63184-7.66895q0-.293-.02246-.57519a7.69968,7.69968,0,0,0-2.42481-5.14258,2.14964,2.14964,0,0,1-.58007-.89258,5.21208,5.21208,0,0,0-.77832-1.4873l-1.23243-1.63379-.0039-.00586a11.49655,11.49655,0,0,0-4.72266-3.793,8.40592,8.40592,0,0,0-2.98242-.57617,12.06052,12.06052,0,0,0-1.59766.10351,9.87022,9.87022,0,0,1,1.70508,1.56836,9.462,9.462,0,0,0,.6992.71875,2.15107,2.15107,0,0,1-1.28123,3.75l-8.54.60254c-.05762.00391-.12305.00488-.1709.00488-4.03418,0-5.84765.96875-6.48828,1.55762.02637.001.05371.00195.082.00195h.14453a2.1504,2.1504,0,0,1,0,4.30079.71632.71632,0,0,0,0,1.43261h7.24707a2.15039,2.15039,0,0,1,0,4.30078,22.01722,22.01722,0,0,0-5.77636.98145l.001.002,6.92871-.418C693.00293,671.27734,693.04688,671.27539,693.09082,671.27539Z" transform="translate(-441.15792 -333.50046)"/><path class="cls-2" d="M692.667,664.98145h-9.28515a2.1504,2.1504,0,0,1,0-4.30079H692.667a2.15039,2.15039,0,0,1,0,4.30079Z" transform="translate(-441.15792 -333.50046)"/><path class="cls-5" d="M691.80588,668.56478" transform="translate(-441.15792 -333.50046)"/><path class="cls-6" d="M773.752,618.59662a10.7027,10.7027,0,0,0-14.2774,4.88971l-15.63184,31.916h-21.5935A10.70264,10.70264,0,0,0,711.578,666.07361v.00006a10.70263,10.70263,0,0,0,10.67127,10.67126h27.35742a10.669,10.669,0,0,0,8.677-4.49481,10.55675,10.55675,0,0,0,2.79755-3.52228L778.64172,632.874A10.70264,10.70264,0,0,0,773.752,618.59662Z" transform="translate(-441.15792 -333.50046)"/><path class="cls-2" d="M749.60645,678.89551H722.249a12.82178,12.82178,0,0,1,0-25.64356h20.252L757.543,622.54a12.82224,12.82224,0,0,1,23.03027,11.28027L763.0127,669.67383a12.63288,12.63288,0,0,1-3.14747,4.05664A12.858,12.858,0,0,1,749.60645,678.89551ZM722.249,657.55273a8.521,8.521,0,0,0,0,17.042h27.35743a8.54886,8.54886,0,0,0,6.92675-3.59571,2.20548,2.20548,0,0,1,.38575-.41211,8.37451,8.37451,0,0,0,2.23046-2.80468L776.71,631.92773a8.54967,8.54967,0,0,0-3.9043-11.39941h0a8.55194,8.55194,0,0,0-11.39941,3.9043l-15.63184,31.916a2.15027,2.15027,0,0,1-1.93164,1.2041Z" transform="translate(-441.15792 -333.50046)"/><path class="cls-3" d="M636.88068,654.09064a4.20367,4.20367,0,0,0-4.1023-4.10791h.207c6.12445,0,5.26355-8.53321-9.207-8.39875l-12.23559-.86236c1.25525-1.12189,2.035-2.43317,3.59308-3.325a5.14132,5.14132,0,0,0,1.86871-1.36316,2.22507,2.22507,0,0,0-.72058-2.86695c-1.39087-1.10083-3.83209-1.23535-5.61255-1.2517a14.34157,14.34157,0,0,0-5.44837,1.04486,19.43816,19.43816,0,0,0-8.08142,6.44177l-1.77063,2.34662a10.55283,10.55283,0,0,0-1.57629,3.0039,14.1301,14.1301,0,0,0-4.45825,9.39777q-.04074.52038-.04132,1.06c0,10.99627,14.947,14.03576,14.947,14.03576l19.97064,2.21515c2.26575,0,4.10242-1.30645,4.10242-3.42645,0-1.67493-4.676-2.56653-7.7594-2.8681l10.25232.6178c2.26568,0,3.657-2.82392,2.8695-4.62372-.86377-1.97418-9.01831-2.96167-11.284-2.96167h10.38464A4.20368,4.20368,0,0,0,636.88068,654.09064Z" transform="translate(-441.15792 -333.50046)"/><path class="cls-2" d="M624.21289,673.61133a2.14625,2.14625,0,0,1-.2373-.0127l-19.97071-2.21582c-.064-.00683-.12793-.01758-.1914-.03027a30.33,30.33,0,0,1-8.11133-3.13379c-5.59863-3.19727-8.55762-7.69629-8.55762-13.00879,0-.417.0166-.82422.04736-1.22656a16.3842,16.3842,0,0,1,4.75147-10.4375,12.66833,12.66833,0,0,1,1.71094-3.09375l1.7666-2.34082.0039-.00586a21.69536,21.69536,0,0,1,8.99805-7.1416,16.037,16.037,0,0,1,6.26856-1.19922c2.24267.02051,5.05713.23437,6.92822,1.71582a4.32447,4.32447,0,0,1,1.18457,5.73144,5.4237,5.4237,0,0,1-2.00928,1.72364l7.05029.49707c9.91944-.11328,13.19239,3.63476,14.1294,5.23633a4.76724,4.76724,0,0,1,.166,4.87988,4.62676,4.62676,0,0,1-.47949.68359,6.19353,6.19353,0,0,1,1.37061,3.8584,6.34915,6.34915,0,0,1-3.68262,5.68359,2.92087,2.92087,0,0,1,.29932.52344,5.59089,5.59089,0,0,1-.58008,5.22168,5.06973,5.06973,0,0,1-4.26025,2.415c-.043,0-.08643-.001-.1294-.00391l-.21289-.01269c.00049.041.00049.08008.00049.11621C630.46631,671.26562,627.83643,673.61133,624.21289,673.61133Zm-19.62158-6.49121,19.72168,2.1875c.3501-.0127,1.37988-.10938,1.73193-.76856a19.7,19.7,0,0,0-5.69873-1.23242,2.15061,2.15061,0,0,1,.33887-4.28711l10.16162.61231a.96229.96229,0,0,0,.62158-.4668,1.60639,1.60639,0,0,0,.27588-.98731c-1.29687-.90625-6.85449-1.8291-9.35059-1.8291a2.15039,2.15039,0,1,1,0-4.30078h10.38477a1.95753,1.95753,0,0,0,0-3.915,2.15039,2.15039,0,1,1,0-4.30078h.207c.96875,0,1.356-.30566,1.42285-.42285.04444-.07715.01807-.28711-.1455-.56641-.69336-1.18359-3.64942-3.13769-10.46436-3.10839-.06055-.002-.11475,0-.17139-.00489l-12.23535-.8623a2.15082,2.15082,0,0,1-1.28222-3.749,15.02342,15.02342,0,0,0,1.06738-1.0957,11.64759,11.64759,0,0,1,2.89062-2.49219l.3794-.21191c.18652-.10254.43945-.24121.60986-.35449a.611.611,0,0,0-.10693-.11035c-.63428-.502-2.08057-.76661-4.29834-.78809a12.3713,12.3713,0,0,0-4.62744.89062,17.41269,17.41269,0,0,0-7.16553,5.74122l-.00537-.00391c-.21143.291-.67139.90137-1.76514,2.35059a8.41567,8.41567,0,0,0-1.25439,2.39355,2.14532,2.14532,0,0,1-.58155.89648,12.05142,12.05142,0,0,0-3.77148,7.9834q-.03369.43653-.03418.89258C591.44629,663.92188,603.47119,666.86523,604.59131,667.12012Zm27.27832-4.84278Z" transform="translate(-441.15792 -333.50046)"/><line class="cls-3" x1="193.30732" y1="316.48228" x2="180.00128" y2="316.48228"/><path class="cls-2" d="M634.46533,652.13281H621.15918a2.15039,2.15039,0,1,1,0-4.30078h13.30615a2.15039,2.15039,0,1,1,0,4.30078Z" transform="translate(-441.15792 -333.50046)"/><path class="cls-7" d="M622.39374,658.19857" transform="translate(-441.15792 -333.50046)"/><path class="cls-8" d="M594.06073,654.62878c0-8.41046,3.82208-15.29174-4.58838-15.29174H547.82587l-22.4-45.73493a15.3368,15.3368,0,0,0-20.45923-7.0069v.00007a15.33664,15.33664,0,0,0-7.00689,20.45916l25.16382,51.37775a15.12832,15.12832,0,0,0,4.00885,5.04736,15.28848,15.28848,0,0,0,12.434,6.441h49.90594c8.41046,0,4.58838-6.88128,4.58838-15.29174Z" transform="translate(-441.15792 -333.50046)"/><path class="cls-2" d="M589.47217,672.07129H539.56641A17.49273,17.49273,0,0,1,525.5498,664.96a17.18591,17.18591,0,0,1-4.35791-5.58105L496.02832,608.001a17.44259,17.44259,0,0,1,31.3291-15.34473L549.167,637.18652h40.30518c2.81738,0,4.80566.7002,6.07861,2.14063,2.02295,2.291,1.61328,5.583,1.13916,9.39551a36.68968,36.68968,0,0,0,0,11.8125c.47412,3.8125.88379,7.10449-1.13916,9.3955C594.27783,671.37109,592.28955,672.07129,589.47217,672.07129Zm-77.82471-84.87891a13.1585,13.1585,0,0,0-11.75586,18.916l25.16358,51.37793a12.9344,12.9344,0,0,0,3.44189,4.33105,2.14981,2.14981,0,0,1,.38477.41114,13.18857,13.18857,0,0,0,10.68457,5.542h49.90576c1.44922,0,2.46289-.24414,2.85449-.6875.73877-.83692.41113-3.47071.09424-6.0166a40.78669,40.78669,0,0,1,0-12.875c.31689-2.5459.64453-5.17969-.09424-6.01661-.3916-.44335-1.40527-.6875-2.85449-.6875H547.82568a2.15082,2.15082,0,0,1-1.93164-1.2041l-22.3999-45.73437a13.04324,13.04324,0,0,0-7.5498-6.63477A13.23832,13.23832,0,0,0,511.64746,587.19238Z" transform="translate(-441.15792 -333.50046)"/><path class="cls-3" d="M624.79686,678.99891H606.8477c-9.081,0-14.61619-15.70756-12.36325-19.51527l15.12727-25.56641c2.253-3.80787,8.65743-5.62189,14.30471-5.584l4.09918.02751,2.26316-.02936,6.78181-.038,1.9235-8.23639,45.17194-.34535c5.64725-.04317,12.05167,3.44748,14.30466,7.79659l15.12716,29.201c2.253,4.34911-3.28222,22.28966-12.36324,22.28966H619.23845" transform="translate(-441.15792 -333.50046)"/><path class="cls-2" d="M701.22461,681.01172H606.84766c-4.439,0-8.56836-2.95508-11.62842-8.32129-2.59033-4.542-4.33545-11.07422-2.4668-14.23145l15.12744-25.5664c2.874-4.8584,10.29932-6.57227,15.86866-6.57227h.18164l4.09912.02735,7.43261-.0586,1.562-6.69043a2.01323,2.01323,0,0,1,1.94482-1.55468l45.17187-.34473h.12305c6.39258,0,13.39453,3.88379,15.98438,8.88281L715.375,655.7832c1.96191,3.78907-.32324,12.43457-3.60059,17.82422C708.82812,678.45117,705.17969,681.01172,701.22461,681.01172Zm-81.98633-4.02539h81.98633c3.291,0,5.86719-3.42774,7.11035-5.47071,3.38184-5.56054,4.26953-12.3291,3.46582-13.88085l-15.127-29.20118c-1.8916-3.65234-7.55957-6.71-12.41211-6.71-.03027,0-.05957.001-.08984.001l-43.58838.332-1.563,6.69434a2.01367,2.01367,0,0,1-1.94873,1.55468l-9.03028.06739-4.13867-.02735c-5.66455-.06836-10.96045,1.89551-12.55908,4.59571l-15.12744,25.5664c-.59424,1.00489-.09668,5.63574,2.49951,10.18946,1.07861,1.89062,4.02979,6.28906,8.13184,6.28906Z" transform="translate(-441.15792 -333.50046)"/><path class="cls-2" d="M700.36523,660.53027a2.15059,2.15059,0,0,1-2.00195-1.36328c-.42871-1.08887-3.61035-2.73144-7.43164-2.73144H690.916l-59.93946.07226h-.00244a2.15061,2.15061,0,0,1-2.09473-2.63965l8.00977-34.30078a2.15087,2.15087,0,1,1,4.189.97852L633.686,652.20312l57.22509-.06835h.01856c4.50683,0,10.04,1.91015,11.43554,5.45605a2.15239,2.15239,0,0,1-2,2.93945Z" transform="translate(-441.15792 -333.50046)"/><path class="cls-2" d="M640.00146,622.207H626.81982a2.15039,2.15039,0,1,1,0-4.30078h13.18164a2.15039,2.15039,0,1,1,0,4.30078Z" transform="translate(-441.15792 -333.50046)"/><path class="cls-2" d="M637.10254,630.40332H623.92139a2.15039,2.15039,0,1,1,0-4.30078h13.18115a2.15039,2.15039,0,1,1,0,4.30078Z" transform="translate(-441.15792 -333.50046)"/><path class="cls-2" d="M634.8042,638.59961H621.02246a2.15039,2.15039,0,1,1,0-4.30078H634.8042a2.15039,2.15039,0,1,1,0,4.30078Z" transform="translate(-441.15792 -333.50046)"/><path class="cls-2" d="M632.96582,646.7959H618.124a2.15039,2.15039,0,1,1,0-4.30078h14.8418a2.15039,2.15039,0,1,1,0,4.30078Z" transform="translate(-441.15792 -333.50046)"/><path class="cls-2" d="M631.61719,654.99121H615.2251a2.15039,2.15039,0,1,1,0-4.30078h16.39209a2.15039,2.15039,0,1,1,0,4.30078Z" transform="translate(-441.15792 -333.50046)"/><path class="cls-3" d="M621.1839,668.7926a4.20368,4.20368,0,0,0-4.1023-4.10791h.2071c6.12439,0,5.26349-8.53326-9.207-8.39874l-12.23566-.86237c1.25519-1.12188,2.035-2.43322,3.59314-3.325a5.14079,5.14079,0,0,0,1.86871-1.36316,2.22511,2.22511,0,0,0-.72052-2.86694c-1.39087-1.10083-3.83215-1.23535-5.61255-1.25177a14.34174,14.34174,0,0,0-5.44836,1.04492,19.438,19.438,0,0,0-8.08142,6.44177l-1.77063,2.34662a10.55259,10.55259,0,0,0-1.5763,3.00385,14.13,14.13,0,0,0-4.45825,9.39783q-.04074.52029-.04132,1.06c0,10.99628,14.947,14.03571,14.947,14.03571l19.97058,2.21521c2.26575,0,4.10242-1.30652,4.10242-3.42645,0-1.67487-4.67578-2.56653-7.75915-2.86817l10.25213.61786c2.26569,0,3.657-2.82391,2.86951-4.62372-.86383-1.97418-9.01837-2.96167-11.28406-2.96167H617.0816A4.20371,4.20371,0,0,0,621.1839,668.7926Z" transform="translate(-441.15792 -333.50046)"/><path class="cls-2" d="M608.51611,688.31348a2.14625,2.14625,0,0,1-.2373-.0127l-19.9707-2.21582c-.064-.00684-.12793-.01758-.19141-.03027a30.33038,30.33038,0,0,1-8.11133-3.13379c-5.59863-3.19727-8.55762-7.69629-8.55762-13.00879,0-.417.01661-.82617.04737-1.22656a16.38422,16.38422,0,0,1,4.75146-10.4375,12.66833,12.66833,0,0,1,1.71094-3.09375l1.7666-2.34082.00391-.00586a21.69266,21.69266,0,0,1,8.99853-7.14258,15.78931,15.78931,0,0,1,6.26807-1.19824c2.24023.01953,5.05322.23242,6.92725,1.71484a4.3251,4.3251,0,0,1,1.18457,5.7334,5.50342,5.50342,0,0,1-2.00879,1.72266l7.05078.49707c.09375-.001.1875-.001.28027-.001,9.72363,0,12.9209,3.65137,13.84912,5.2373a4.76729,4.76729,0,0,1,.166,4.87989,4.62826,4.62826,0,0,1-.47949.68359,6.19358,6.19358,0,0,1,1.3706,3.8584,6.34915,6.34915,0,0,1-3.68262,5.68359,2.92053,2.92053,0,0,1,.29932.52344,5.59086,5.59086,0,0,1-.58008,5.22168,5.06972,5.06972,0,0,1-4.26025,2.415c-.043,0-.08643-.001-.1294-.00391l-.21289-.01269c.00049.041.00049.08008.00049.11621C614.76953,685.96777,612.13965,688.31348,608.51611,688.31348Zm-19.62158-6.49121,19.72168,2.1875c.3501-.0127,1.37988-.10938,1.73193-.76856a19.69533,19.69533,0,0,0-5.69824-1.23242,2.15061,2.15061,0,0,1,.33887-4.28711l10.16113.6123a.96222.96222,0,0,0,.62158-.46679,1.60632,1.60632,0,0,0,.27588-.98731c-1.29687-.90625-6.85449-1.8291-9.35058-1.8291a2.15039,2.15039,0,1,1,0-4.30078h10.38476a1.95753,1.95753,0,0,0,0-3.915,2.15039,2.15039,0,1,1,0-4.30078h.207c.96875,0,1.356-.30566,1.42286-.42285.04443-.07715.01806-.28711-.14551-.56641-.69336-1.18359-3.668-3.18945-10.46436-3.1084-.061,0-.11474-.001-.17138-.00488l-12.23536-.8623a2.15083,2.15083,0,0,1-1.28222-3.749,14.91681,14.91681,0,0,0,1.06689-1.0957,11.673,11.673,0,0,1,2.89112-2.49316l.37939-.21094c.18652-.10254.43994-.24121.61035-.35547a.60545.60545,0,0,0-.1084-.11035c-.63476-.50293-2.08007-.76758-4.29638-.78711a12.61221,12.61221,0,0,0-4.62842.89062,17.41034,17.41034,0,0,0-7.16553,5.74121l-.00537-.0039c-.21143.291-.67139.90137-1.76514,2.35058a8.41611,8.41611,0,0,0-1.25439,2.39356,2.14539,2.14539,0,0,1-.58154.89648,12.05141,12.05141,0,0,0-3.77149,7.9834q-.03369.43653-.03418.89258C575.74951,678.624,587.77441,681.56738,588.89453,681.82227Z" transform="translate(-441.15792 -333.50046)"/><path class="cls-2" d="M618.76855,666.835H605.4624a2.15039,2.15039,0,1,1,0-4.30078h13.30615a2.15039,2.15039,0,1,1,0,4.30078Z" transform="translate(-441.15792 -333.50046)"/><path class="cls-5" d="M606.697,672.90052" transform="translate(-441.15792 -333.50046)"/><path class="cls-3" d="M538.07262,601.88007c1.40569-1.92291,4.35113-12.43433,4.35113-12.43433s12.41428,2.67783,17.73823,3.90707a20.86838,20.86838,0,0,0,14.53913-2.25086c3.27659-2.04736,10.27136-22.03446,10.27136-22.03446l9.1724-1.63153a2.732,2.732,0,0,0,.81728-3.68787s-5.64284-16.34609-7.1061-24.84831,16.964-43.85436-41.39077-57.49264c-45.26483-10.579-62.08085,49.82886-40.89848,83.72917,0,0-10.66609,20.04626-8.97536,21.93355C507.09644,598.79615,534.91387,606.20105,538.07262,601.88007Z" transform="translate(-441.15792 -333.50046)"/><path class="cls-2" d="M533.68848,605.27539c-9.6709,0-29.82422-6.86426-38.69922-16.76953-.9253-1.0332-2.6333-2.93945,8.10449-23.2959-12.36182-20.8584-11.51611-51.63574,2.1001-70.67041,9.875-13.80517,24.70752-19.21484,41.76074-15.22656,49.99512,11.68408,45.66211,39.70459,43.57959,53.17041a26.008,26.008,0,0,0-.55859,6.05078c1.33545,7.75879,6.33447,22.50781,6.95605,24.32812a4.87184,4.87184,0,0,1-1.59131,6.36133,2.14772,2.14772,0,0,1-.81836.3291l-7.93847,1.41309c-2.396,6.73145-7.416,19.88184-10.74268,21.96a23.1216,23.1216,0,0,1-16.1626,2.52246c-3.97656-.918-12.022-2.66894-15.7417-3.47461-1.03222,3.52735-2.89062,9.4834-4.12744,11.17578h0c-.94189,1.28809-2.64941,1.97657-5.21972,2.1045Q534.15576,605.27587,533.68848,605.27539Zm-35.10987-19.2207c10.09522,10.71875,34.77393,16.79785,37.7876,14.51269.748-1.1084,2.63916-6.89258,3.98633-11.70215a2.153,2.153,0,0,1,2.5249-1.52246c.12451.02735,12.49024,2.69629,17.76807,3.91407a18.74374,18.74374,0,0,0,12.916-1.9795c1.70166-1.24023,6.19873-11.82812,9.38086-20.92089a2.15111,2.15111,0,0,1,1.65332-1.40625l8.54883-1.52149a.58.58,0,0,0-.02148-.56543,2.12794,2.12794,0,0,1-.19434-.41308c-.23242-.67481-5.71631-16.60938-7.19238-25.18555-.31787-1.84766.06347-4.31445.54687-7.43848,2.02881-13.12207,5.80616-37.54736-40.30713-48.32471-15.24707-3.562-28.48779,1.2461-37.28369,13.54053-12.91113,18.04981-13.48291,47.46-1.30127,66.95508a2.15209,2.15209,0,0,1,.07471,2.15039C503.31494,573.94824,498.90332,583.457,498.57861,586.05469Z" transform="translate(-441.15792 -333.50046)"/><path class="cls-8" d="M493.29315,579.39964s-52.79635,15.90082-50.02257,118.1791H546.54979v-97.8066S520.47623,604.76132,493.29315,579.39964Z" transform="translate(-441.15792 -333.50046)"/><path class="cls-2" d="M546.5498,699.5918H443.27051a2.01227,2.01227,0,0,1-2.01172-1.958c-.79981-29.48731,2.78174-70.55078,24.38574-98.72363,13.09668-17.07911,26.50391-21.26758,27.06787-21.4375a2.01369,2.01369,0,0,1,1.95362.45507c26.03808,24.29395,51.2583,19.915,51.50976,19.86719a2.01573,2.01573,0,0,1,2.38671,1.97754V697.5791A2.013,2.013,0,0,1,546.5498,699.5918Zm-101.314-4.02539h99.30127V602.05273c-7.11133.61719-28.86475.44043-51.7041-20.34082-3.30713,1.33106-13.92676,6.40235-24.20215,19.91895C457.34521,616.47754,444.208,644.78516,445.23584,695.56641Z" transform="translate(-441.15792 -333.50046)"/><path class="cls-8" d="M578.364,669.33075c0-8.41046,3.82215-15.29175-4.58832-15.29175H532.12915l-22.40009-45.73492a15.33668,15.33668,0,0,0-20.45916-7.0069h-.00006a15.33672,15.33672,0,0,0-7.00684,20.45923l25.16382,51.37775a15.12749,15.12749,0,0,0,4.00891,5.04742,15.28846,15.28846,0,0,0,12.434,6.44092h49.90594c8.41047,0,4.58832-6.88129,4.58832-15.29169Z" transform="translate(-441.15792 -333.50046)"/><path class="cls-2" d="M573.77539,686.77246H523.86963a17.49382,17.49382,0,0,1-14.0166-7.11035,17.16947,17.16947,0,0,1-4.35791-5.583l-25.16358-51.376a17.44279,17.44279,0,1,1,31.3291-15.3457l21.80957,44.53125h40.30518c2.81738,0,4.80566.7002,6.07861,2.14063,2.02295,2.29,1.61329,5.583,1.13916,9.39453a36.69567,36.69567,0,0,0,0,11.81347c.47413,3.81153.88379,7.1045-1.13916,9.39454C578.58105,686.07227,576.59277,686.77246,573.77539,686.77246ZM495.9751,601.89062a13.16169,13.16169,0,0,0-11.78028,18.91993L509.3584,672.1875a12.92825,12.92825,0,0,0,3.44189,4.332,2.14944,2.14944,0,0,1,.38477.41113,13.18888,13.18888,0,0,0,10.68457,5.541h49.90576c1.44922,0,2.46289-.24414,2.85449-.6875.73877-.83691.41114-3.46973.09424-6.01563a40.78669,40.78669,0,0,1,0-12.875c.3169-2.54687.64453-5.17968-.09424-6.0166-.3916-.44336-1.40527-.6875-2.85449-.6875H532.12891a2.15027,2.15027,0,0,1-1.93164-1.2041L507.79736,609.25A13.15791,13.15791,0,0,0,495.9751,601.89062Z" transform="translate(-441.15792 -333.50046)"/><ellipse class="cls-2" cx="132.68335" cy="214.3316" rx="3.64564" ry="6.179"/><path class="cls-3" d="M725.82867,675.999a9.86074,9.86074,0,0,0-3.11138-6.55841,7.36548,7.36548,0,0,0-1.0998-2.096l-1.23565-1.63757a13.56425,13.56425,0,0,0-5.63959-4.49536,10.00808,10.00808,0,0,0-3.80213-.72919c-1.24249.01142-2.9461.10535-3.91668.87354a1.55273,1.55273,0,0,0-.50287,2.00067,3.58786,3.58786,0,0,0,1.30408.95129,14.945,14.945,0,0,1,2.50915,2.32013l-8.54028.60193c-10.09821-.09381-10.699,5.861-6.42511,5.861h.14453a2.8667,2.8667,0,0,0,0,5.7334h7.24689c-1.58112,0-7.27173.68915-7.87452,2.06684a2.40756,2.40756,0,0,0,2.00245,3.22662l7.15478-.43121c-2.15173.21045-5.4151.8327-5.4151,2.00158,0,1.47943,1.28174,2.39118,2.86286,2.39118l13.93646-1.5459s10.43072-2.12109,10.43072-9.7948Q725.85748,676.36221,725.82867,675.999Z" transform="translate(-441.15792 -333.50046)"/><path class="cls-2" d="M701.49023,690.22949a4.74374,4.74374,0,0,1-4.97949-3.97754,4.20845,4.20845,0,0,1-3.13965-1.96289,4.584,4.584,0,0,1-.51953-4.10547A5.0666,5.0666,0,0,1,690.5,675.958a4.92552,4.92552,0,0,1,.80469-2.68555c-.03418-.05273-.06641-.10644-.09766-.16113a4.01038,4.01038,0,0,1,.11914-4.05664c1.4834-2.53223,5.208-3.97657,10.24121-3.97657.05274,0,.10547.001.15918.001l3.22852-.22754a3.41548,3.41548,0,0,1-.23242-.31543,3.66053,3.66053,0,0,1,.96679-4.86718c1.459-1.15528,3.5625-1.32129,5.23047-1.33692a11.418,11.418,0,0,1,4.62207.88379,15.769,15.769,0,0,1,6.55664,5.19629l.01075.01367,1.2246,1.623a9.48466,9.48466,0,0,1,1.23047,2.18652,12.08882,12.08882,0,0,1,3.40918,7.5957v.00391q.03369.44385.03418.90332c0,9.32422-11.65625,11.80176-12.15234,11.90234-.06348.0127-.12695.02344-.19141.03028l-13.93652,1.5459A2.14629,2.14629,0,0,1,701.49023,690.22949Zm2.55469-8.69433a2.15106,2.15106,0,0,1,1.14844,3.96875l9.88184-1.09571c.86425-.20019,8.63183-2.15722,8.63183-7.66992,0-.19531-.00781-.38574-.02246-.57422a7.70029,7.70029,0,0,0-2.4248-5.1416,2.15738,2.15738,0,0,1-.582-.89648,5.23348,5.23348,0,0,0-.77734-1.48633c-.5918-.78418-.97461-1.29-1.2207-1.64844l-.01465.01074a11.49671,11.49671,0,0,0-4.72266-3.793,8.10757,8.10757,0,0,0-2.98242-.57617,12.0899,12.0899,0,0,0-1.59863.10352,9.79354,9.79354,0,0,1,1.708,1.57031,9.61724,9.61724,0,0,0,.69824.71777,2.15083,2.15083,0,0,1-1.28223,3.749l-8.54.60254c-.05761.0039-.12207.00488-.1709.00488-4.04492.00879-5.84765.96875-6.48828,1.55762.02635.001.05371.00195.082.00195h.14454a2.15039,2.15039,0,0,1,0,4.30078.71632.71632,0,0,0,0,1.43262h7.24707a2.15039,2.15039,0,1,1,0,4.30078,22.0177,22.0177,0,0,0-5.77637.98144l.001.002,6.92871-.418C703.957,681.53711,704.001,681.53516,704.04492,681.53516Z" transform="translate(-441.15792 -333.50046)"/><path class="cls-2" d="M703.62109,675.24121h-9.28515a2.15039,2.15039,0,0,1,0-4.30078h9.28515a2.15039,2.15039,0,0,1,0,4.30078Z" transform="translate(-441.15792 -333.50046)"/><path class="cls-5" d="M702.75981,678.8245" transform="translate(-441.15792 -333.50046)"/><path class="cls-3" d="M754.13449,634.42877c-.40908-1.90638-5.56448-16.744-5.56448-16.744s-15.73964-2.69357-20.45107-3.787a19.46206,19.46206,0,0,1-10.7832-7.02242c-1.858-2.69112-.02329-19.6764-.02329-19.6764l-6.7243-4.58252a2.06145,2.06145,0,0,1,.71682-2.95812s10.7599-.59258,14.90968-15.24479c1.8947-6.68986,2.21873-42.12588,53.9209-30.25951,40.10454,9.20455,28.07367,63.19025-1.44811,79.72013,0,0,1.07732,18.392-.975,19.12221C764.961,637.53331,755.05373,638.7126,754.13449,634.42877Z" transform="translate(-441.15792 -333.50046)"/><path class="cls-2" d="M759.80762,639.23926a10.95933,10.95933,0,0,1-5.27246-1.07129,4.88014,4.88014,0,0,1-2.50293-3.28809c-.25977-1.208-3.09475-9.55761-5.07813-15.291-3.84961-.665-15.334-2.6709-19.32129-3.59668a21.70594,21.70594,0,0,1-12.06738-7.89551c-1.8877-2.73242-1.209-13.08984-.52539-19.84375l-5.66309-3.85938a2.149,2.149,0,0,1-.5957-.61035,4.21233,4.21233,0,0,1,1.44727-5.9873,2.15492,2.15492,0,0,1,.958-.28516c.36231-.02636,9.31153-.80762,12.959-13.68359.16308-.57813.33594-1.5332.53613-2.63965,1.08887-6.02637,3.35449-18.56641,14.45313-25.88867,9.52148-6.28223,23.47656-7.373,41.48242-3.24121,15.20605,3.49023,24.74707,13.54785,26.86523,28.32031,2.90235,20.24023-8.71191,43.9707-26.57324,54.69434.99707,18.71679-1.16992,19.48632-2.47559,19.95019C772.50391,637.13184,765.22461,639.23926,759.80762,639.23926Zm-46.91114-57.65235,5.627,3.835a2.15085,2.15085,0,0,1,.92773,2.00781c-.81543,7.55469-1.13869,16.69629-.31933,18.26367a17.299,17.299,0,0,0,9.47363,6.1084c4.59668,1.06738,20.1709,3.73633,20.32715,3.76269a2.14949,2.14949,0,0,1,1.66894,1.41407c.53223,1.53125,5.21192,15.0205,5.63574,16.999h0c.02149.09668.05274.24316.39356.43359,1.88574,1.05371,8.16894.82129,19.70605-3.21093.59961-2.24024.60254-10.38086.20313-17.2002a2.15243,2.15243,0,0,1,1.09668-2.00293c16.79394-9.40234,28.27246-32.28516,25.58789-51.00879-1.84863-12.88769-10.21875-21.67383-23.57031-24.7373-16.81543-3.85938-29.64942-2.97071-38.15137,2.63769-9.56152,6.30957-11.53027,17.208-12.58789,23.06348-.22949,1.26758-.41016,2.26758-.63086,3.04687C724.65723,577.80566,716.30469,580.86426,712.89648,581.58691Z" transform="translate(-441.15792 -333.50046)"/><path class="cls-6" d="M781.89831,620.14777s23.71572,34.34641,34.90809,77.431H749.19223V631.33461S762.92869,637.84634,781.89831,620.14777Z" transform="translate(-441.15792 -333.50046)"/><path class="cls-2" d="M816.80664,699.5918H749.19238a2.013,2.013,0,0,1-2.01269-2.0127V631.335a2.01211,2.01211,0,0,1,2.875-1.81836c.50586.23145,12.8623,5.58887,30.4707-10.84082a2.01274,2.01274,0,0,1,3.0293.32813c.23926.34668,24.04687,35.13671,35.20019,78.06933a2.01314,2.01314,0,0,1-1.94824,2.51856Zm-65.60156-4.02539h62.9824c-9.68064-35.415-27.74705-64.751-32.67674-72.3584-14.04785,12.25683-25.26269,11.9248-30.30566,10.84179Z" transform="translate(-441.15792 -333.50046)"/><path class="cls-6" d="M781.88721,635.33447v-.00006a10.70271,10.70271,0,0,0-14.27741,4.88977l-12.76556,25.43787H725.73389a3.21135,3.21135,0,0,0-3.202,3.202v14.93866a3.21135,3.21135,0,0,0,3.202,3.202h34.82672a10.66889,10.66889,0,0,0,8.67694-4.49469,10.557,10.557,0,0,0,2.79767-3.5224l14.7417-29.37573A10.70255,10.70255,0,0,0,781.88721,635.33447Z" transform="translate(-441.15792 -333.50046)"/><path class="cls-2" d="M760.56055,689.15527H725.73438a5.35889,5.35889,0,0,1-5.35254-5.35254V668.86426a5.35889,5.35889,0,0,1,5.35254-5.35254H753.5166l12.17088-24.25195a12.83455,12.83455,0,0,1,17.14553-5.85743h0a12.8376,12.8376,0,0,1,5.876,17.15528L773.957,679.95215a12.5863,12.5863,0,0,1-3.13769,4.03808A12.858,12.858,0,0,1,760.56055,689.15527ZM725.73438,667.8125a1.06558,1.06558,0,0,0-1.05176,1.05176v14.93847a1.06557,1.06557,0,0,0,1.05176,1.05176h34.82617a8.54885,8.54885,0,0,0,6.92675-3.5957,2.20581,2.20581,0,0,1,.38575-.41211,8.37479,8.37479,0,0,0,2.23047-2.80469l14.75195-29.39551A8.52081,8.52081,0,0,0,769.541,641.1709L756.76562,666.627a2.14992,2.14992,0,0,1-1.92187,1.18555Z" transform="translate(-441.15792 -333.50046)"/><ellipse class="cls-2" cx="735.31713" cy="575.9071" rx="5.46953" ry="3.22705" transform="translate(-546.28296 649.85878) rotate(-63.9328)"/><path class="cls-2" d="M584.91726,485.53568a15.413,15.413,0,0,0-6.733,1.55458,15.49685,15.49685,0,0,0-25.96442-15.38864,15.49582,15.49582,0,1,0-28.92286,11.114,15.49318,15.49318,0,1,0-22.35312,21.45861c-.05737-.00066-.1129-.00867-.1704-.00867a15.50512,15.50512,0,0,0-7.34164,29.16179,15.49746,15.49746,0,0,0,8.1675,29.86713,15.48018,15.48018,0,0,0,25.9165-9.97847,8.71116,8.71116,0,1,1,3.96915-12.5826,15.27392,15.27392,0,0,0,3.79389-13.04836A15.4702,15.4702,0,0,0,560.19433,516.204a15.27828,15.27828,0,0,0,13.53843-4.44293,15.4998,15.4998,0,1,0,11.1845-26.22539Z" transform="translate(-441.15792 -333.50046)"/><path class="cls-2" d="M776.708,615.57539c2.0876-8.727-3.5071-11.36774-1.26318-15.88139a7.3715,7.3715,0,1,0,3.02443-14.38057c-.95577-15.424-14.4408-26.678-14.4408-26.678-21.49948-10.329-22.94965-24.93272-20.79868-34.78675,9.59505-4.6538,23.94548-5.277,46.30483,4.82275,42.09119,19.01262,25.44971,73.379-11.56192,87.87306" transform="translate(-441.15792 -333.50046)"/><path class="cls-2" d="M749.19223,528.10208s-6.85408-6.96364-16.63282-4.88936c0,0,13.18648,3.10339,13.77913,12.07124" transform="translate(-441.15792 -333.50046)"/><path class="cls-2" d="M744.77888,530.71575s-9.24306-3.16806-17.065,3.05634c0,0,13.18385-3.11454,17.72043,4.64388" transform="translate(-441.15792 -333.50046)"/><path class="cls-9" d="M811.89783,536.24817c-19.28058-26.096-42.3808-19.14374-54.32276-12.77966l-13.76867-18.602a4.81353,4.81353,0,1,0-7.743,5.7207l59.47839,80.3573,5.268,7.13019S839.23444,573.24805,811.89783,536.24817Z" transform="translate(-441.15792 -333.50046)"/><path class="cls-2" d="M800.81152,600.22559a2.14944,2.14944,0,0,1-1.73144-.87305l-5.2676-7.12988L734.335,511.86719a6.96428,6.96428,0,1,1,11.20117-8.27881l12.68164,17.1333c13.0127-6.43359,36.05274-11.95215,55.40918,14.24805h0c8.45606,11.44433,11.7002,22.96386,9.64258,34.24023-3.457,18.95508-20.56641,30.20117-21.293,30.6709A2.14167,2.14167,0,0,1,800.81152,600.22559Zm-60.88086-95.16016a2.662,2.662,0,0,0-2.13769,4.24365l63.4834,85.77686c4.207-3.21778,15.25586-12.832,17.76758-26.68067,1.82324-10.05078-1.16309-20.43945-8.876-30.8789h0C791.87988,512.773,770,519.2832,758.58691,525.36719a2.15023,2.15023,0,0,1-2.74023-.61914l-13.76856-18.60157A2.6641,2.6641,0,0,0,739.93066,505.06543Z" transform="translate(-441.15792 -333.50046)"/><polyline class="cls-3" points="140.873 243.141 131.141 240.35 128.085 237.529"/><path class="cls-2" d="M582.03223,578.793a2.15792,2.15792,0,0,1-.59375-.084l-9.73243-2.791a2.156,2.156,0,0,1-.86621-.48731l-3.05566-2.82128a2.15065,2.15065,0,0,1,2.918-3.16016l2.68066,2.47461,9.24121,2.65039a2.15109,2.15109,0,0,1-.59179,4.21875Z" transform="translate(-441.15792 -333.50046)"/><polyline class="cls-3" points="275.586 262.617 285.676 261.781 288.733 259.644"/><path class="cls-2" d="M716.74121,598.26855a2.15115,2.15115,0,0,1-.17578-4.29492l9.51269-.78808,2.58008-1.80371a2.15081,2.15081,0,0,1,2.46485,3.52539l-3.05664,2.13672a2.1507,2.1507,0,0,1-1.05469.38085l-10.09082.83594C716.86035,598.26562,716.7998,598.26855,716.74121,598.26855Z" transform="translate(-441.15792 -333.50046)"/></svg>