<?xml version="1.0" encoding="UTF-8" standalone="no"?>
<svg width="112px" height="112px" viewBox="0 0 112 112" version="1.1" xmlns="http://www.w3.org/2000/svg" xmlns:xlink="http://www.w3.org/1999/xlink">
    <!-- Generator: Sketch 50.2 (55047) - http://www.bohemiancoding.com/sketch -->
    <title>blankets</title>
    <desc>Created with Sketch.</desc>
    <defs></defs>
    <g id="Symbols" stroke="none" stroke-width="1" fill="none" fill-rule="evenodd">
        <g id="tile-/-request-/-blankets" transform="translate(-24.000000, -24.000000)">
            <g id="blankets" transform="translate(24.000000, 24.000000)">
                <rect id="Rectangle-5" fill="#FFFFFF" x="0" y="0" width="112" height="112"></rect>
                <path d="M87.0182567,32.2090653 L84.8405222,28.1531202 C83.8309403,25.6373346 81.3966056,23.9923727 78.6944714,24.0000266 L31.5102234,24.0000266 C28.7245635,24.0077937 26.2363026,25.75025 25.2673844,28.371704 L23.8639555,32.2090653 L22.5331178,35.8521299 L16.3507714,52.7680928 C15.3126542,55.5646859 16.2753228,58.7124729 18.6978853,60.4428155 L15.1530174,70.1576542 C14.8797721,70.7825739 14.9774718,71.5083758 15.4061438,72.0381063 C15.8348159,72.5678368 16.5225373,72.8126171 17.1879345,72.6722983 C17.8533318,72.5319794 18.3847639,72.0301041 18.5648015,71.372009 L22.0128812,61.9729026 L26.9127839,63.7822913 L23.4647042,73.1813978 C23.1914588,73.8063174 23.2891585,74.5321193 23.7178306,75.0618498 C24.1465027,75.5915803 24.834224,75.8363607 25.4996213,75.6960418 C26.1650186,75.555723 26.6964507,75.0538477 26.8764883,74.3957526 L30.3245679,64.9966461 L35.2244706,66.8060348 L31.776391,76.2051413 C31.5031456,76.830061 31.6008453,77.5558629 32.0295174,78.0855934 C32.4581894,78.6153239 33.1459108,78.8601042 33.8113081,78.7197854 C34.4767053,78.5794665 35.0081375,78.0775912 35.188175,77.4194962 L38.6362547,68.0203897 L43.5361574,69.8297784 L40.0759792,79.3017462 C39.8027338,79.9266658 39.9004336,80.6524677 40.3291056,81.1821982 C40.7577777,81.7119287 41.445499,81.9567091 42.1108963,81.8163902 C42.7762936,81.6760714 43.3077257,81.1741961 43.4877633,80.516101 L46.9358429,71.1169945 L51.8357456,72.9263832 L48.387666,82.3254897 C48.1144206,82.9504094 48.2121203,83.6762113 48.6407924,84.2059418 C49.0694644,84.7356723 49.7571858,84.9804527 50.4225831,84.8401338 C51.0879803,84.6998149 51.6194125,84.1979397 51.79945,83.5398446 L55.1991356,74.2378865 L60.0990383,76.0472752 L56.6509586,85.4463817 C56.3777133,86.0713014 56.475413,86.7971033 56.904085,87.3268337 C57.3327571,87.8565642 58.0204785,88.1013446 58.6858757,87.9610257 C59.351273,87.8207069 59.8827051,87.3188316 60.0627427,86.6607365 L63.595512,76.9458978 C63.7648914,76.9458978 63.9342707,76.9458978 64.0915516,76.9458978 C66.8783179,76.94165 69.3683811,75.1979315 70.3343905,72.5742203 L73.3469233,64.5230477 L75.8876136,71.372009 C76.2698252,72.2461375 77.2595503,72.6758124 78.155928,72.3567651 C79.0523058,72.0377177 79.5512316,71.078188 79.2993977,70.1576542 L75.851318,60.6856864 L80.7512207,58.8762977 L84.2355959,68.3118348 C84.6178075,69.1859633 85.6075326,69.6156382 86.5039104,69.2965909 C87.4002881,68.9775435 87.8992139,68.0180138 87.64738,67.09748 L84.1630048,57.6497993 L89.075006,55.828267 L92.5230856,65.2273735 C92.9052972,66.101502 93.8950223,66.5311769 94.7914001,66.2121296 C95.6877778,65.8930822 96.1867036,64.9335525 95.9348697,64.0130187 L92.3900019,54.2981799 C94.8125644,52.5678374 95.775233,49.4200504 94.7371157,46.6234573 C94.7060989,46.5441484 94.6697186,46.4670596 94.628229,46.3927299 L88.9782178,35.8278428 L87.0182567,32.2090653 Z M66.9830991,71.4448703 C66.4048287,73.0173197 64.6663462,73.8218459 63.0994725,73.2421155 L38.1765107,64.0373058 L29.8769225,60.9771316 L21.5652357,57.9169574 C19.9986163,57.336535 19.197073,55.591583 19.774654,54.0188783 L28.7154641,29.6224895 C29.1553999,28.4274957 30.2893738,27.6331816 31.5586175,27.6309476 L78.7428655,27.6309476 C79.7313723,27.6299251 80.6580019,28.1138024 81.2245499,28.9268601 C81.791098,29.7399178 81.926066,30.7795476 81.5860189,31.7111799 L66.9830991,71.4448703 Z M91.3616272,48.0078219 C91.8653544,49.5582629 91.0587122,51.2311696 89.5347499,51.796609 L76.2263723,56.6540283 L83.8605416,35.8156992 L84.8163251,35.8156992 L91.3616272,48.0078219 Z" id="Shape" fill="#A13604" fill-rule="nonzero"></path>
            </g>
        </g>
    </g>
</svg>