<?xml version="1.0" encoding="UTF-8" standalone="no"?>
<svg width="160px" height="160px" viewBox="0 0 160 160" version="1.1" xmlns="http://www.w3.org/2000/svg" xmlns:xlink="http://www.w3.org/1999/xlink">
    <!-- Generator: Sketch 50.2 (55047) - http://www.bohemiancoding.com/sketch -->
    <title>tile / request / blankets</title>
    <desc>Created with Sketch.</desc>
    <defs></defs>
    <g id="tile-/-request-/-blankets" stroke="none" stroke-width="1" fill="none" fill-rule="evenodd">
        <g id="noun_towel_654250" transform="translate(20.000000, 48.000000)" fill="#A13604" fill-rule="nonzero">
            <path d="M91.0182567,8.20906534 L88.8405222,4.15312016 C87.8309403,1.63733461 85.3966056,-0.00762734249 82.6944714,2.6596101e-05 L35.5102234,2.6596101e-05 C32.7245635,0.00779369274 30.2363026,1.75024996 29.2673844,4.37170403 L27.8639555,8.20906534 L26.5331178,11.8521299 L20.3507714,28.7680928 C19.3126542,31.5646859 20.2753228,34.7124729 22.6978853,36.4428155 L19.1530174,46.1576542 C18.8797721,46.7825739 18.9774718,47.5083758 19.4061438,48.0381063 C19.8348159,48.5678368 20.5225373,48.8126171 21.1879345,48.6722983 C21.8533318,48.5319794 22.3847639,48.0301041 22.5648015,47.372009 L26.0128812,37.9729026 L30.9127839,39.7822913 L27.4647042,49.1813978 C27.1914588,49.8063174 27.2891585,50.5321193 27.7178306,51.0618498 C28.1465027,51.5915803 28.834224,51.8363607 29.4996213,51.6960418 C30.1650186,51.555723 30.6964507,51.0538477 30.8764883,50.3957526 L34.3245679,40.9966461 L39.2244706,42.8060348 L35.776391,52.2051413 C35.5031456,52.830061 35.6008453,53.5558629 36.0295174,54.0855934 C36.4581894,54.6153239 37.1459108,54.8601042 37.8113081,54.7197854 C38.4767053,54.5794665 39.0081375,54.0775912 39.188175,53.4194962 L42.6362547,44.0203897 L47.5361574,45.8297784 L44.0759792,55.3017462 C43.8027338,55.9266658 43.9004336,56.6524677 44.3291056,57.1821982 C44.7577777,57.7119287 45.445499,57.9567091 46.1108963,57.8163902 C46.7762936,57.6760714 47.3077257,57.1741961 47.4877633,56.516101 L50.9358429,47.1169945 L55.8357456,48.9263832 L52.387666,58.3254897 C52.1144206,58.9504094 52.2121203,59.6762113 52.6407924,60.2059418 C53.0694644,60.7356723 53.7571858,60.9804527 54.4225831,60.8401338 C55.0879803,60.6998149 55.6194125,60.1979397 55.79945,59.5398446 L59.1991356,50.2378865 L64.0990383,52.0472752 L60.6509586,61.4463817 C60.3777133,62.0713014 60.475413,62.7971033 60.904085,63.3268337 C61.3327571,63.8565642 62.0204785,64.1013446 62.6858757,63.9610257 C63.351273,63.8207069 63.8827051,63.3188316 64.0627427,62.6607365 L67.595512,52.9458978 C67.7648914,52.9458978 67.9342707,52.9458978 68.0915516,52.9458978 C70.8783179,52.94165 73.3683811,51.1979315 74.3343905,48.5742203 L77.3469233,40.5230477 L79.8876136,47.372009 C80.2698252,48.2461375 81.2595503,48.6758124 82.155928,48.3567651 C83.0523058,48.0377177 83.5512316,47.078188 83.2993977,46.1576542 L79.851318,36.6856864 L84.7512207,34.8762977 L88.2355959,44.3118348 C88.6178075,45.1859633 89.6075326,45.6156382 90.5039104,45.2965909 C91.4002881,44.9775435 91.8992139,44.0180138 91.64738,43.09748 L88.1630048,33.6497993 L93.075006,31.828267 L96.5230856,41.2273735 C96.9052972,42.101502 97.8950223,42.5311769 98.7914001,42.2121296 C99.6877778,41.8930822 100.186704,40.9335525 99.9348697,40.0130187 L96.3900019,30.2981799 C98.8125644,28.5678374 99.775233,25.4200504 98.7371157,22.6234573 C98.7060989,22.5441484 98.6697186,22.4670596 98.628229,22.3927299 L92.9782178,11.8278428 L91.0182567,8.20906534 Z M70.9830991,47.4448703 C70.4048287,49.0173197 68.6663462,49.8218459 67.0994725,49.2421155 L42.1765107,40.0373058 L33.8769225,36.9771316 L25.5652357,33.9169574 C23.9986163,33.336535 23.197073,31.591583 23.774654,30.0188783 L32.7154641,5.62248952 C33.1553999,4.42749567 34.2893738,3.63318162 35.5586175,3.63094758 L82.7428655,3.63094758 C83.7313723,3.62992508 84.6580019,4.11380244 85.2245499,4.92686012 C85.791098,5.7399178 85.926066,6.77954758 85.5860189,7.71117985 L70.9830991,47.4448703 Z M95.3616272,24.0078219 C95.8653544,25.5582629 95.0587122,27.2311696 93.5347499,27.796609 L80.2263723,32.6540283 L87.8605416,11.8156992 L88.8163251,11.8156992 L95.3616272,24.0078219 Z" id="Shape"></path>
        </g>
    </g>
</svg>