<?xml version="1.0" encoding="UTF-8" standalone="no"?>
<svg width="112px" height="112px" viewBox="0 0 112 112" version="1.1" xmlns="http://www.w3.org/2000/svg" xmlns:xlink="http://www.w3.org/1999/xlink">
    <!-- Generator: Sketch 50.2 (55047) - http://www.bohemiancoding.com/sketch -->
    <title>catfood</title>
    <desc>Created with Sketch.</desc>
    <defs></defs>
    <g id="Symbols" stroke="none" stroke-width="1" fill="none" fill-rule="evenodd">
        <g id="tile-/-request-/-catfood" transform="translate(-24.000000, -24.000000)">
            <g id="catfood" transform="translate(24.000000, 24.000000)">
                <rect id="Rectangle-5" fill="#FFFFFF" x="0" y="0" width="112" height="112"></rect>
                <g id="noun_Fish_552115" transform="translate(6.000000, 18.000000)" fill="#A13604" fill-rule="nonzero">
                    <g id="Group" transform="translate(50.500000, 38.325893) rotate(17.000000) translate(-50.500000, -38.325893) translate(6.312500, 12.625000)">
                        <path d="M87.8855021,20.2855038 C88.9658402,17.408766 88.0151427,15.8788157 87.3561364,15.2215834 C84.9685893,12.8404635 80.3879559,14.9199031 77.1037281,18.1952898 C76.0508649,19.2398125 75.1392752,20.4169803 74.3920796,21.6969369 C71.8316784,17.5811548 66.343561,14.1549279 59.0188688,11.8384537 L59.0188688,9.11255616 C58.9680079,8.12192027 58.4768735,7.20549727 57.6792496,6.6129189 C53.2606669,2.78804291 35.4783023,-0.778249911 28.8450265,0.148339764 C24.1347525,0.719377587 21.2070363,4.14560453 21.2070363,9.09100756 L21.2070363,10.6748295 C8.54547414,13.6054387 0,19.7360145 0,27.0086661 C0,35.1001643 10.6089199,41.7910037 25.7012427,44.182898 L25.7012427,46.5532436 C25.7040876,47.8457374 26.2231338,49.0838455 27.1435799,49.993726 C28.064026,50.9036064 29.3100206,51.4102786 30.6059776,51.401678 C44.4775184,50.9814803 44.4775184,48.805072 44.4775184,47.6306735 L44.4775184,44.8509045 C58.1545984,43.7734746 69.1416366,39.3344636 73.7006632,33.3008564 C74.4896641,34.8292096 75.5181072,36.2222358 76.7472166,37.4274128 C79.0483367,39.7223383 81.9868562,41.4354518 84.3095831,41.4354518 C85.30297,41.4550573 86.2605039,41.0652792 86.9564114,40.358022 C87.6154176,39.7007898 88.5661151,38.2031623 87.485777,35.2941016 C86.6856092,33.3502992 85.4900898,31.5930308 83.9746783,30.1332126 C83.1288903,29.2866533 82.1985677,28.5285139 81.1982094,27.8706099 C82.3313659,27.1675516 83.3790706,26.3359827 84.3203865,25.3925213 C85.8491304,23.9535484 87.0629263,22.2147893 87.8855021,20.2855038 Z M24.4480506,9.11255616 C24.4480506,6.76375908 25.2799109,3.85469847 29.2663584,3.36985503 C32.377732,2.92810879 38.6004793,3.5961153 44.7476029,5.03987131 C52.0614917,6.76375908 55.2592923,8.57384123 55.7778546,9.26339634 L55.7778546,10.9226383 C49.9556965,9.51950426 43.9851871,8.82132299 37.99549,8.8431987 C33.4510215,8.83262533 28.9143293,9.21837778 24.4372472,9.99604864 L24.4480506,9.11255616 Z M20.1266983,39.6792412 C10.1119643,37.039538 3.27342436,32.2880723 3.27342436,27.0086661 C3.27342436,22.1494574 9.06403642,17.7427693 17.793168,15.0060975 C21.5431664,22.6777576 22.3612492,31.4494315 20.0942881,39.6792412 L20.1266983,39.6792412 Z M41.2797177,46.962667 C39.7024241,47.5444791 34.732869,48.0400968 30.6059776,48.1693884 C29.7109962,48.1693884 28.9854705,47.4458157 28.9854705,46.5532436 L28.9854705,44.6138699 C31.9913464,44.9513613 35.0138388,45.1204242 38.0387035,45.1202619 C39.1190416,45.1202619 40.1993796,45.1202619 41.2797177,45.0556161 L41.2797177,46.962667 Z M38.0387035,41.8771981 C33.0648031,41.896048 28.1019548,41.4086804 23.2272685,40.4226678 C25.6229211,31.6622192 24.8069989,22.3368445 20.9261484,14.122605 C26.5126343,12.7578809 32.243852,12.0705391 37.99549,12.0754883 C56.8365859,12.0754883 72.7499657,18.8848449 72.7499657,26.9547946 C72.7499657,35.0247442 56.8365859,41.8771981 37.99549,41.8771981 L38.0387035,41.8771981 Z M81.7707886,32.4604611 C82.9594571,33.5988623 83.904022,34.9660773 84.5472575,36.4792745 C84.9577859,37.5567043 84.8065386,38.0738707 84.7633251,38.1277422 C84.4284203,38.4617454 81.8788224,37.9338048 79.0915502,35.1540358 C77.9024214,34.0160249 76.9577872,32.6487096 76.3150814,31.1352224 C75.9045529,30.0577925 76.0558002,29.5406262 76.0990137,29.4867547 C76.1621236,29.4411446 76.2372265,29.4149294 76.3150814,29.4113346 C76.4770134,29.4200822 76.6393015,29.4200822 76.8012335,29.4113346 L76.8768572,29.4113346 C78.752123,29.9526749 80.4368249,31.0093131 81.7383785,32.4604611 L81.7707886,32.4604611 Z M76.9740876,26.211368 L76.5527557,26.211368 C76.5527557,26.211368 76.4663287,26.211368 76.4447219,26.211368 C76.1098171,25.8773647 76.6391828,23.3346303 79.426455,20.5548612 C81.7167717,18.1737412 83.8666445,17.4626375 84.7201116,17.4626375 C84.8455097,17.4470888 84.9722856,17.4777396 85.0766231,17.5488319 C85.0766231,17.5488319 85.271084,18.0875469 84.8605555,19.1972996 C84.2178496,20.7107868 83.2732155,22.0781021 82.0840867,23.216113 C80.7262716,24.726369 78.9277503,25.7739383 76.9416774,26.211368 L76.9740876,26.211368 Z" id="Shape"></path>
                        <circle id="Oval" cx="13.0758929" cy="25.7008929" r="2.25446429"></circle>
                    </g>
                </g>
            </g>
        </g>
    </g>
</svg>