<?xml version="1.0" encoding="UTF-8" standalone="no"?>
<svg width="112px" height="112px" viewBox="0 0 112 112" version="1.1" xmlns="http://www.w3.org/2000/svg" xmlns:xlink="http://www.w3.org/1999/xlink">
    <!-- Generator: Sketch 50.2 (55047) - http://www.bohemiancoding.com/sketch -->
    <title>dogfood</title>
    <desc>Created with Sketch.</desc>
    <defs>
        <rect id="path-1" x="0" y="0" width="112" height="112"></rect>
    </defs>
    <g id="Symbols" stroke="none" stroke-width="1" fill="none" fill-rule="evenodd">
        <g id="tile-/-request-/-dogfood" transform="translate(-24.000000, -24.000000)">
            <g id="dogfood" transform="translate(24.000000, 24.000000)">
                <mask id="mask-2" fill="white">
                    <use xlink:href="#path-1"></use>
                </mask>
                <use id="Mask" fill="#FFFFFF" xlink:href="#path-1"></use>
                <g id="Group" mask="url(#mask-2)" fill="#A13604" fill-rule="nonzero">
                    <g transform="translate(11.000000, 30.000000)" id="Shape">
                        <path d="M57.6158196,33.5565683 C58.5206633,32.7432166 59.0932596,31.5743139 59.0932596,30.2729512 C59.0932596,27.8280159 57.0856378,25.8390223 54.6093353,25.8227553 L54.6093353,25.8204314 C54.6043869,25.8204314 54.5996742,25.8227553 54.5949615,25.8227553 C54.5902487,25.8227553 54.5831796,25.8204314 54.5784669,25.8204314 L54.5784669,25.8227553 C52.2998633,25.8390223 50.4218415,27.5261462 50.1367215,29.703605 L40.2305687,29.7221959 C39.9430924,27.5493848 38.0650705,25.862261 35.7888233,25.8483178 L35.7888233,25.8459939 L35.7581905,25.8459939 L35.7581905,25.8483178 C33.2816524,25.8645848 31.2740305,27.8538108 31.2740305,30.2961898 C31.2740305,31.5977849 31.8466269,32.7664552 32.7514705,33.5821308 C31.8372015,34.3980387 31.2596567,35.5715891 31.2596567,36.879691 C31.2596567,38.3065423 31.9430022,39.5776949 33.0033658,40.3910466 C33.7597585,40.974336 34.7117295,41.3229153 35.7414604,41.3296545 L35.7414604,41.3322108 C35.7461731,41.3322108 35.7508858,41.3296545 35.7579549,41.3296545 C35.7626676,41.3296545 35.7673804,41.3322108 35.7720931,41.3322108 L35.7720931,41.3296545 C36.8041804,41.3205914 37.7537949,40.9720121 38.5101876,40.3910466 C39.4268131,39.6869164 40.0583185,38.6411785 40.2136029,37.4490372 L50.1529804,37.4304463 C50.3108567,38.6342069 50.9565004,39.6869164 51.8893847,40.3910466 C52.6410647,40.9578366 53.5765411,41.2971204 54.5944902,41.3043244 L54.5944902,41.3066483 L54.6253585,41.3066483 L54.6253585,41.3043244 C55.6407156,41.2996767 56.5785484,40.958069 57.3302284,40.3910466 C58.4092073,39.5776949 59.1069265,38.2946906 59.1069265,36.8538962 C59.1073978,35.5457942 58.5300887,34.3722439 57.6158196,33.5565683 Z M37.6126487,35.1298229 L37.8624233,36.4964862 C37.8859869,36.6266225 37.8977687,36.7614065 37.8977687,36.8913103 C37.893056,38.0532414 36.9363724,38.9990532 35.7581905,39.0060248 C34.575296,38.9992856 33.616256,38.048826 33.616256,36.8799234 C33.616256,35.7063731 34.5823651,34.7512658 35.7723287,34.7512658 L35.7723287,34.7489419 L35.7888233,34.7489419 L35.7888233,32.4250798 C34.5988596,32.4250798 33.6303942,31.4699725 33.6303942,30.2964222 C33.6303942,29.129611 34.5894342,28.1793838 35.7723287,28.1703208 C36.9505105,28.1793838 37.9071942,29.1231042 37.9142633,30.2850353 C37.9142633,30.4174954 37.9024815,30.5499555 37.8789178,30.6800918 L37.6267869,32.0532619 L52.7407389,32.0232841 L52.488608,30.6566208 C52.4648087,30.5264845 52.4532625,30.3917005 52.4532625,30.2617966 C52.460096,29.0998656 53.4170153,28.1540537 54.5951971,28.1468498 C55.7780916,28.1538214 56.7371316,29.1042809 56.7371316,30.2731836 C56.7371316,31.4467339 55.7689018,32.4016088 54.5787025,32.4016088 L54.5787025,34.7254709 C54.5836509,34.7254709 54.59072,34.723147 54.5951971,34.723147 L54.5951971,34.7280271 C55.7853964,34.7280271 56.7512698,35.6831345 56.7512698,36.8541286 C56.7512698,38.0230312 55.7922298,38.9734908 54.6093353,38.9827862 C53.4311535,38.9734908 52.4742342,38.0300028 52.4697571,36.8680717 C52.4697571,36.7356116 52.4815389,36.6029191 52.5051025,36.4730152 L52.7569978,35.0996127 L37.6126487,35.1298229 Z"></path>
                        <path d="M85.5634705,43.8020114 L77.9102585,17.4541918 C77.6846454,16.6774704 76.9730674,16.1431726 76.1642427,16.1431726 L74.1108364,16.1431726 C73.3740015,13.8574219 71.2242909,12.265344 68.7260742,12.265344 C68.4362415,12.265344 68.1497076,12.2867235 67.8671796,12.3290178 C66.7429585,8.49999029 63.1379578,5.74923476 58.9940567,5.74923476 C58.0557527,5.74923476 57.1287593,5.89354659 56.2460655,6.16450891 C55.8681047,2.80002141 52.9685993,0.174289655 49.4578531,0.174289655 C47.3291142,0.174289655 45.3266764,1.1642549 44.046464,2.80211288 C42.8091375,1.72267895 41.2065745,1.11545379 39.5281367,1.11545379 C35.81168,1.11545379 32.7811607,4.05908988 32.7031651,7.70639139 C31.2580073,7.04153446 29.6450764,6.68807503 27.9751215,6.68807503 C22.3050036,6.68807503 17.6919505,10.775516 17.6919505,15.7999382 C17.6919505,15.914737 17.6950138,16.029071 17.6997265,16.1431726 L13.9613821,16.1431726 C13.1614764,16.1431726 12.4555316,16.6659593 12.2222429,17.4310903 L4.18173964,43.8020114 L2.15127273,43.8020114 C1.14711864,43.8020114 0.333090909,44.6160391 0.333090909,45.6201932 L0.333090909,49.5972665 C0.333090909,50.6014205 1.14711864,51.4154483 2.15127273,51.4154483 L87.5854545,51.4154483 C88.5896086,51.4154483 89.4036364,50.6014205 89.4036364,49.5972665 L89.4036364,45.6201932 C89.4036364,44.6160391 88.5896086,43.8020114 87.5854545,43.8020114 L85.5634705,43.8020114 Z M12.6717178,24.0271071 L68.1885876,24.0271071 L68.1885876,21.703245 L13.3802764,21.703245 L14.3671215,18.4670347 L24.2120087,18.4670347 L24.2120087,16.1431726 L20.0641018,16.1431726 C20.057504,16.0288386 20.0483142,15.9152018 20.0483142,15.7999382 C20.0483142,12.057126 23.6043025,9.0119371 27.9751215,9.0119371 C30.1038604,9.0119371 32.1039418,9.72884855 33.6091869,11.0325352 C34.233152,11.5700445 34.7480175,12.1967901 35.1396451,12.8951106 L37.2016989,11.7703614 C36.7238284,10.9182012 36.1095244,10.148538 35.3776378,9.47833622 C35.1681571,8.96383316 35.0562298,8.41819034 35.0562298,7.85000607 C35.0562298,5.41785203 37.0624378,3.43931586 39.528608,3.43931586 C40.8276713,3.43931586 42.0574575,3.99169788 42.911168,4.96446654 C43.0221527,5.08832839 43.1333731,5.23217545 43.2497775,5.40135261 L43.25072,5.41180999 L43.2568465,5.41134521 C43.258496,5.41390146 43.2603811,5.41599294 43.2620305,5.41854919 L43.2754618,5.40971851 L45.3250269,5.21683796 L45.3247913,5.21497887 L45.3264407,5.21544364 C45.3997236,5.04208353 45.4862022,4.8708149 45.5863476,4.70187012 C46.3832698,3.3426432 47.867072,2.49815172 49.4583244,2.49815172 C51.9259084,2.49815172 53.9328233,4.47784982 53.9328233,6.91116579 C53.9328233,7.02549981 53.9259898,7.13913666 53.9172713,7.25277352 C52.2623971,8.32523586 50.9916102,9.89942003 50.3094429,11.7443341 L52.5234822,12.5402569 C53.0833542,11.0260284 54.1741149,9.75487581 55.6013644,8.95755873 C56.6230836,8.37891708 57.7963171,8.07309683 58.994528,8.07309683 C62.4176175,8.07309683 65.3479913,10.5912338 65.8105455,13.9308559 L65.9500422,14.9354615 L66.98048,14.9354615 L67.2184727,14.9354615 L67.4376145,14.8443661 C67.8452655,14.6749566 68.279072,14.5892061 68.7267811,14.5892061 C69.9099113,14.5892061 70.9589644,15.2008466 71.5428713,16.1431726 L26.9215913,16.1431726 L26.9215913,18.4670347 L75.7532218,18.4670347 L76.6931753,21.703245 L71.7778007,21.703245 L71.7778007,24.0271071 L77.3682735,24.0271071 L83.0409833,43.5570763 L6.71718691,43.5570763 L12.6717178,24.0271071 Z M87.0472727,49.0915862 L2.68945455,49.0915862 L2.68945455,46.1258734 L87.0472727,46.1258734 L87.0472727,49.0915862 Z"></path>
                    </g>
                </g>
            </g>
        </g>
    </g>
</svg>