<?xml version="1.0" encoding="UTF-8" standalone="no"?>
<svg width="160px" height="160px" viewBox="0 0 160 160" version="1.1" xmlns="http://www.w3.org/2000/svg" xmlns:xlink="http://www.w3.org/1999/xlink">
    <!-- Generator: Sketch 50.2 (55047) - http://www.bohemiancoding.com/sketch -->
    <title>tile / request / dressesandskirts</title>
    <desc>Created with Sketch.</desc>
    <defs></defs>
    <g id="tile-/-request-/-dressesandskirts" stroke="none" stroke-width="1" fill="none" fill-rule="evenodd">
        <g id="noun_dress_644779" transform="translate(25.000000, 40.000000)" fill="#A13604" fill-rule="nonzero">
            <path d="M25.277693,23.340031 C27.4280654,25.4836217 30.9073205,25.4836217 33.057693,23.340031 L34.057693,22.340031 C34.6931508,21.6885978 35.6324012,21.4339258 36.5098927,21.675132 C37.3873842,21.9163382 38.0644935,22.6153177 38.277693,23.500031 L41.857693,37.220031 C42.0958125,38.1300522 42.5641729,38.9634581 43.217693,39.640031 C42.3634434,40.2671589 41.6765937,41.0948128 41.217693,42.050031 L24.787693,76.660031 C24.5407739,76.9343254 24.4052461,77.2909775 24.407693,77.660031 C24.3411723,78.3905979 24.8163138,79.0608868 25.527693,79.240031 C27.9227307,81.0384348 31.2771872,80.7951727 33.387693,78.670031 C34.5935245,77.5182789 36.4918615,77.5182789 37.697693,78.670031 C40.0619488,81.0232169 43.8834372,81.0232169 46.247693,78.670031 C47.4535245,77.5182789 49.3518615,77.5182789 50.557693,78.670031 C52.9196779,81.0287111 56.745708,81.0287111 59.107693,78.670031 C60.3135245,77.5182789 62.2118615,77.5182789 63.417693,78.670031 C65.7819488,81.0232169 69.6034372,81.0232169 71.967693,78.670031 C73.1735245,77.5182789 75.0718615,77.5182789 76.277693,78.670031 C78.3921957,80.7977827 81.7532144,81.0369403 84.147693,79.230031 C84.8504686,79.0690025 85.3304733,78.4190846 85.277693,77.700031 C85.2801399,77.3309775 85.1446121,76.9743254 84.897693,76.700031 L68.507693,42.060031 C68.0487923,41.1048128 67.3619425,40.2771589 66.507693,39.650031 C67.1612131,38.9734581 67.6295734,38.1400522 67.867693,37.230031 L71.447693,23.500031 C71.6651102,22.623644 72.3382147,21.9326009 73.2085816,21.6922138 C74.0789484,21.4518268 75.0113056,21.6994567 75.647693,22.340031 L76.647693,23.340031 C78.7980654,25.4836217 82.2773205,25.4836217 84.427693,23.340031 L88.137693,19.630031 C89.1697015,18.5985068 89.7495186,17.1991691 89.7495186,15.740031 C89.7495186,14.280893 89.1697015,12.8815552 88.137693,11.850031 L77.877693,1.61003103 C76.8483825,0.574935579 75.4474459,-0.0048865201 73.987693,3.10263375e-05 L69.427693,3.10263375e-05 C68.6900033,0.00338267324 67.9599264,0.149398039 67.277693,0.430031026 C67.1560371,0.458518014 67.0384475,0.502194156 66.927693,0.560031026 C59.037693,4.69003103 51.127693,4.69003103 42.737693,0.560031026 C42.6264652,0.505644666 42.5088923,0.465333947 42.387693,0.440031026 C41.7185975,0.160978546 41.0025542,0.0116614671 40.277693,3.10263375e-05 L35.707693,3.10263375e-05 C34.2479401,-0.0048865201 32.8470035,0.574935579 31.817693,1.61003103 L21.607693,11.840031 C19.4641023,13.9904035 19.4641023,17.4696586 21.607693,19.620031 L25.277693,23.340031 Z M81.847693,77.200031 C80.6939571,77.7445834 79.3220179,77.4998808 78.427693,76.590031 C77.2999487,75.4448839 75.759917,74.8000637 74.152693,74.8000637 C72.545469,74.8000637 71.0054372,75.4448839 69.877693,76.590031 C68.6869783,77.7788976 66.7584077,77.7788976 65.567693,76.590031 C64.4399487,75.4448839 62.899917,74.8000637 61.292693,74.8000637 C59.685469,74.8000637 58.1454372,75.4448839 57.017693,76.590031 C55.8269783,77.7788976 53.8984077,77.7788976 52.707693,76.590031 C51.5799487,75.4448839 50.039917,74.8000637 48.432693,74.8000637 C46.825469,74.8000637 45.2854372,75.4448839 44.157693,76.590031 C42.9669783,77.7788976 41.0384077,77.7788976 39.847693,76.590031 C38.7199487,75.4448839 37.179917,74.8000637 35.572693,74.8000637 C33.965469,74.8000637 32.4254372,75.4448839 31.297693,76.590031 C30.4033681,77.4998808 29.0314288,77.7445834 27.877693,77.200031 L43.897693,43.340031 C44.4804911,42.1226798 45.7080394,41.3457505 47.057693,41.340031 L62.637693,41.340031 C63.9873466,41.3457505 65.2148949,42.1226798 65.797693,43.340031 L81.847693,77.200031 Z M55.047693,6.63003103 C57.9509314,6.62331333 60.834272,6.15063454 63.587693,5.23003103 C62.0901494,8.74621212 58.6295316,11.0209764 54.8077806,11.0013217 C50.9860297,10.981667 47.5489919,8.67142903 46.087693,5.14003103 C48.9761269,6.10998842 52.0007967,6.6129748 55.047693,6.63003103 Z M23.727693,13.960031 L33.947693,3.73003103 C34.4161898,3.25957795 35.0537625,2.99662423 35.717693,3.00003103 L40.277693,3.00003103 C41.4335721,2.97124547 42.4674543,3.71498684 42.807693,4.82003103 C44.2966623,10.2500705 49.2322083,14.0144335 54.862693,14.0144335 C60.4931777,14.0144335 65.4287237,10.2500705 66.917693,4.82003103 C67.2579317,3.71498684 68.2918139,2.97124547 69.447693,3.00003103 L74.007693,3.00003103 C74.6707554,3.00102671 75.3067084,3.26331239 75.777693,3.73003103 L85.987693,13.960031 C86.4579015,14.4290523 86.7221619,15.0658947 86.7221619,15.730031 C86.7221619,16.3941673 86.4579015,17.0310097 85.987693,17.500031 L82.277693,21.210031 C81.8086717,21.6802395 81.1718293,21.9444999 80.507693,21.9444999 C79.8435567,21.9444999 79.2067143,21.6802395 78.737693,21.210031 L77.737693,20.210031 C76.3437277,18.8165103 74.3106371,18.2754669 72.4084208,18.7918123 C70.5062045,19.3081577 69.0257263,20.8029384 68.527693,22.710031 L64.977693,36.470031 C64.6908347,37.5716208 63.6960197,38.3403415 62.557693,38.340031 L47.147693,38.340031 C46.0093663,38.3403415 45.0145513,37.5716208 44.727693,36.470031 L41.147693,22.750031 C40.6496597,20.8429384 39.1691815,19.3481577 37.2669652,18.8318123 C35.3647489,18.3154669 33.3316583,18.8565103 31.937693,20.250031 L30.937693,21.250031 C30.4686717,21.7202395 29.8318293,21.9844999 29.167693,21.9844999 C28.5035567,21.9844999 27.8667143,21.7202395 27.397693,21.250031 L23.687693,17.540031 C23.2103168,17.0641311 22.9453452,16.4156241 22.9528762,15.7415973 C22.9604072,15.0675706 23.2398026,14.4251458 23.727693,13.960031 Z" id="Shape"></path>
        </g>
    </g>
</svg>