<?xml version="1.0" encoding="UTF-8" standalone="no"?>
<svg width="112px" height="112px" viewBox="0 0 112 112" version="1.1" xmlns="http://www.w3.org/2000/svg" xmlns:xlink="http://www.w3.org/1999/xlink">
    <!-- Generator: Sketch 50.2 (55047) - http://www.bohemiancoding.com/sketch -->
    <title>dressesandskirts</title>
    <desc>Created with Sketch.</desc>
    <defs></defs>
    <g id="Symbols" stroke="none" stroke-width="1" fill="none" fill-rule="evenodd">
        <g id="tile-/-request-/-dressesandskirts" transform="translate(-24.000000, -24.000000)">
            <g id="dressesandskirts" transform="translate(24.000000, 24.000000)">
                <rect id="Rectangle-5" fill="#FFFFFF" x="0" y="0" width="112" height="112"></rect>
                <path d="M29.7669814,41.1807173 C31.7092667,43.1259926 34.8518414,43.1259926 36.7941267,41.1807173 L37.6973587,40.2732327 C38.2713245,39.6820672 39.1196857,39.4509562 39.9122641,39.6698471 C40.7048425,39.888738 41.3164293,40.5230511 41.5089979,41.3259148 L44.7425686,53.7766026 C44.9576458,54.6024328 45.3806839,55.3587358 45.9709642,55.9727152 C45.1993786,56.541824 44.5789939,57.2929072 44.1645001,58.159753 L29.3243977,89.5677928 C29.1013725,89.8167108 28.9789594,90.140367 28.9811695,90.4752774 C28.9210859,91.1382555 29.3502489,91.7465323 29.9927894,91.9091029 C32.1560642,93.5411266 35.1859168,93.32037 37.0921933,91.3918367 C38.1813389,90.3466395 39.8959777,90.3466395 40.9851233,91.3918367 C43.1205949,93.5273165 46.5722857,93.5273165 48.7077573,91.3918367 C49.7969029,90.3466395 51.5115418,90.3466395 52.6006874,91.3918367 C54.7341079,93.5323024 58.1899008,93.5323024 60.3233213,91.3918367 C61.412467,90.3466395 63.1271058,90.3466395 64.2162514,91.3918367 C66.351723,93.5273165 69.8034138,93.5273165 71.9388854,91.3918367 C73.028031,90.3466395 74.7426698,90.3466395 75.8318155,91.3918367 C77.7417021,93.3227384 80.7774818,93.5397703 82.9402516,91.9000281 C83.5750211,91.7538972 84.0085767,91.1641067 83.9609038,90.5115767 C83.9631139,90.1766664 83.8407009,89.8530101 83.6176756,89.6040922 L68.8137025,58.1688278 C68.3992087,57.3019821 67.778824,56.5508989 67.0072384,55.9817901 C67.5975187,55.3678106 68.0205568,54.6115076 68.235634,53.7856775 L71.4692047,41.3259148 C71.6655829,40.5306072 72.2735525,39.9034962 73.0596957,39.6853487 C73.8458389,39.4672011 74.6879738,39.6919215 75.2627793,40.2732327 L76.1660113,41.1807173 C78.1082966,43.1259926 81.2508713,43.1259926 83.1931566,41.1807173 L86.5441475,37.8139496 C87.4762906,36.8778574 88,35.60798 88,34.2838348 C88,32.9596896 87.4762906,31.6898122 86.5441475,30.7537199 L77.2769867,21.4610783 C76.3472805,20.5217451 75.0819097,19.9955656 73.7634141,20.0000282 L69.644676,20.0000282 C68.978371,20.0030697 68.3189422,20.1355764 67.7027271,20.3902465 C67.5928436,20.416098 67.4866329,20.4557334 67.3865959,20.5082195 C60.2600951,24.2561306 53.1155296,24.2561306 45.5374128,20.5082195 C45.4369483,20.4588647 45.3307527,20.4222834 45.2212816,20.3993214 C44.6169331,20.1460855 43.9701799,20.0105826 43.315462,20.0000282 L39.1876916,20.0000282 C37.869196,19.9955656 36.6038252,20.5217451 35.674119,21.4610783 L26.4521198,30.7446451 C24.5159601,32.6960748 24.5159601,35.853445 26.4521198,37.8048748 L29.7669814,41.1807173 Z M80.8628179,90.0578345 C79.8207267,90.5520074 78.5815473,90.3299435 77.7737643,89.5042689 C76.7551496,88.4650656 75.3641436,87.8799012 73.9124474,87.8799012 C72.4607512,87.8799012 71.0697451,88.4650656 70.0511304,89.5042689 C68.9756387,90.5831469 67.233692,90.5831469 66.1582003,89.5042689 C65.1395856,88.4650656 63.7485795,87.8799012 62.2968833,87.8799012 C60.8451871,87.8799012 59.4541811,88.4650656 58.4355664,89.5042689 C57.3600747,90.5831469 55.618128,90.5831469 54.5426363,89.5042689 C53.5240215,88.4650656 52.1330155,87.8799012 50.6813193,87.8799012 C49.2296231,87.8799012 47.8386171,88.4650656 46.8200023,89.5042689 C45.7445106,90.5831469 44.0025639,90.5831469 42.9270722,89.5042689 C41.9084575,88.4650656 40.5174515,87.8799012 39.0657553,87.8799012 C37.614059,87.8799012 36.223053,88.4650656 35.2044383,89.5042689 C34.3966554,90.3299435 33.1574759,90.5520074 32.1153847,90.0578345 L46.585162,59.330408 C47.1115639,58.2256806 48.2203249,57.5206293 49.4393752,57.5154389 L63.5117304,57.5154389 C64.7307808,57.5206293 65.8395418,58.2256806 66.3659437,59.330408 L80.8628179,90.0578345 Z M56.6561992,26.0166506 C59.2784972,26.0105544 61.8828228,25.5816057 64.3698009,24.7461723 C63.0171715,27.9370523 59.8914306,30.0013657 56.4395027,29.9835293 C52.9875748,29.965693 49.8831322,27.8691878 48.5632402,24.6644987 C51.1721662,25.54472 53.9041449,26.0011724 56.6561992,26.0166506 Z M28.3669717,32.6685123 L37.5980032,23.3849455 C38.0211645,22.9580166 38.5970406,22.7193902 39.1967239,22.7224818 L43.315462,22.7224818 C44.359489,22.6963593 45.2933246,23.3712931 45.6006391,24.3741036 C46.9455239,29.3017805 51.4034671,32.7178817 56.4891013,32.7178817 C61.5747355,32.7178817 66.0326788,29.3017805 67.3775636,24.3741036 C67.6848781,23.3712931 68.6187136,22.6963593 69.6627406,22.7224818 L73.7814787,22.7224818 C74.380378,22.7233853 74.954791,22.9614055 75.3801994,23.3849455 L84.6021986,32.6685123 C85.026906,33.0941419 85.2655944,33.6720665 85.2655944,34.2747599 C85.2655944,34.8774534 85.026906,35.455378 84.6021986,35.8810076 L81.2512077,39.2477752 C80.8275726,39.6744821 80.2523562,39.9142944 79.652487,39.9142944 C79.0526178,39.9142944 78.4774014,39.6744821 78.0537663,39.2477752 L77.1505342,38.3402907 C75.8914601,37.0756921 74.0551076,36.5847037 72.3369648,37.0532791 C70.6188221,37.5218545 69.2816068,38.878345 68.8317671,40.609002 L65.6252934,53.0959892 C65.3661938,54.0956649 64.467645,54.7932671 63.4394719,54.7929853 L49.5206661,54.7929853 C48.492493,54.7932671 47.5939442,54.0956649 47.3348446,53.0959892 L44.1012739,40.6453014 C43.6514342,38.9146443 42.3142189,37.5581539 40.5960762,37.0895785 C38.8779335,36.621003 37.0415809,37.1119915 35.7825068,38.37659 L34.8792748,39.2840746 C34.4556397,39.7107815 33.8804232,39.9505938 33.280554,39.9505938 C32.6806849,39.9505938 32.1054684,39.7107815 31.6818333,39.2840746 L28.3308425,35.9173069 C27.899661,35.4854351 27.6603301,34.896925 27.6671324,34.2852562 C27.6739347,33.6735873 27.9262936,33.0905968 28.3669717,32.6685123 Z" id="Shape" fill="#A13604" fill-rule="nonzero"></path>
            </g>
        </g>
    </g>
</svg>