<?xml version="1.0" encoding="UTF-8" standalone="no"?>
<svg width="160px" height="160px" viewBox="0 0 160 160" version="1.1" xmlns="http://www.w3.org/2000/svg" xmlns:xlink="http://www.w3.org/1999/xlink">
    <!-- Generator: Sketch 50.2 (55047) - http://www.bohemiancoding.com/sketch -->
    <title>tile / request / femininehygiene</title>
    <desc>Created with Sketch.</desc>
    <defs></defs>
    <g id="tile-/-request-/-femininehygiene" stroke="none" stroke-width="1" fill="none" fill-rule="evenodd">
        <g id="noun_pad_674574" transform="translate(47.000000, 30.000000)" fill="#A13604" fill-rule="nonzero">
            <g id="Group" transform="translate(13.000000, 8.000000)">
                <path d="M36.5763158,42.5 C36.5763158,37.71875 37.5473684,32.5125 39.5973684,27.30625 C40.6763158,24.33125 41.1078947,21.25 40.7842105,18.0625 C39.8131579,8.7125 32.2605263,1.275 22.7657895,0.2125 C16.9394737,-0.425 11.1131579,1.38125 6.79736842,5.20625 C2.48157895,9.03125 -3.55271368e-15,14.45 -3.55271368e-15,20.1875 C-3.55271368e-15,22.7375 0.431578947,25.18125 1.40263158,27.51875 C3.34473684,32.40625 4.31578947,37.50625 4.31578947,42.5 C4.31578947,47.28125 3.34473684,52.4875 1.29473684,57.69375 C0.215789474,60.66875 -0.215789474,63.75 0.107894737,66.9375 C1.07894737,76.2875 8.63157895,83.725 18.1263158,84.7875 C18.8815789,84.89375 19.6368421,84.89375 20.3921053,84.89375 C25.4631579,84.89375 30.3184211,83.0875 34.0947368,79.79375 C38.4105263,75.96875 40.8921053,70.55 40.8921053,64.8125 C40.8921053,62.2625 40.4605263,59.81875 39.4894737,57.48125 C37.5473684,52.59375 36.5763158,47.49375 36.5763158,42.5 Z M31.9368421,77.45625 C28.2684211,80.75 23.5210526,82.2375 18.45,81.70625 C10.4657895,80.85625 4.1,74.5875 3.34473684,66.725 C3.02105263,64.06875 3.34473684,61.4125 4.31578947,58.96875 C6.47368421,53.3375 7.55263158,47.8125 7.55263158,42.60625 C7.55263158,37.1875 6.47368421,31.76875 4.42368421,26.45625 C3.66842105,24.4375 3.34473684,22.3125 3.34473684,20.1875 C3.34473684,15.40625 5.39473684,10.73125 9.06315789,7.54375 C12.3,4.675 16.2921053,3.1875 20.5,3.1875 C21.1473684,3.1875 21.7947368,3.1875 22.4421053,3.29375 C30.4263158,4.14375 36.7921053,10.4125 37.5473684,18.275 C37.8710526,20.93125 37.5473684,23.5875 36.5763158,26.03125 C34.4184211,31.6625 33.3394737,37.1875 33.3394737,42.39375 C33.3394737,47.8125 34.4184211,53.23125 36.4684211,58.54375 C37.2236842,60.45625 37.6552632,62.58125 37.6552632,64.70625 C37.6552632,69.59375 35.6052632,74.1625 31.9368421,77.45625 Z" id="Shape"></path>
                <path d="M9.17105263,21.8875 C10.0342105,21.8875 10.7894737,21.14375 10.7894737,20.29375 C10.7894737,19.975 10.8973684,11.58125 20.5,11.58125 C29.8868421,11.58125 30.2105263,19.3375 30.2105263,20.29375 C30.2105263,21.14375 30.9657895,21.8875 31.8289474,21.8875 C32.6921053,21.8875 33.4473684,21.14375 33.4473684,20.29375 C33.4473684,20.1875 33.4473684,17.31875 31.8289474,14.45 C30.3184211,11.6875 27.1894737,8.5 20.5,8.5 C7.76842105,8.5 7.55263158,20.29375 7.55263158,20.4 C7.55263158,21.14375 8.30789474,21.8875 9.17105263,21.8875 Z" id="Shape"></path>
                <path d="M31.8289474,63.9625 C30.9657895,63.9625 30.2105263,64.70625 30.2105263,65.55625 C30.2105263,65.875 30.1026316,74.26875 20.5,74.26875 C11.1131579,74.26875 10.7894737,66.5125 10.7894737,65.55625 C10.7894737,64.70625 10.0342105,63.9625 9.17105263,63.9625 C8.30789474,63.9625 7.55263158,64.6 7.55263158,65.55625 C7.55263158,65.6625 7.55263158,68.53125 9.17105263,71.4 C10.6815789,74.1625 13.8105263,77.35 20.5,77.35 C33.2315789,77.35 33.4473684,65.55625 33.4473684,65.45 C33.4473684,64.6 32.6921053,63.9625 31.8289474,63.9625 Z" id="Shape"></path>
                <path d="M10.7894737,55.99375 C11.0052632,55.99375 11.1131579,56.1 11.3289474,56.1 C11.9763158,56.1 12.6236842,55.675 12.8394737,55.0375 C16.7236842,43.24375 13.0552632,31.45 12.8394737,30.91875 C12.5157895,30.06875 11.6526316,29.64375 10.7894737,29.85625 C9.92631579,30.175 9.49473684,31.025 9.71052632,31.875 C9.71052632,31.98125 13.2710526,43.24375 9.71052632,53.975 C9.49473684,54.825 9.92631579,55.675 10.7894737,55.99375 Z" id="Shape"></path>
                <path d="M29.7789474,29.85625 C28.9157895,29.5375 28.0526316,30.06875 27.7289474,30.91875 C23.8447368,42.7125 27.5131579,54.50625 27.7289474,55.0375 C27.9447368,55.675 28.5921053,56.1 29.2394737,56.1 C29.4552632,56.1 29.5631579,56.1 29.7789474,55.99375 C30.6421053,55.78125 31.0736842,54.825 30.8578947,53.975 C30.8578947,53.86875 27.2973684,42.60625 30.8578947,31.875 C31.0736842,31.025 30.6421053,30.06875 29.7789474,29.85625 Z" id="Shape"></path>
            </g>
        </g>
    </g>
</svg>