<?xml version="1.0" encoding="UTF-8" standalone="no"?>
<svg width="112px" height="112px" viewBox="0 0 112 112" version="1.1" xmlns="http://www.w3.org/2000/svg" xmlns:xlink="http://www.w3.org/1999/xlink">
    <!-- Generator: Sketch 50.2 (55047) - http://www.bohemiancoding.com/sketch -->
    <title>femininehygiene</title>
    <desc>Created with Sketch.</desc>
    <defs></defs>
    <g id="Symbols" stroke="none" stroke-width="1" fill="none" fill-rule="evenodd">
        <g id="tile-/-request-/-femininehygiene" transform="translate(-24.000000, -24.000000)">
            <g id="femininehygiene" transform="translate(24.000000, 24.000000)">
                <rect id="Rectangle-5" fill="#FFFFFF" x="0" y="0" width="112" height="112"></rect>
                <g id="noun_pad_674574" transform="translate(37.000000, 15.000000)">
                    <g id="Group" transform="translate(0.350000, 0.600000)"></g>
                </g>
                <path d="M72.0975,55.975 C72.0975,51.4328125 73.02,46.486875 74.9675,41.5409375 C75.9925,38.7146875 76.4025,35.7875 76.095,32.759375 C75.1725,23.876875 67.9975,16.81125 58.9775,15.801875 C53.4425,15.19625 47.9075,16.9121875 43.8075,20.5459375 C39.7075,24.1796875 37.35,29.3275 37.35,34.778125 C37.35,37.200625 37.76,39.5221875 38.6825,41.7428125 C40.5275,46.3859375 41.45,51.2309375 41.45,55.975 C41.45,60.5171875 40.5275,65.463125 38.58,70.4090625 C37.555,73.2353125 37.145,76.1625 37.4525,79.190625 C38.375,88.073125 45.55,95.13875 54.57,96.148125 C55.2875,96.2490625 56.005,96.2490625 56.7225,96.2490625 C61.54,96.2490625 66.1525,94.533125 69.74,91.4040625 C73.84,87.7703125 76.1975,82.6225 76.1975,77.171875 C76.1975,74.749375 75.7875,72.4278125 74.865,70.2071875 C73.02,65.5640625 72.0975,60.7190625 72.0975,55.975 Z M67.69,89.1834375 C64.205,92.3125 59.695,93.725625 54.8775,93.2209375 C47.2925,92.4134375 41.245,86.458125 40.5275,78.98875 C40.22,76.4653125 40.5275,73.941875 41.45,71.6203125 C43.5,66.270625 44.525,61.021875 44.525,56.0759375 C44.525,50.928125 43.5,45.7803125 41.5525,40.7334375 C40.835,38.815625 40.5275,36.796875 40.5275,34.778125 C40.5275,30.2359375 42.475,25.7946875 45.96,22.7665625 C49.035,20.04125 52.8275,18.628125 56.825,18.628125 C57.44,18.628125 58.055,18.628125 58.67,18.7290625 C66.255,19.5365625 72.3025,25.491875 73.02,32.96125 C73.3275,35.4846875 73.02,38.008125 72.0975,40.3296875 C70.0475,45.679375 69.0225,50.928125 69.0225,55.8740625 C69.0225,61.021875 70.0475,66.1696875 71.995,71.2165625 C72.7125,73.0334375 73.1225,75.0521875 73.1225,77.0709375 C73.1225,81.7140625 71.175,86.054375 67.69,89.1834375 Z" id="Shape" fill="#A13604" fill-rule="nonzero"></path>
                <path d="M46.0625,36.393125 C46.8825,36.393125 47.6,35.6865625 47.6,34.8790625 C47.6,34.57625 47.7025,26.6021875 56.825,26.6021875 C65.7425,26.6021875 66.05,33.970625 66.05,34.8790625 C66.05,35.6865625 66.7675,36.393125 67.5875,36.393125 C68.4075,36.393125 69.125,35.6865625 69.125,34.8790625 C69.125,34.778125 69.125,32.0528125 67.5875,29.3275 C66.1525,26.703125 63.18,23.675 56.825,23.675 C44.73,23.675 44.525,34.8790625 44.525,34.98 C44.525,35.6865625 45.2425,36.393125 46.0625,36.393125 Z" id="Shape" fill="#A13604" fill-rule="nonzero"></path>
                <path d="M67.5875,76.364375 C66.7675,76.364375 66.05,77.0709375 66.05,77.8784375 C66.05,78.18125 65.9475,86.1553125 56.825,86.1553125 C47.9075,86.1553125 47.6,78.786875 47.6,77.8784375 C47.6,77.0709375 46.8825,76.364375 46.0625,76.364375 C45.2425,76.364375 44.525,76.97 44.525,77.8784375 C44.525,77.979375 44.525,80.7046875 46.0625,83.43 C47.4975,86.054375 50.47,89.0825 56.825,89.0825 C68.92,89.0825 69.125,77.8784375 69.125,77.7775 C69.125,76.97 68.4075,76.364375 67.5875,76.364375 Z" id="Shape" fill="#A13604" fill-rule="nonzero"></path>
                <path d="M47.6,68.7940625 C47.805,68.7940625 47.9075,68.895 48.1125,68.895 C48.7275,68.895 49.3425,68.49125 49.5475,67.885625 C53.2375,56.6815625 49.7525,45.4775 49.5475,44.9728125 C49.24,44.1653125 48.42,43.7615625 47.6,43.9634375 C46.78,44.26625 46.37,45.07375 46.575,45.88125 C46.575,45.9821875 49.9575,56.6815625 46.575,66.87625 C46.37,67.68375 46.78,68.49125 47.6,68.7940625 Z" id="Shape" fill="#A13604" fill-rule="nonzero"></path>
                <path d="M65.64,43.9634375 C64.82,43.660625 64,44.1653125 63.6925,44.9728125 C60.0025,56.176875 63.4875,67.3809375 63.6925,67.885625 C63.8975,68.49125 64.5125,68.895 65.1275,68.895 C65.3325,68.895 65.435,68.895 65.64,68.7940625 C66.46,68.5921875 66.87,67.68375 66.665,66.87625 C66.665,66.7753125 63.2825,56.0759375 66.665,45.88125 C66.87,45.07375 66.46,44.1653125 65.64,43.9634375 Z" id="Shape" fill="#A13604" fill-rule="nonzero"></path>
            </g>
        </g>
    </g>
</svg>