<?xml version="1.0" encoding="UTF-8" standalone="no"?>
<svg width="160px" height="160px" viewBox="0 0 160 160" version="1.1" xmlns="http://www.w3.org/2000/svg" xmlns:xlink="http://www.w3.org/1999/xlink">
    <!-- Generator: Sketch 50.2 (55047) - http://www.bohemiancoding.com/sketch -->
    <title>tile / request / hat</title>
    <desc>Created with Sketch.</desc>
    <defs></defs>
    <g id="tile-/-request-/-hat" stroke="none" stroke-width="1" fill="none" fill-rule="evenodd">
        <g id="noun_Cap_644777" transform="translate(30.000000, 45.000000)" fill="#A13604" fill-rule="nonzero">
            <path d="M22.525,69.6359322 L73.8225,69.6359322 C75.9349892,69.6359322 77.6475,67.9234214 77.6475,65.8109322 L77.6475,53.5539322 C77.6475,51.441443 75.9349892,49.7289322 73.8225,49.7289322 L73.3805,49.7289322 L73.3805,42.2064322 C73.3643143,30.5036959 65.3073868,20.346338 53.9155,17.6669322 C57.3379637,15.1796087 58.7697189,10.7714887 57.4620247,6.74781229 C56.1543305,2.72413587 52.4045934,0 48.17375,0 C43.9429066,0 40.1931695,2.72413587 38.8854753,6.74781229 C37.5777811,10.7714887 39.0095363,15.1796087 42.432,17.6669322 C31.0401132,20.346338 22.9831857,30.5036959 22.967,42.2064322 L22.967,49.7629322 L22.525,49.7629322 C20.4125108,49.7629322 18.7,51.475443 18.7,53.5879322 L18.7,65.8109322 C18.7,66.8253853 19.1029899,67.798289 19.8203166,68.5156157 C20.5376432,69.2329423 21.5105469,69.6359322 22.525,69.6359322 Z M40.953,9.79593222 C40.9483083,5.81037338 44.1754378,2.57563572 48.1609967,2.57094223 C52.1465555,2.56624874 55.3812947,5.79337674 55.38599,9.77893556 C55.3906853,13.7644944 52.1635588,16.999235 48.178,17.0039322 C44.1943788,16.9992484 40.9661839,13.7710534 40.9615,9.78743222 L40.953,9.79593222 Z M25.517,42.2064322 C25.517,29.6934547 35.6607725,19.5496822 48.17375,19.5496822 C60.6867275,19.5496822 70.8305,29.6934547 70.8305,42.2064322 L70.8305,49.7629322 L25.517,49.7629322 L25.517,42.2064322 Z M21.25,53.5539322 C21.25,52.8497692 21.8208369,52.2789322 22.525,52.2789322 L73.8225,52.2789322 C74.5266631,52.2789322 75.0975,52.8497692 75.0975,53.5539322 L75.0975,65.8109322 C75.0975,66.5150953 74.5266631,67.0859322 73.8225,67.0859322 L22.525,67.0859322 C21.8208369,67.0859322 21.25,66.5150953 21.25,65.8109322 L21.25,53.5539322 Z" id="Shape"></path>
            <path d="M26.775,64.0645 C27.4791631,64.0645 28.05,63.4936631 28.05,62.7895 L28.05,56.525 C28.05,55.8208369 27.4791631,55.25 26.775,55.25 C26.0708369,55.25 25.5,55.8208369 25.5,56.525 L25.5,62.7895 C25.5,63.4936631 26.0708369,64.0645 26.775,64.0645 Z" id="Shape"></path>
            <path d="M34.425,64.0645 C35.1291631,64.0645 35.7,63.4936631 35.7,62.7895 L35.7,56.525 C35.7,55.8208369 35.1291631,55.25 34.425,55.25 C33.7208369,55.25 33.15,55.8208369 33.15,56.525 L33.15,62.7895 C33.15,63.4936631 33.7208369,64.0645 34.425,64.0645 Z" id="Shape"></path>
            <path d="M41.225,64.0645 C41.9291631,64.0645 42.5,63.4936631 42.5,62.7895 L42.5,56.525 C42.5,55.8208369 41.9291631,55.25 41.225,55.25 C40.5208369,55.25 39.95,55.8208369 39.95,56.525 L39.95,62.7895 C39.95,63.4936631 40.5208369,64.0645 41.225,64.0645 Z" id="Shape"></path>
            <path d="M48.875,64.0645 C49.5791631,64.0645 50.15,63.4936631 50.15,62.7895 L50.15,56.525 C50.15,55.8208369 49.5791631,55.25 48.875,55.25 C48.1708369,55.25 47.6,55.8208369 47.6,56.525 L47.6,62.7895 C47.6,63.4936631 48.1708369,64.0645 48.875,64.0645 Z" id="Shape"></path>
            <path d="M55.675,64.0645 C56.3791631,64.0645 56.95,63.4936631 56.95,62.7895 L56.95,56.525 C56.95,55.8208369 56.3791631,55.25 55.675,55.25 C54.9708369,55.25 54.4,55.8208369 54.4,56.525 L54.4,62.7895 C54.4,63.4936631 54.9708369,64.0645 55.675,64.0645 Z" id="Shape"></path>
            <path d="M63.325,64.0645 C64.0291631,64.0645 64.6,63.4936631 64.6,62.7895 L64.6,56.525 C64.6,55.8208369 64.0291631,55.25 63.325,55.25 C62.6208369,55.25 62.05,55.8208369 62.05,56.525 L62.05,62.7895 C62.05,63.4936631 62.6208369,64.0645 63.325,64.0645 Z" id="Shape"></path>
            <path d="M70.125,64.0645 C70.8291631,64.0645 71.4,63.4936631 71.4,62.7895 L71.4,56.525 C71.4,55.8208369 70.8291631,55.25 70.125,55.25 C69.4208369,55.25 68.85,55.8208369 68.85,56.525 L68.85,62.7895 C68.85,63.4936631 69.4208369,64.0645 70.125,64.0645 Z" id="Shape"></path>
            <path d="M46.9285,22.95 C39.7921694,22.9593653 34.0093653,28.7421694 34,35.8785 C34,36.5826631 34.5708369,37.1535 35.275,37.1535 C35.9791631,37.1535 36.55,36.5826631 36.55,35.8785 C36.5546871,30.1485553 41.1985553,25.5046871 46.9285,25.5 C47.6326631,25.5 48.2035,24.9291631 48.2035,24.225 C48.2035,23.5208369 47.6326631,22.95 46.9285,22.95 Z" id="Shape"></path>
        </g>
    </g>
</svg>