<?xml version="1.0" encoding="UTF-8" standalone="no"?>
<svg width="112px" height="112px" viewBox="0 0 112 112" version="1.1" xmlns="http://www.w3.org/2000/svg" xmlns:xlink="http://www.w3.org/1999/xlink">
    <!-- Generator: Sketch 50.2 (55047) - http://www.bohemiancoding.com/sketch -->
    <title>hats</title>
    <desc>Created with Sketch.</desc>
    <defs></defs>
    <g id="Symbols" stroke="none" stroke-width="1" fill="none" fill-rule="evenodd">
        <g id="tile-/-request-/-hats" transform="translate(-24.000000, -24.000000)">
            <g id="hats" transform="translate(24.000000, 24.000000)">
                <rect id="Rectangle-5" fill="#FFFFFF" x="0" y="0" width="112" height="112"></rect>
                <g id="noun_Cap_644777" transform="translate(24.000000, 21.000000)" fill="#A13604" fill-rule="nonzero">
                    <path d="M4.525,69.6359322 L55.8225,69.6359322 C57.9349892,69.6359322 59.6475,67.9234214 59.6475,65.8109322 L59.6475,53.5539322 C59.6475,51.441443 57.9349892,49.7289322 55.8225,49.7289322 L55.3805,49.7289322 L55.3805,42.2064322 C55.3643143,30.5036959 47.3073868,20.346338 35.9155,17.6669322 C39.3379637,15.1796087 40.7697189,10.7714887 39.4620247,6.74781229 C38.1543305,2.72413587 34.4045934,0 30.17375,0 C25.9429066,0 22.1931695,2.72413587 20.8854753,6.74781229 C19.5777811,10.7714887 21.0095363,15.1796087 24.432,17.6669322 C13.0401132,20.346338 4.98318574,30.5036959 4.967,42.2064322 L4.967,49.7629322 L4.525,49.7629322 C2.41251083,49.7629322 0.7,51.475443 0.7,53.5879322 L0.7,65.8109322 C0.7,66.8253853 1.10298991,67.798289 1.82031656,68.5156157 C2.53764321,69.2329423 3.51054693,69.6359322 4.525,69.6359322 Z M22.953,9.79593222 C22.9483083,5.81037338 26.1754378,2.57563572 30.1609967,2.57094223 C34.1465555,2.56624874 37.3812947,5.79337674 37.38599,9.77893556 C37.3906853,13.7644944 34.1635588,16.999235 30.178,17.0039322 C26.1943788,16.9992484 22.9661839,13.7710534 22.9615,9.78743222 L22.953,9.79593222 Z M7.517,42.2064322 C7.517,29.6934547 17.6607725,19.5496822 30.17375,19.5496822 C42.6867275,19.5496822 52.8305,29.6934547 52.8305,42.2064322 L52.8305,49.7629322 L7.517,49.7629322 L7.517,42.2064322 Z M3.25,53.5539322 C3.25,52.8497692 3.82083694,52.2789322 4.525,52.2789322 L55.8225,52.2789322 C56.5266631,52.2789322 57.0975,52.8497692 57.0975,53.5539322 L57.0975,65.8109322 C57.0975,66.5150953 56.5266631,67.0859322 55.8225,67.0859322 L4.525,67.0859322 C3.82083694,67.0859322 3.25,66.5150953 3.25,65.8109322 L3.25,53.5539322 Z" id="Shape"></path>
                    <path d="M8.775,64.0645 C9.47916306,64.0645 10.05,63.4936631 10.05,62.7895 L10.05,56.525 C10.05,55.8208369 9.47916306,55.25 8.775,55.25 C8.07083694,55.25 7.5,55.8208369 7.5,56.525 L7.5,62.7895 C7.5,63.4936631 8.07083694,64.0645 8.775,64.0645 Z" id="Shape"></path>
                    <path d="M16.425,64.0645 C17.1291631,64.0645 17.7,63.4936631 17.7,62.7895 L17.7,56.525 C17.7,55.8208369 17.1291631,55.25 16.425,55.25 C15.7208369,55.25 15.15,55.8208369 15.15,56.525 L15.15,62.7895 C15.15,63.4936631 15.7208369,64.0645 16.425,64.0645 Z" id="Shape"></path>
                    <path d="M23.225,64.0645 C23.9291631,64.0645 24.5,63.4936631 24.5,62.7895 L24.5,56.525 C24.5,55.8208369 23.9291631,55.25 23.225,55.25 C22.5208369,55.25 21.95,55.8208369 21.95,56.525 L21.95,62.7895 C21.95,63.4936631 22.5208369,64.0645 23.225,64.0645 Z" id="Shape"></path>
                    <path d="M30.875,64.0645 C31.5791631,64.0645 32.15,63.4936631 32.15,62.7895 L32.15,56.525 C32.15,55.8208369 31.5791631,55.25 30.875,55.25 C30.1708369,55.25 29.6,55.8208369 29.6,56.525 L29.6,62.7895 C29.6,63.4936631 30.1708369,64.0645 30.875,64.0645 Z" id="Shape"></path>
                    <path d="M37.675,64.0645 C38.3791631,64.0645 38.95,63.4936631 38.95,62.7895 L38.95,56.525 C38.95,55.8208369 38.3791631,55.25 37.675,55.25 C36.9708369,55.25 36.4,55.8208369 36.4,56.525 L36.4,62.7895 C36.4,63.4936631 36.9708369,64.0645 37.675,64.0645 Z" id="Shape"></path>
                    <path d="M45.325,64.0645 C46.0291631,64.0645 46.6,63.4936631 46.6,62.7895 L46.6,56.525 C46.6,55.8208369 46.0291631,55.25 45.325,55.25 C44.6208369,55.25 44.05,55.8208369 44.05,56.525 L44.05,62.7895 C44.05,63.4936631 44.6208369,64.0645 45.325,64.0645 Z" id="Shape"></path>
                    <path d="M52.125,64.0645 C52.8291631,64.0645 53.4,63.4936631 53.4,62.7895 L53.4,56.525 C53.4,55.8208369 52.8291631,55.25 52.125,55.25 C51.4208369,55.25 50.85,55.8208369 50.85,56.525 L50.85,62.7895 C50.85,63.4936631 51.4208369,64.0645 52.125,64.0645 Z" id="Shape"></path>
                    <path d="M28.9285,22.95 C21.7921694,22.9593653 16.0093653,28.7421694 16,35.8785 C16,36.5826631 16.5708369,37.1535 17.275,37.1535 C17.9791631,37.1535 18.55,36.5826631 18.55,35.8785 C18.5546871,30.1485553 23.1985553,25.5046871 28.9285,25.5 C29.6326631,25.5 30.2035,24.9291631 30.2035,24.225 C30.2035,23.5208369 29.6326631,22.95 28.9285,22.95 Z" id="Shape"></path>
                </g>
            </g>
        </g>
    </g>
</svg>