<?xml version="1.0" encoding="UTF-8" standalone="no"?>
<svg width="112px" height="112px" viewBox="0 0 112 112" version="1.1" xmlns="http://www.w3.org/2000/svg" xmlns:xlink="http://www.w3.org/1999/xlink">
    <!-- Generator: Sketch 50.2 (55047) - http://www.bohemiancoding.com/sketch -->
    <title>mouthwash</title>
    <desc>Created with Sketch.</desc>
    <defs></defs>
    <g id="Symbols" stroke="none" stroke-width="1" fill="none" fill-rule="evenodd">
        <g id="tile-/-request-/-mouthwash" transform="translate(-24.000000, -24.000000)">
            <g id="mouthwash" transform="translate(24.000000, 24.000000)">
                <rect id="Rectangle-5" fill="#FFFFFF" x="0" y="0" width="112" height="112"></rect>
                <g id="noun_wash-tub_654209" transform="translate(24.000000, 24.000000)" fill="#A13604" fill-rule="nonzero">
                    <g id="Group">
                        <path d="M3.985155,35.704845 L11.861595,61.791345 C12.3370004,63.395756 13.8151212,64.4932007 15.48846,64.484145 L47.608515,64.484145 C49.2818538,64.4932007 50.7599746,63.395756 51.23538,61.791345 L59.11182,35.704845 L63.05004,22.65318 C63.2638239,21.9839434 62.8946065,21.2681139 62.22537,21.05433 C61.5561334,20.8405461 60.8403039,21.2097635 60.62652,21.879 L56.965995,34.072335 L6.13098,34.072335 L2.46204,21.879 C2.24643098,21.2296423 1.55271282,20.8702978 0.897919829,21.068789 C0.243126839,21.2672803 -0.134301723,21.9513278 0.046935,22.611105 L3.985155,35.704845 Z M56.20023,36.60525 L48.820275,61.0929 C48.6625469,61.6298195 48.168109,61.9972144 47.608515,61.993305 L15.48846,61.993305 C14.928866,61.9972144 14.4344281,61.6298195 14.2767,61.0929 L12.762,56.0439 L25.527555,56.0439 C26.2246764,56.0439 26.789805,55.4787714 26.789805,54.78165 C26.789805,54.0845286 26.2246764,53.5194 25.527555,53.5194 L12.00465,53.5194 L11.2473,50.9949 L20.5038,50.9949 C21.2009214,50.9949 21.76605,50.4297714 21.76605,49.73265 C21.76605,49.0355286 21.2009214,48.4704 20.5038,48.4704 L10.481535,48.4704 L9.724185,45.9459 L15.43797,45.9459 C16.1350914,45.9459 16.70022,45.3807714 16.70022,44.68365 C16.70022,43.9865286 16.1350914,43.4214 15.43797,43.4214 L8.95842,43.4214 L6.8715,36.596835 L56.20023,36.60525 Z" id="Shape"></path>
                        <path d="M8.630235,32.04432 L8.73963,32.04432 C9.39591388,32.0420479 9.94096591,31.5372346 9.993465,30.88305 C10.2545674,27.8956207 12.5438665,25.484179 15.513705,25.068285 C15.8910346,25.0152036 16.2241919,24.7945081 16.420238,24.4677648 C16.616284,24.1410214 16.6542354,23.7432024 16.523505,23.385285 C16.3831117,23.025702 16.308986,22.6436698 16.304715,22.257675 C16.2934787,20.6699769 17.4373582,19.3093451 19.0033799,19.0476436 C20.5694016,18.7859421 22.0935296,19.700717 22.599135,21.2058 C22.737369,21.6079013 23.0687589,21.9133855 23.4807589,22.0185048 C23.8927589,22.1236242 24.3299972,22.0142509 24.64398,21.72753 C26.5200286,20.0153296 29.2306904,19.5737107 31.5531987,20.6018855 C33.8757071,21.6300603 35.3710518,23.933679 35.36469,26.47359 L35.36469,26.70921 C35.3472619,27.1128617 35.5241161,27.5004641 35.8404192,27.7518419 C36.1567223,28.0032196 36.5742468,28.0879918 36.96354,27.979875 C39.1119833,27.3633775 41.426324,27.922783 43.056,29.4525 C43.3663242,29.7480339 43.8053957,29.8659358 44.2220194,29.765606 C44.6386431,29.6652763 44.9759075,29.3604199 45.117675,28.956015 C45.8037275,26.9716783 47.8247395,25.7750324 49.8945041,26.1276435 C51.9642687,26.4802547 53.4750476,28.2785867 53.465355,30.37815 C53.465355,30.453885 53.465355,30.521205 53.465355,30.59694 L53.465355,30.672675 C53.4470625,31.0050646 53.5635114,31.3307979 53.7883834,31.5762568 C54.0132554,31.8217157 54.3275683,31.9661801 54.660285,31.977 C55.3606797,32.0060592 55.9572163,31.4729046 56.006685,30.773655 C56.006685,30.64743 56.006685,30.51279 56.006685,30.37815 C56.0113543,27.3696208 54.0430297,24.7138517 51.1632527,23.8431312 C48.2834757,22.9724108 45.1734336,24.0927007 43.51041,26.599815 C41.818299,25.5118964 39.8056067,25.0339561 37.80504,25.245 C37.3965683,22.2395938 35.4902725,19.6470928 32.743308,18.3612073 C29.9963436,17.0753218 26.784433,17.2719317 24.214815,18.88326 C22.7569114,16.8485988 20.1511816,15.9893977 17.7689941,16.7578453 C15.3868066,17.5262928 13.7743385,19.746203 13.780215,22.24926 C13.7682848,22.4538512 13.7682848,22.6589638 13.780215,22.863555 C10.2744029,23.9326467 7.76777006,27.0218303 7.44372,30.672675 C7.413557,31.013165 7.52277606,31.3513302 7.74640501,31.6098516 C7.97003396,31.868373 8.28894992,32.025144 8.630235,32.04432 Z" id="Shape"></path>
                        <path d="M22.55706,25.9182 C19.0137598,25.1903277 15.4370763,27.0048403 13.931685,30.294 C13.7276158,30.7070847 13.764833,31.1985428 14.0287826,31.5761853 C14.2927322,31.9538278 14.7414764,32.1576531 15.1995301,32.1079534 C15.6575838,32.0582538 16.0521691,31.7629258 16.22898,31.33746 C17.2401816,29.129871 19.6387683,27.9096598 22.0185,28.39221 C22.6794709,28.4921669 23.3037561,28.0594664 23.4421462,27.4054618 C23.5805363,26.7514571 23.1850357,26.1029658 22.54023,25.926615 L22.55706,25.9182 Z" id="Shape"></path>
                        <path d="M30.18105,24.87474 C28.959362,24.1582314 27.5014815,23.9612205 26.133435,24.327765 C25.459551,24.5066928 25.0583097,25.1980335 25.2372375,25.8719175 C25.4161653,26.5458015 26.107506,26.9470428 26.78139,26.768115 C28.2825228,26.3730944 29.8196625,27.2697593 30.21471,28.770885 C30.3600298,29.3258038 30.861254,29.7129563 31.434885,29.713365 C31.5428233,29.7128886 31.6502673,29.6987512 31.754655,29.67129 C32.4282251,29.4942722 32.8311496,28.8051583 32.65506,28.131345 C32.2991503,26.7586063 31.4080947,25.5856863 30.18105,24.87474 Z" id="Shape"></path>
                        <path d="M38.19213,14.902965 C38.19213,17.1709334 40.0306816,19.009485 42.29865,19.009485 C44.5666184,19.009485 46.40517,17.1709334 46.40517,14.902965 C46.40517,12.6349966 44.5666184,10.796445 42.29865,10.796445 C40.0326019,10.8010743 38.1967593,12.6369169 38.19213,14.902965 Z M43.889085,14.902965 C43.889085,15.7766905 43.1807905,16.484985 42.307065,16.484985 C41.4333395,16.484985 40.725045,15.7766905 40.725045,14.902965 C40.725045,14.0292395 41.4333395,13.320945 42.307065,13.320945 C43.1821622,13.3209328 43.8928699,14.02788 43.8975,14.902965 L43.889085,14.902965 Z" id="Shape"></path>
                        <circle id="Oval" cx="48.00402" cy="7.901685" r="1.683"></circle>
                        <circle id="Oval" transform="translate(32.137803, 11.604201) rotate(-39.310000) translate(-32.137803, -11.604201) " cx="32.1378032" cy="11.6042007" r="1.683"></circle>
                        <path d="M39.1851,7.480935 C41.2069141,7.46238546 42.8326498,5.81162222 42.8203117,3.7897607 C42.8079736,1.76789918 41.1622127,0.137099722 39.1403228,0.14322625 C37.1184329,0.149352778 35.4825851,1.79009584 35.4825,3.811995 C35.4847154,4.79022069 35.8766003,5.72724947 36.5714633,6.41579558 C37.2663264,7.10434169 38.2068949,7.48765303 39.1851,7.480935 Z M39.1851,2.667555 C39.812443,2.68601431 40.3078798,3.20628112 40.2956631,3.83377675 C40.2834464,4.46127239 39.7681346,4.96186095 39.1405485,4.95588806 C38.5129624,4.94991518 38.0072715,4.43960949 38.007,3.811995 C38.0068661,3.50254764 38.1320503,3.20623519 38.3540105,2.99061668 C38.5759707,2.77499816 38.8757865,2.65845358 39.1851,2.667555 Z" id="Shape"></path>
                        <circle id="Oval" transform="translate(53.964189, 17.739711) rotate(-39.310000) translate(-53.964189, -17.739711) " cx="53.9641894" cy="17.7397106" r="1.683"></circle>
                    </g>
                </g>
            </g>
        </g>
    </g>
</svg>