<?xml version="1.0" encoding="UTF-8" standalone="no"?>
<svg width="160px" height="160px" viewBox="0 0 160 160" version="1.1" xmlns="http://www.w3.org/2000/svg" xmlns:xlink="http://www.w3.org/1999/xlink">
    <!-- Generator: Sketch 50.2 (55047) - http://www.bohemiancoding.com/sketch -->
    <title>tile / request / mouthwash</title>
    <desc>Created with Sketch.</desc>
    <defs></defs>
    <g id="tile-/-request-/-mouthwash" stroke="none" stroke-width="1" fill="none" fill-rule="evenodd">
        <g id="noun_wash-tub_654209" transform="translate(24.000000, 32.000000)" fill="#A13604" fill-rule="nonzero">
            <path d="M19.327,46.673 L29.623,80.773 C30.2444449,82.8702693 32.176629,84.3048375 34.364,84.293 L76.351,84.293 C78.538371,84.3048375 80.4705551,82.8702693 81.092,80.773 L91.388,46.673 L96.536,29.612 C96.815456,28.737181 96.332819,27.8014561 95.458,27.5220001 C94.583181,27.242544 93.6474561,27.725181 93.368,28.6 L88.583,44.539 L22.132,44.539 L17.336,28.6 C17.0541581,27.7511664 16.147337,27.281435 15.2913985,27.5409007 C14.4354599,27.8003664 13.9420893,28.6945462 14.179,29.557 L19.327,46.673 Z M87.582,47.85 L77.935,79.86 C77.7288195,80.5618556 77.0824954,81.0421103 76.351,81.037 L34.364,81.037 C33.6325046,81.0421103 32.9861805,80.5618556 32.78,79.86 L30.8,73.26 L47.487,73.26 C48.3982698,73.26 49.137,72.5212698 49.137,71.61 C49.137,70.6987302 48.3982698,69.96 47.487,69.96 L29.81,69.96 L28.82,66.66 L40.92,66.66 C41.8312698,66.66 42.57,65.9212698 42.57,65.01 C42.57,64.0987302 41.8312698,63.36 40.92,63.36 L27.819,63.36 L26.829,60.06 L34.298,60.06 C35.2092698,60.06 35.948,59.3212698 35.948,58.41 C35.948,57.4987302 35.2092698,56.76 34.298,56.76 L25.828,56.76 L23.1,47.839 L87.582,47.85 Z" id="Shape"></path>
            <path d="M25.399,41.888 L25.542,41.888 C26.3998874,41.88503 27.1123737,41.2251433 27.181,40.37 C27.5223103,36.4648636 30.5148582,33.3126523 34.397,32.769 C34.8902413,32.6996126 35.3257411,32.4111218 35.5820104,31.9840062 C35.8382797,31.5568907 35.8878894,31.0368659 35.717,30.569 C35.5334793,30.0989568 35.436583,29.5995684 35.431,29.095 C35.416312,27.0195776 36.9115794,25.240974 38.9586665,24.8988806 C41.0057537,24.5567871 42.9980779,25.7525713 43.659,27.72 C43.839698,28.2456226 44.2728874,28.6449484 44.8114495,28.7823593 C45.3500116,28.9197702 45.9215649,28.7767985 46.332,28.402 C48.7843511,26.1638296 52.3276999,25.58655 55.3636585,26.9305693 C58.3996171,28.2745887 60.3543161,31.2858549 60.346,34.606 L60.346,34.914 C60.3232182,35.4416493 60.5544001,35.9483191 60.9678682,36.2769175 C61.3813364,36.6055158 61.92712,36.7163292 62.436,36.575 C65.2444226,35.7691209 68.2697046,36.50037 70.4,38.5 C70.8056525,38.8863188 71.3796022,39.040439 71.9242084,38.9092889 C72.4688145,38.7781389 72.909683,38.3796339 73.095,37.851 C73.9918006,35.2570958 76.6336464,33.6928529 79.339221,34.1537824 C82.0447957,34.614712 84.0196701,36.9654728 84.007,39.71 C84.007,39.809 84.007,39.897 84.007,39.996 L84.007,40.095 C83.9830883,40.5294962 84.1353091,40.9552914 84.4292594,41.2761527 C84.7232097,41.597014 85.1340762,41.7858563 85.569,41.8 C86.4845486,41.8379859 87.2643351,41.1410517 87.329,40.227 C87.329,40.062 87.329,39.886 87.329,39.71 C87.3351036,35.7772822 84.7621303,32.3056885 80.9977159,31.1674918 C77.2333016,30.0292952 73.1678871,31.4937264 70.994,34.771 C68.7820902,33.3488841 66.1511198,32.7241257 63.536,33 C63.0020501,29.0713645 60.5101601,25.6824743 56.9193569,24.0015781 C53.3285537,22.320682 49.1299777,22.5776885 45.771,24.684 C43.8652437,22.0243122 40.4590609,20.9011734 37.3450903,21.9056801 C34.2311198,22.9101867 32.1233183,25.81203 32.131,29.084 C32.1154049,29.3514395 32.1154049,29.6195605 32.131,29.887 C27.548239,31.2845054 24.2715948,35.3226539 23.848,40.095 C23.8085712,40.5400849 23.9513413,40.982131 24.2436667,41.3200675 C24.5359921,41.658004 24.9528757,41.8629333 25.399,41.888 Z" id="Shape"></path>
            <path d="M43.604,33.88 C38.972235,32.928533 34.2968318,35.3004449 32.329,39.6 C32.0622429,40.13998 32.1108928,40.7824089 32.455925,41.2760592 C32.8009571,41.7697096 33.3875509,42.0361478 33.9863139,41.971181 C34.5850769,41.9062141 35.1008747,41.5201645 35.332,40.964 C36.6538321,38.0782628 39.7892396,36.4832154 42.9,37.114 C43.7640143,37.2446626 44.5800734,36.6790411 44.7609754,35.824133 C44.9418775,34.9692249 44.4248832,34.1215239 43.582,33.891 L43.604,33.88 Z" id="Shape"></path>
            <path d="M53.57,32.516 C51.9730222,31.5793875 50.0672961,31.3218569 48.279,31.801 C47.3981058,32.0348926 46.8736074,32.9386058 47.1075,33.8195 C47.3413926,34.7003942 48.2451058,35.2248926 49.126,34.991 C51.0882651,34.4746333 53.0975981,35.6467442 53.614,37.609 C53.8039605,38.3343841 54.4591555,38.8404658 55.209,38.841 C55.3500959,38.8403773 55.4905455,38.821897 55.627,38.786 C56.5074838,38.5546042 57.0341825,37.6538018 56.804,36.773 C56.3387585,34.9785703 55.17398,33.4453415 53.57,32.516 Z" id="Shape"></path>
            <path d="M64.042,19.481 C64.042,22.4456645 66.4453355,24.849 69.41,24.849 C72.3746645,24.849 74.778,22.4456645 74.778,19.481 C74.778,16.5163355 72.3746645,14.113 69.41,14.113 C66.4478457,14.1190514 64.0480514,16.5188457 64.042,19.481 Z M71.489,19.481 C71.489,20.6231249 70.5631249,21.549 69.421,21.549 C68.2788751,21.549 67.353,20.6231249 67.353,19.481 C67.353,18.3388751 68.2788751,17.413 69.421,17.413 C70.5649179,17.412984 71.4939475,18.3370981 71.5,19.481 L71.489,19.481 Z" id="Shape"></path>
            <circle id="Oval" cx="76.868" cy="10.329" r="2.2"></circle>
            <circle id="Oval" transform="translate(56.127847, 15.168890) rotate(-39.310000) translate(-56.127847, -15.168890) " cx="56.1278473" cy="15.1688898" r="2.2"></circle>
            <path d="M65.34,9.779 C67.9828942,9.75475224 70.1080389,7.59689179 70.0919107,4.95393555 C70.0757825,2.31097932 67.924461,0.179215323 65.2814677,0.187223856 C62.6384744,0.19523239 60.5001112,2.33999456 60.5,4.983 C60.502896,6.26172639 61.0151638,7.48660061 61.9234815,8.38666089 C62.8317992,9.28672117 64.0613005,9.78778174 65.34,9.779 Z M65.34,3.487 C66.1600562,3.51112982 66.807686,4.19121715 66.7917164,5.01147288 C66.7757469,5.83172861 66.1021367,6.48609275 65.2817627,6.47828505 C64.4613887,6.47047735 63.8003549,5.8034111 63.8,4.983 C63.799825,4.57849364 63.9634644,4.19115711 64.2536085,3.90930284 C64.5437526,3.62744858 64.9356686,3.47510272 65.34,3.487 Z" id="Shape"></path>
            <circle id="Oval" transform="translate(84.659071, 23.189164) rotate(-39.310000) translate(-84.659071, -23.189164) " cx="84.659071" cy="23.1891642" r="2.2"></circle>
        </g>
    </g>
</svg>