<?xml version="1.0" encoding="UTF-8" standalone="no"?>
<svg width="112px" height="112px" viewBox="0 0 112 112" version="1.1" xmlns="http://www.w3.org/2000/svg" xmlns:xlink="http://www.w3.org/1999/xlink">
    <!-- Generator: Sketch 50.2 (55047) - http://www.bohemiancoding.com/sketch -->
    <title>pants</title>
    <desc>Created with Sketch.</desc>
    <defs></defs>
    <g id="Symbols" stroke="none" stroke-width="1" fill="none" fill-rule="evenodd">
        <g id="tile-/-request-/-pants" transform="translate(-24.000000, -24.000000)">
            <g id="pants" transform="translate(24.000000, 24.000000)">
                <rect id="Rectangle-5" fill="#FFFFFF" x="0" y="0" width="112" height="112"></rect>
                <g id="noun_trousers_646400" transform="translate(29.000000, 19.000000)" fill="#A13604" fill-rule="nonzero">
                    <g id="Group">
                        <path d="M49.663,8.829 C49.6439251,8.71722643 49.6106561,8.60834597 49.564,8.505 L49.078,1.557 C49.0530751,1.19176288 48.8808883,0.852308397 48.6009086,0.616446675 C48.3209288,0.380584954 47.9571652,0.268541848 47.593,0.306 L41.914,0.9 C32.2007364,1.88159591 22.4132636,1.88159591 12.7,0.9 L7.021,0.324 C6.6568348,0.286541848 6.29307118,0.398584954 6.01309144,0.634446675 C5.7331117,0.870308397 5.56092494,1.20976288 5.536,1.575 L0.676,70.749 C0.637814515,71.3524316 1.00551597,71.9076608 1.576,72.108 C6.43934974,73.9378728 11.5989863,74.8532429 16.795,74.808 C18.6591446,74.8062447 20.5218419,74.7040968 22.375,74.502 C22.9997365,74.4354144 23.4959569,73.946656 23.572,73.323 L27.316,42.3 L31.078,73.278 C31.1576027,73.9395788 31.7080088,74.4441178 32.374,74.466 C39.2998501,74.6511047 46.217141,73.8572676 52.921,72.108 C53.5518126,71.9446092 53.9758821,71.3539409 53.929,70.704 L49.6,9.405 C49.6627255,9.21988548 49.6842274,9.02329687 49.663,8.829 Z M32.914,4.203 C36.01,4.086 39.106,3.879 42.184,3.573 L46.477,3.141 L46.81,7.893 C42.203675,8.56793564 37.5654456,9.00352065 32.914,9.198 L32.914,4.203 Z M8.146,3.132 L12.439,3.564 C18.3443345,4.1578975 24.2800965,4.39532798 30.214,4.275 L30.214,9.252 C22.7209204,9.40912763 15.2278214,8.93949186 7.813,7.848 L8.146,3.132 Z M51.157,69.795 C45.4174889,71.1997669 39.5246166,71.8800625 33.616,71.82 L28.657,30.978 C28.657,30.2324156 28.0525844,29.628 27.307,29.628 C26.5614156,29.628 25.957,30.2324156 25.957,30.978 L20.998,71.91 C15.0753766,72.5092488 9.09314275,71.8278451 3.457,69.912 L6.643,24.507 C6.71966937,24.4664028 6.79203742,24.4181574 6.859,24.363 L13.843,17.379 C14.3386459,16.8470824 14.324021,16.0181825 13.8099192,15.5040808 C13.2958175,14.989979 12.4669176,14.9753541 11.935,15.471 L6.922,20.484 L7.615,10.584 C14.1711562,11.5472805 20.7884596,12.0345547 27.415,12.042 C28.315,12.042 29.269,12.042 30.196,11.988 L30.196,17.388 C30.196,18.3025835 29.4545835,19.044 28.54,19.044 L27.361,19.044 C26.6154156,19.044 26.011,19.6484156 26.011,20.394 C26.011,21.1395844 26.6154156,21.744 27.361,21.744 L28.558,21.744 C30.9616986,21.739049 32.909049,19.7916986 32.914,17.388 L32.914,11.898 C37.6284506,11.7021826 42.3296819,11.2636013 46.999,10.584 L47.719,20.898 L42.319,15.498 C41.7870824,15.0023541 40.9581825,15.016979 40.4440808,15.5310808 C39.929979,16.0451825 39.9153541,16.8740824 40.411,17.406 L47.395,24.39 C47.5678218,24.5554681 47.782543,24.6706085 48.016,24.723 L51.157,69.795 Z" id="Shape"></path>
                        <circle id="Oval" cx="27.433" cy="6.921" r="1.269"></circle>
                    </g>
                </g>
            </g>
        </g>
    </g>
</svg>