<?xml version="1.0" encoding="UTF-8" standalone="no"?>
<svg width="160px" height="160px" viewBox="0 0 160 160" version="1.1" xmlns="http://www.w3.org/2000/svg" xmlns:xlink="http://www.w3.org/1999/xlink">
    <!-- Generator: Sketch 50.2 (55047) - http://www.bohemiancoding.com/sketch -->
    <title>tile / request / pants</title>
    <desc>Created with Sketch.</desc>
    <defs></defs>
    <g id="tile-/-request-/-pants" stroke="none" stroke-width="1" fill="none" fill-rule="evenodd">
        <g id="noun_trousers_646400" transform="translate(30.000000, 38.000000)" fill="#A13604" fill-rule="nonzero">
            <path d="M74.07,9.81 C74.0488057,9.68580715 74.0118401,9.56482885 73.96,9.45 L73.42,1.73 C73.3923056,1.32418098 73.200987,0.94700933 72.8898984,0.68494075 C72.5788098,0.422872171 72.174628,0.298379831 71.77,0.34 L65.46,1 C54.6674848,2.09066212 43.7925152,2.09066212 33,1 L26.69,0.36 C26.285372,0.318379831 25.8811902,0.442872171 25.5701016,0.70494075 C25.259013,0.96700933 25.0676944,1.34418098 25.04,1.75 L19.64,78.61 C19.5975717,79.2804796 20.0061289,79.8974009 20.64,80.12 C26.0437219,82.153192 31.7766515,83.1702699 37.55,83.12 C39.6212717,83.1180497 41.6909355,83.004552 43.75,82.78 C44.4441517,82.706016 44.9955077,82.1629511 45.08,81.47 L49.24,47 L53.42,81.42 C53.5084474,82.1550875 54.1200098,82.7156864 54.86,82.74 C62.555389,82.9456719 70.2412678,82.0636306 77.69,80.12 C78.3909029,79.9384547 78.8620913,79.2821565 78.81,78.56 L74,10.45 C74.0696951,10.2443172 74.093586,10.0258854 74.07,9.81 Z M55.46,4.67 C58.9,4.54 62.34,4.31 65.76,3.97 L70.53,3.49 L70.9,8.77 C65.7818611,9.51992848 60.6282728,10.0039118 55.46,10.22 L55.46,4.67 Z M27.94,3.48 L32.71,3.96 C39.2714828,4.61988612 45.8667739,4.88369776 52.46,4.75 L52.46,10.28 C44.134356,10.4545863 35.8086904,9.93276873 27.57,8.72 L27.94,3.48 Z M75.73,77.55 C69.3527655,79.1108521 62.8051295,79.8667361 56.24,79.8 L50.73,34.42 C50.73,33.5915729 50.0584271,32.92 49.23,32.92 C48.4015729,32.92 47.73,33.5915729 47.73,34.42 L42.22,79.9 C35.6393073,80.565832 28.9923808,79.8087168 22.73,77.68 L26.27,27.23 C26.3551882,27.184892 26.4355971,27.131286 26.51,27.07 L34.27,19.31 C34.8207177,18.7189805 34.8044678,17.7979806 34.2332436,17.2267564 C33.6620194,16.6555322 32.7410195,16.6392823 32.15,17.19 L26.58,22.76 L27.35,11.76 C34.634618,12.8303117 41.9871773,13.3717274 49.35,13.38 C50.35,13.38 51.41,13.38 52.44,13.32 L52.44,19.32 C52.44,20.3362039 51.6162039,21.16 50.6,21.16 L49.29,21.16 C48.4615729,21.16 47.79,21.8315729 47.79,22.66 C47.79,23.4884271 48.4615729,24.16 49.29,24.16 L50.62,24.16 C53.2907762,24.1544989 55.4544989,21.9907762 55.46,19.32 L55.46,13.22 C60.6982785,13.0024251 65.9218688,12.5151125 71.11,11.76 L71.91,23.22 L65.91,17.22 C65.3189805,16.6692823 64.3979806,16.6855322 63.8267564,17.2567564 C63.2555322,17.8279806 63.2392823,18.7489805 63.79,19.34 L71.55,27.1 C71.7420242,27.2838535 71.9806033,27.4117872 72.24,27.47 L75.73,77.55 Z" id="Shape"></path>
            <circle id="Oval" cx="49.37" cy="7.69" r="1.41"></circle>
        </g>
    </g>
</svg>