<?xml version="1.0" encoding="UTF-8" standalone="no"?>
<svg width="160px" height="160px" viewBox="0 0 160 160" version="1.1" xmlns="http://www.w3.org/2000/svg" xmlns:xlink="http://www.w3.org/1999/xlink">
    <!-- Generator: Sketch 50.2 (55047) - http://www.bohemiancoding.com/sketch -->
    <title>tile / request / shampoo</title>
    <desc>Created with Sketch.</desc>
    <defs></defs>
    <g id="tile-/-request-/-shampoo" stroke="none" stroke-width="1" fill="none" fill-rule="evenodd">
        <g id="noun_shampoo_1367807" transform="translate(34.000000, 33.000000)" fill="#A13604" fill-rule="nonzero">
            <g id="Group" transform="translate(24.000000, 0.000000)">
                <path d="M34.8764216,18.6069333 L34.8764216,2.05191111 C34.8764216,0.947341611 33.9809911,0.0519111111 32.8764216,0.0519111111 L10.3155243,0.0519111111 C9.21095482,0.0519111111 8.31552432,0.947341611 8.31552432,2.05191111 L8.31552432,17.9796667 L8.05437838,18.5304111 C7.88848649,18.8806889 -8.37105946,54.0184 7.39188108,94.1203556 L7.39188108,94.1203556 C7.59399338,94.6340576 8.08981873,94.9718 8.64185055,94.9718 L36.4373188,94.9718 C36.9868979,94.9718 37.4808594,94.6365051 37.6837405,94.1257444 C37.8239459,93.7733111 51.502,58.4135778 34.8764216,18.6069333 Z M17.4310162,2.74635556 L24.9111351,2.74635556 L24.9111351,6.04112222 C24.9111351,6.52827778 24.5172757,6.9249 24.0335135,6.9249 L18.3086378,6.9249 C17.8248757,6.9249 17.4310162,6.52827778 17.4310162,6.04112222 L17.4310162,2.74635556 Z M14.7553405,2.74635556 L14.7553405,6.04112222 C14.7553405,8.01453333 16.348973,9.61934444 18.3086378,9.61934444 L24.0335135,9.61934444 C25.9931784,9.61934444 27.5868108,8.01453333 27.5868108,6.04112222 L27.5868108,2.74635556 L32.2007459,2.74635556 L32.2007459,17.7641111 L10.9912,17.7641111 L10.9912,14.6008333 L19.2333514,14.6008333 L19.2333514,11.9063889 L10.9912,11.9063889 L10.9912,2.74635556 L14.7553405,2.74635556 Z M35.5068108,92.2773556 L9.54847568,92.2773556 C-3.97867027,56.8885222 7.92273514,25.6922444 10.1328432,20.4585556 L32.743373,20.4585556 C47.038973,55.5057333 37.4108216,86.7925444 35.5068108,92.2773556 Z" id="Shape"></path>
                <path d="M21.9914378,42.2835556 C14.4503135,42.2835556 8.31552432,48.4613778 8.31552432,56.0543222 C8.31552432,63.6483444 14.4503135,69.8261667 21.9914378,69.8261667 C29.5325622,69.8261667 35.6673514,63.6483444 35.6673514,56.0543222 C35.6684216,48.4613778 29.5325622,42.2835556 21.9914378,42.2835556 Z M21.9914378,67.1328 C15.9262162,67.1328 10.9912,62.1631667 10.9912,56.0554 C10.9912,49.9476333 15.9262162,44.978 21.9914378,44.978 C28.0566595,44.978 32.9916757,49.9465556 32.9916757,56.0543222 C32.9916757,62.1620889 28.0566595,67.1328 21.9914378,67.1328 Z" id="Shape"></path>
                <rect id="Rectangle-path" x="9.65336216" y="72.7124556" width="24.6772216" height="2.69444444"></rect>
                <rect id="Rectangle-path" x="9.65336216" y="36.7297667" width="24.6772216" height="2.69444444"></rect>
                <rect id="Rectangle-path" x="11.4760324" y="86.9369667" width="13.4811243" height="2.69444444"></rect>
                <rect id="Rectangle-path" x="27.7270162" y="86.9369667" width="5.35456216" height="2.69444444"></rect>
                <rect id="Rectangle-path" x="21.9914378" y="11.9063889" width="4.25860541" height="2.69444444"></rect>
            </g>
        </g>
    </g>
</svg>