<?xml version="1.0" encoding="UTF-8" standalone="no"?>
<svg width="112px" height="112px" viewBox="0 0 112 112" version="1.1" xmlns="http://www.w3.org/2000/svg" xmlns:xlink="http://www.w3.org/1999/xlink">
    <!-- Generator: Sketch 50.2 (55047) - http://www.bohemiancoding.com/sketch -->
    <title>shampoo</title>
    <desc>Created with Sketch.</desc>
    <defs></defs>
    <g id="Symbols" stroke="none" stroke-width="1" fill="none" fill-rule="evenodd">
        <g id="tile-/-request-/-shampoo" transform="translate(-24.000000, -24.000000)">
            <g id="shampoo" transform="translate(24.000000, 24.000000)">
                <rect id="Rectangle-5" fill="#FFFFFF" x="0" y="0" width="112" height="112"></rect>
                <g id="noun_shampoo_1367807" transform="translate(36.000000, 13.000000)" fill="#A13604" fill-rule="nonzero">
                    <g id="Group">
                        <path d="M31.3887795,16.74624 L31.3887795,1.84672 C31.3887795,0.85260745 30.582892,0.04672 29.5887795,0.04672 L9.28397189,0.04672 C8.28985934,0.04672 7.48397189,0.85260745 7.48397189,1.84672 L7.48397189,16.1817 L7.24894054,16.67737 C7.09963784,16.99262 -7.53395351,48.61656 6.65269297,84.70832 L6.65269297,84.70832 C6.83459404,85.1706518 7.28083686,85.47462 7.77766549,85.47462 L32.7935869,85.47462 C33.2882081,85.47462 33.7327735,85.1728546 33.9153665,84.71317 C34.0415514,84.39598 46.3518,52.57222 31.3887795,16.74624 Z M15.6879146,2.47172 L22.4200216,2.47172 L22.4200216,5.43701 C22.4200216,5.87545 22.0655481,6.23241 21.6301622,6.23241 L16.4777741,6.23241 C16.0423881,6.23241 15.6879146,5.87545 15.6879146,5.43701 L15.6879146,2.47172 Z M13.2798065,2.47172 L13.2798065,5.43701 C13.2798065,7.21308 14.7140757,8.65741 16.4777741,8.65741 L21.6301622,8.65741 C23.3938605,8.65741 24.8281297,7.21308 24.8281297,5.43701 L24.8281297,2.47172 L28.9806714,2.47172 L28.9806714,15.9877 L9.89208,15.9877 L9.89208,13.14075 L17.3100162,13.14075 L17.3100162,10.71575 L9.89208,10.71575 L9.89208,2.47172 L13.2798065,2.47172 Z M31.9561297,83.04962 L8.59362811,83.04962 C-3.58080324,51.19967 7.13046162,23.12302 9.11955892,18.4127 L29.4690357,18.4127 C42.3350757,49.95516 33.6697395,78.11329 31.9561297,83.04962 Z" id="Shape"></path>
                        <path d="M19.7922941,38.0552 C13.0052822,38.0552 7.48397189,43.61524 7.48397189,50.44889 C7.48397189,57.28351 13.0052822,62.84355 19.7922941,62.84355 C26.5793059,62.84355 32.1006162,57.28351 32.1006162,50.44889 C32.1015795,43.61524 26.5793059,38.0552 19.7922941,38.0552 Z M19.7922941,60.41952 C14.3335946,60.41952 9.89208,55.94685 9.89208,50.44986 C9.89208,44.95287 14.3335946,40.4802 19.7922941,40.4802 C25.2509935,40.4802 29.6925081,44.9519 29.6925081,50.44889 C29.6925081,55.94588 25.2509935,60.41952 19.7922941,60.41952 Z" id="Shape"></path>
                        <rect id="Rectangle-path" x="8.68802595" y="65.44121" width="22.2094995" height="2.425"></rect>
                        <rect id="Rectangle-path" x="8.68802595" y="33.05679" width="22.2094995" height="2.425"></rect>
                        <rect id="Rectangle-path" x="10.3284292" y="78.24327" width="12.1330119" height="2.425"></rect>
                        <rect id="Rectangle-path" x="24.9543146" y="78.24327" width="4.81910595" height="2.425"></rect>
                        <rect id="Rectangle-path" x="19.7922941" y="10.71575" width="3.83274486" height="2.425"></rect>
                    </g>
                </g>
            </g>
        </g>
    </g>
</svg>