<?xml version="1.0" encoding="UTF-8" standalone="no"?>
<svg width="160px" height="160px" viewBox="0 0 160 160" version="1.1" xmlns="http://www.w3.org/2000/svg" xmlns:xlink="http://www.w3.org/1999/xlink">
    <!-- Generator: Sketch 50.2 (55047) - http://www.bohemiancoding.com/sketch -->
    <title>tile / request / shirts</title>
    <desc>Created with Sketch.</desc>
    <defs></defs>
    <g id="tile-/-request-/-shirts" stroke="none" stroke-width="1" fill="none" fill-rule="evenodd">
        <g id="noun_t-shirt_644778" transform="translate(37.000000, 44.000000)" fill="#A13604" fill-rule="nonzero">
            <path d="M11.4852525,34.67 C12.8694646,35.9944623 15.0510405,35.9944623 16.4352525,34.67 L18.3152525,32.81 C18.4581027,32.6699401 18.6706881,32.6285122 18.8556768,32.704684 C19.0406654,32.7808558 19.1624425,32.9599624 19.1652525,33.16 L19.1652525,66.5 C19.1652525,68.4329966 20.7322559,70 22.6652525,70 L61.6652525,70 C63.5982492,70 65.1652525,68.4329966 65.1652525,66.5 L65.1652525,33.14 C65.1680626,32.9399624 65.2898397,32.7608558 65.4748283,32.684684 C65.6598169,32.6085122 65.8724024,32.6499401 66.0152525,32.79 L67.8952525,34.67 C69.2794646,35.9944623 71.4610405,35.9944623 72.8452525,34.67 L83.3152525,24.24 C83.9717071,23.5836124 84.3405051,22.6933196 84.3405051,21.765 C84.3405051,20.8366804 83.9717071,19.9463876 83.3152525,19.29 L65.3152525,1.29 C64.657206,0.642156997 63.7686529,0.282418906 62.8452525,0.29 L57.6952525,0.29 C57.2648496,0.30518182 56.8410038,0.400123283 56.4452525,0.57 C47.076419,2.83114733 37.304086,2.83114733 27.9352525,0.57 C27.5395013,0.400123283 27.1156555,0.30518182 26.6852525,0.29 L21.4952525,0.29 C20.5718521,0.282418906 19.6832991,0.642156997 19.0252525,1.29 L1.02525254,19.29 C0.368797968,19.9463876 0,20.8366804 0,21.765 C0,22.6933196 0.368797968,23.5836124 1.02525254,24.24 L11.4852525,34.67 Z M42.1852525,5.3 C46.0042125,5.30860831 49.8162168,4.97392839 53.5752525,4.3 C51.05091,8.12578898 46.7738065,10.4279181 42.1902525,10.4279181 C37.6066986,10.4279181 33.3295951,8.12578898 30.8052525,4.3 C34.5610013,4.97333168 38.369632,5.30800925 42.1852525,5.3 Z M3.18525254,21.41 L21.1852525,3.41 C21.2775678,3.31579287 21.4033679,3.26187852 21.5352525,3.26 L26.4152525,3.26 L26.8852525,3.37 C26.9486525,3.41326472 27.0002187,3.47170633 27.0352525,3.54 C29.7294415,9.50933859 35.6710803,13.3464334 42.2202525,13.3464334 C48.7694248,13.3464334 54.7110636,9.50933859 57.4052525,3.54 C57.4387851,3.47646621 57.4867322,3.42166947 57.5452525,3.38 L58.0152525,3.27 L62.9052525,3.27 C63.0371372,3.27187852 63.1629373,3.32579287 63.2552525,3.42 L81.2552525,21.42 C81.3499089,21.5138833 81.4031517,21.6416812 81.4031517,21.775 C81.4031517,21.9083188 81.3499089,22.0361167 81.2552525,22.13 L70.7652525,32.55 C70.6713692,32.6446563 70.5435713,32.6978992 70.4102525,32.6978992 C70.2769338,32.6978992 70.1491358,32.6446563 70.0552525,32.55 L68.1752525,30.67 C67.1773663,29.6514864 65.6613688,29.3401482 64.3428391,29.882943 C63.0243093,30.4257377 62.1668716,31.71414 62.1752525,33.14 L62.1752525,60.81 C61.5721975,61.0160069 61.1669163,61.5827291 61.1669163,62.22 C61.1669163,62.8572709 61.5721975,63.4239931 62.1752525,63.63 L62.1752525,66.53 C62.1752525,66.8061424 61.9513949,67.03 61.6752525,67.03 L22.6752525,67.03 C22.3991102,67.03 22.1752525,66.8061424 22.1752525,66.53 L22.1752525,63.61 C22.7783076,63.4039931 23.1835888,62.8372709 23.1835888,62.2 C23.1835888,61.5627291 22.7783076,60.9960069 22.1752525,60.79 L22.1752525,33.14 C22.1877543,31.7123147 21.3318182,30.4201497 20.0123481,29.8747687 C18.6928781,29.3293877 17.1744066,29.6401309 16.1752525,30.66 L14.3152525,32.55 C14.2213692,32.6446563 14.0935713,32.6978992 13.9602525,32.6978992 C13.8269338,32.6978992 13.6991358,32.6446563 13.6052525,32.55 L3.18525254,22.12 C3.09059621,22.0261167 3.03735338,21.8983188 3.03735338,21.765 C3.03735338,21.6316812 3.09059621,21.5038833 3.18525254,21.41 Z" id="Shape"></path>
            <path d="M45.5,63.2898826 L47.66,63.2898826 C48.4884271,63.2898826 49.16,62.6183097 49.16,61.7898826 C49.16,60.9614554 48.4884271,60.2898826 47.66,60.2898826 L45.5,60.2898826 C44.6715729,60.2898826 44,60.9614554 44,61.7898826 C44,62.6183097 44.6715729,63.2898826 45.5,63.2898826 Z" id="Shape"></path>
            <path d="M54.5,63.2898826 L56.66,63.2898826 C57.4884271,63.2898826 58.16,62.6183097 58.16,61.7898826 C58.16,60.9614554 57.4884271,60.2898826 56.66,60.2898826 L54.5,60.2898826 C53.6715729,60.2898826 53,60.9614554 53,61.7898826 C53,62.6183097 53.6715729,63.2898826 54.5,63.2898826 Z" id="Shape"></path>
            <path d="M37.5,63.2898826 L39.66,63.2898826 C40.4884271,63.2898826 41.16,62.6183097 41.16,61.7898826 C41.16,60.9614554 40.4884271,60.2898826 39.66,60.2898826 L37.5,60.2898826 C36.6715729,60.2898826 36,60.9614554 36,61.7898826 C36,62.6183097 36.6715729,63.2898826 37.5,63.2898826 Z" id="Shape"></path>
            <path d="M28.5,63.2898826 L30.66,63.2898826 C31.4884271,63.2898826 32.16,62.6183097 32.16,61.7898826 C32.16,60.9614554 31.4884271,60.2898826 30.66,60.2898826 L28.5,60.2898826 C27.6715729,60.2898826 27,60.9614554 27,61.7898826 C27,62.6183097 27.6715729,63.2898826 28.5,63.2898826 Z" id="Shape"></path>
        </g>
    </g>
</svg>