<?xml version="1.0" encoding="UTF-8" standalone="no"?>
<svg width="112px" height="112px" viewBox="0 0 112 112" version="1.1" xmlns="http://www.w3.org/2000/svg" xmlns:xlink="http://www.w3.org/1999/xlink">
    <!-- Generator: Sketch 50.2 (55047) - http://www.bohemiancoding.com/sketch -->
    <title>shirts</title>
    <desc>Created with Sketch.</desc>
    <defs></defs>
    <g id="Symbols" stroke="none" stroke-width="1" fill="none" fill-rule="evenodd">
        <g id="tile-/-request-/-shirts" transform="translate(-24.000000, -24.000000)">
            <g id="shirts" transform="translate(24.000000, 24.000000)">
                <rect id="Rectangle-5" fill="#FFFFFF" x="0" y="0" width="112" height="112"></rect>
                <g id="noun_t-shirt_644778" transform="translate(16.000000, 23.000000)"></g>
                <g id="Group" transform="translate(16.000000, 23.000000)" fill="#A13604" fill-rule="nonzero">
                    <path d="M10.9109899,32.9365 C12.2259914,34.1947392 14.2984885,34.1947392 15.6134899,32.9365 L17.3994899,31.1695 C17.5351976,31.0364431 17.7371537,30.9970866 17.9128929,31.0694498 C18.0886321,31.141813 18.2043204,31.3119643 18.2069899,31.502 L18.2069899,63.175 C18.2069899,65.0113468 19.6956431,66.5 21.5319899,66.5 L58.5819899,66.5 C60.4183367,66.5 61.9069899,65.0113468 61.9069899,63.175 L61.9069899,31.483 C61.9096594,31.2929643 62.0253477,31.122813 62.2010869,31.0504498 C62.3768261,30.9780866 62.5787823,31.0174431 62.7144899,31.1505 L64.5004899,32.9365 C65.8154914,34.1947392 67.8879885,34.1947392 69.2029899,32.9365 L79.1494899,23.028 C79.7731218,22.4044318 80.1234798,21.5586536 80.1234798,20.67675 C80.1234798,19.7948464 79.7731218,18.9490682 79.1494899,18.3255 L62.0494899,1.2255 C61.4243457,0.610049147 60.5802203,0.268297961 59.7029899,0.2755 L54.8104899,0.2755 C54.4016071,0.289922729 53.9989536,0.380117119 53.6229899,0.5415 C44.7225981,2.68958997 35.4388817,2.68958997 26.5384899,0.5415 C26.1625262,0.380117119 25.7598727,0.289922729 25.3509899,0.2755 L20.4204899,0.2755 C19.5432595,0.268297961 18.6991341,0.610049147 18.0739899,1.2255 L0.973989911,18.3255 C0.35035807,18.9490682 0,19.7948464 0,20.67675 C0,21.5586536 0.35035807,22.4044318 0.973989911,23.028 L10.9109899,32.9365 Z M40.0759899,5.035 C43.7040018,5.0431779 47.325406,4.72523197 50.8964899,4.085 C48.4983645,7.71949953 44.4351162,9.90652216 40.0807399,9.90652216 C35.7263637,9.90652216 31.6631154,7.71949953 29.2649899,4.085 C32.8329512,4.72466509 36.4511504,5.04260879 40.0759899,5.035 Z M3.02598991,20.3395 L20.1259899,3.2395 C20.2136894,3.15000322 20.3331995,3.0987846 20.4584899,3.097 L25.0944899,3.097 L25.5409899,3.2015 C25.6012199,3.24260149 25.6502077,3.29812101 25.6834899,3.363 C28.2429694,9.03387166 33.8875263,12.6791117 40.1092399,12.6791117 C46.3309536,12.6791117 51.9755104,9.03387166 54.5349899,3.363 C54.5668458,3.3026429 54.6123956,3.25058599 54.6679899,3.211 L55.1144899,3.1065 L59.7599899,3.1065 C59.8852803,3.1082846 60.0047904,3.15950322 60.0924899,3.249 L77.1924899,20.349 C77.2824134,20.4381891 77.3329941,20.5595972 77.3329941,20.68625 C77.3329941,20.8129028 77.2824134,20.9343109 77.1924899,21.0235 L67.2269899,30.9225 C67.1378008,31.0124235 67.0163927,31.0630042 66.8897399,31.0630042 C66.7630871,31.0630042 66.641679,31.0124235 66.5524899,30.9225 L64.7664899,29.1365 C63.818498,28.168912 62.3783004,27.8731408 61.1256971,28.3887958 C59.8730938,28.9044509 59.058528,30.128433 59.0664899,31.483 L59.0664899,57.7695 C58.4935876,57.9652066 58.1085705,58.5035926 58.1085705,59.109 C58.1085705,59.7144074 58.4935876,60.2527934 59.0664899,60.4485 L59.0664899,63.2035 C59.0664899,63.4658353 58.8538252,63.6785 58.5914899,63.6785 L21.5414899,63.6785 C21.2791547,63.6785 21.0664899,63.4658353 21.0664899,63.2035 L21.0664899,60.4295 C21.6393922,60.2337934 22.0244093,59.6954074 22.0244093,59.09 C22.0244093,58.4845926 21.6393922,57.9462066 21.0664899,57.7505 L21.0664899,31.483 C21.0783666,30.126699 20.2652273,28.8991422 19.0117307,28.3810303 C17.7582342,27.8629184 16.3156862,28.1581244 15.3664899,29.127 L13.5994899,30.9225 C13.5103008,31.0124235 13.3888927,31.0630042 13.2622399,31.0630042 C13.1355871,31.0630042 13.014179,31.0124235 12.9249899,30.9225 L3.02598991,21.014 C2.9360664,20.9248109 2.88548571,20.8034028 2.88548571,20.67675 C2.88548571,20.5500972 2.9360664,20.4286891 3.02598991,20.3395 Z" id="Shape"></path>
                    <path d="M43.225,60.1253884 L45.277,60.1253884 C46.0640058,60.1253884 46.702,59.4873942 46.702,58.7003884 C46.702,57.9133827 46.0640058,57.2753884 45.277,57.2753884 L43.225,57.2753884 C42.4379942,57.2753884 41.8,57.9133827 41.8,58.7003884 C41.8,59.4873942 42.4379942,60.1253884 43.225,60.1253884 Z" id="Shape"></path>
                    <path d="M51.775,60.1253884 L53.827,60.1253884 C54.6140058,60.1253884 55.252,59.4873942 55.252,58.7003884 C55.252,57.9133827 54.6140058,57.2753884 53.827,57.2753884 L51.775,57.2753884 C50.9879942,57.2753884 50.35,57.9133827 50.35,58.7003884 C50.35,59.4873942 50.9879942,60.1253884 51.775,60.1253884 Z" id="Shape"></path>
                    <path d="M35.625,60.1253884 L37.677,60.1253884 C38.4640058,60.1253884 39.102,59.4873942 39.102,58.7003884 C39.102,57.9133827 38.4640058,57.2753884 37.677,57.2753884 L35.625,57.2753884 C34.8379942,57.2753884 34.2,57.9133827 34.2,58.7003884 C34.2,59.4873942 34.8379942,60.1253884 35.625,60.1253884 Z" id="Shape"></path>
                    <path d="M27.075,60.1253884 L29.127,60.1253884 C29.9140058,60.1253884 30.552,59.4873942 30.552,58.7003884 C30.552,57.9133827 29.9140058,57.2753884 29.127,57.2753884 L27.075,57.2753884 C26.2879942,57.2753884 25.65,57.9133827 25.65,58.7003884 C25.65,59.4873942 26.2879942,60.1253884 27.075,60.1253884 Z" id="Shape"></path>
                </g>
            </g>
        </g>
    </g>
</svg>