<?xml version="1.0" encoding="UTF-8" standalone="no"?>
<svg width="112px" height="112px" viewBox="0 0 112 112" version="1.1" xmlns="http://www.w3.org/2000/svg" xmlns:xlink="http://www.w3.org/1999/xlink">
    <!-- Generator: Sketch 50.2 (55047) - http://www.bohemiancoding.com/sketch -->
    <title>shoes</title>
    <desc>Created with Sketch.</desc>
    <defs></defs>
    <g id="Symbols" stroke="none" stroke-width="1" fill="none" fill-rule="evenodd">
        <g id="tile-/-request-/-shoes" transform="translate(-24.000000, -24.000000)">
            <g id="shoes" transform="translate(24.000000, 24.000000)">
                <rect id="Rectangle-5" fill="#FFFFFF" x="0" y="0" width="112" height="112"></rect>
                <g id="noun_gumshoes_646410" transform="translate(16.000000, 31.000000)"></g>
                <path d="M93.197,64.435 C91.514,61.492 87.419,58.81 83.468,59.368 C81.9406334,59.5289435 80.4036862,59.5800748 78.869,59.521 L78.671,59.521 C73.1516613,59.2133165 67.8128892,57.4461487 63.2,54.4 L63.155,54.4 C55.955,50.8 48.512,42.367 39.548,31.774 L39.44,31.666 L39.35,31.594 L39.233,31.513 L39.125,31.459 L38.9,31.351 L38.783,31.351 L38.648,31.351 L38.522,31.351 L38.252,31.351 L38.135,31.351 L37.991,31.351 L38,31.351 C35.6913019,32.3092177 33.6453558,33.8058752 32.033,35.716 C28.4707817,36.4829039 24.7833147,36.4552479 21.233,35.635 L21.17,35.635 L21.008,35.635 L20.747,35.635 L20.621,35.635 L20.477,35.635 L20.378,35.635 L20.234,35.707 L20.153,35.761 L20.027,35.86 L20,36.04 L19.901,36.157 L19.838,36.247 L19.739,36.4 L19.739,36.499 C19.7179284,36.5488633 19.6998954,36.5999568 19.685,36.652 C19.685,36.652 19.685,36.697 19.685,36.724 C19.6823858,36.7719644 19.6823858,36.8200356 19.685,36.868 C19.6827335,36.9129715 19.6827335,36.9580285 19.685,37.003 C19.685,37.003 19.685,37.057 19.685,37.084 C20.886391,47.5381991 20.412436,58.1171177 18.281,68.422 C17.458622,69.0100549 16.9695727,69.9580067 16.967,70.969 L16.967,76.747 C16.967,78.486697 18.377303,79.897 20.117,79.897 L91.568,79.897 C93.307697,79.897 94.718,78.486697 94.718,76.747 L94.718,70.969 C94.7058573,70.154099 94.3765476,69.3760242 93.8,68.8 C94.2543312,67.3274159 94.0335544,65.7292556 93.197,64.435 Z M79.886,62.257 L79.994,62.257 C81.2415995,62.2561222 82.4883003,62.1900321 83.729,62.059 L83.792,62.059 C86.492,61.645 89.633,63.661 90.857,65.794 C91.2525806,66.3931649 91.4069051,67.1197762 91.289,67.828 L79.661,67.828 C79.5699922,65.9680048 79.6452914,64.103598 79.886,62.257 Z M38.117,34.276 C39.239,35.614 40.352,36.922 41.456,38.2 L39.449,38.2 C38.7034156,38.2 38.099,38.8044156 38.099,39.55 C38.099,40.2955844 38.7034156,40.9 39.449,40.9 L42.707,40.9 L41.861,44.203 C41.6770892,44.9262169 42.1142831,45.6615892 42.8375,45.8455 C43.5607169,46.0294108 44.2960892,45.5922169 44.48,44.869 L45.128,42.349 C47.252,44.707 49.313,46.849 51.329,48.811 L48.629,49.396 C48.1475864,49.4887497 47.7542962,49.8352041 47.6015704,50.3010758 C47.4488447,50.7669474 47.5606924,51.2790001 47.8937608,51.6387598 C48.2268292,51.9985194 48.728759,52.1494308 49.205,52.033 L52.4,51.322 L52.274,54.724 C52.2486632,55.4663536 52.8277914,56.0897208 53.57,56.119 L53.624,56.119 C54.3489953,56.1195802 54.9450004,55.5474153 54.974,54.823 L55.073,52.123 C57.0838808,53.8480513 59.2709589,55.3563811 61.598,56.623 L59.231,57.937 C58.7417426,58.124148 58.4049129,58.5774299 58.3668768,59.0998764 C58.3288408,59.622323 58.5964655,60.1196114 59.0534572,60.3756499 C59.510449,60.6316884 60.0743022,60.6002515 60.5,60.295 L63.353,58.711 L64.253,62.005 C64.4084222,62.5984961 64.9444909,63.0125629 65.558,63.013 C65.6715512,63.0273061 65.7864488,63.0273061 65.9,63.013 C66.6203958,62.8236762 67.0513311,62.086656 66.863,61.366 L66.305,59.224 C69.7276529,60.8455479 73.4126076,61.842223 77.186,62.167 C76.951886,64.0503416 76.8766206,65.9500398 76.961,67.846 C55.73,67.9 41.753,57.847 34.274,37.3 C35.3528594,36.0586943 36.6567792,35.032659 38.117,34.276 Z M22.448,38.632 C23.8999912,38.8694702 25.3687196,38.9898578 26.84,38.992 C28.5247959,38.9900432 30.2058533,38.8333855 31.862,38.524 C37.433,53.608 46.676,63.4 59.474,67.819 L21.152,67.819 C22.994409,58.2040097 23.4309631,48.3724462 22.448,38.632 Z M67.403,77.197 L20.117,77.197 C19.8684719,77.197 19.667,76.9955281 19.667,76.747 L19.667,75.289 L59.924,75.289 C60.6695844,75.289 61.274,74.6845844 61.274,73.939 C61.274,73.1934156 60.6695844,72.589 59.924,72.589 L19.667,72.589 L19.667,70.969 C19.667,70.7204719 19.8684719,70.519 20.117,70.519 L67.403,70.519 L67.403,77.197 Z M92,76.747 C92,76.9955281 91.7985281,77.197 91.55,77.197 L70.103,77.197 L70.103,70.519 L91.568,70.519 C91.8165281,70.519 92.018,70.7204719 92.018,70.969 L92,76.747 Z" id="Shape" fill="#A13604" fill-rule="nonzero"></path>
                <path d="M30.584,49.981 C27.7358675,49.981 25.427,52.2898675 25.427,55.138 C25.427,57.9861325 27.7358675,60.295 30.584,60.295 C33.4321325,60.295 35.741,57.9861325 35.741,55.138 C35.741,52.2898675 33.4321325,49.981 30.584,49.981 Z M30.584,57.586 C29.2270364,57.586 28.127,56.4859636 28.127,55.129 C28.127,53.7720364 29.2270364,52.672 30.584,52.672 C31.9409636,52.672 33.041,53.7720364 33.041,55.129 C33.041,56.4859636 31.9409636,57.586 30.584,57.586 Z" id="Shape" fill="#A13604" fill-rule="nonzero"></path>
            </g>
        </g>
    </g>
</svg>