<?xml version="1.0" encoding="UTF-8" standalone="no"?>
<svg width="160px" height="160px" viewBox="0 0 160 160" version="1.1" xmlns="http://www.w3.org/2000/svg" xmlns:xlink="http://www.w3.org/1999/xlink">
    <!-- Generator: Sketch 50.2 (55047) - http://www.bohemiancoding.com/sketch -->
    <title>tile / request / sleeping bag</title>
    <desc>Created with Sketch.</desc>
    <defs></defs>
    <g id="tile-/-request-/-sleeping-bag" stroke="none" stroke-width="1" fill="none" fill-rule="evenodd">
        <path d="M101.069095,131 L54.9296482,131 C51.6595477,131 49,128.318475 49,125.022619 L49,31.9786477 C49,28.6815248 51.6595477,26 54.9296482,26 L101.070352,26 C104.340452,26 107,28.6815248 107,31.9786477 L107,125.022619 C106.998744,128.318475 104.339196,131 101.069095,131 Z M54.9296482,28.5333253 C53.0452261,28.5333253 51.5125628,30.0786537 51.5125628,31.9786477 L51.5125628,125.022619 C51.5125628,126.922613 53.0452261,128.466675 54.9296482,128.466675 L101.070352,128.466675 C102.954774,128.466675 104.487437,126.921346 104.487437,125.022619 L104.487437,31.9786477 C104.487437,30.0786537 102.954774,28.5333253 101.070352,28.5333253 L54.9296482,28.5333253 Z" id="Shape" fill="#A13604" fill-rule="nonzero"></path>
        <path d="M67.7777519,87 C67.603124,87 67.4310087,86.9635063 67.268944,86.8917773 C66.9485835,86.7495777 66.7023457,86.479021 66.5892772,86.1480608 L49.0674426,34.6642574 C48.8953273,34.1596376 49.0599047,33.6009065 49.4782578,33.2699463 C49.8953546,32.9402446 50.4757724,32.9100429 50.9267898,33.1931837 L106.414484,68.296349 C106.807711,68.5455129 107.032591,68.9935045 106.996158,69.4591138 C106.959725,69.9247231 106.66826,70.3311874 106.239856,70.5161727 L68.2739966,86.8980693 C68.1169571,86.9660231 67.9473545,87 67.7777519,87 Z M52.5939207,37.2238501 L68.530285,84.046527 L103.057609,69.1482881 L52.5939207,37.2238501 Z" id="Shape" fill="#A13604" fill-rule="nonzero"></path>
        <path d="M104.779667,113 L51.219114,113 C50.5449439,113 50,112.552 50,112 C50,111.448 50.5449439,111 51.219114,111 L104.780886,111 C105.455056,111 106,111.448 106,112 C106,112.552 105.453837,113 104.779667,113 Z" id="Shape" fill="#A13604" fill-rule="nonzero"></path>
        <path d="M104.774671,94 L51.2253293,94 C50.5477222,94 50,93.552 50,93 C50,92.448 50.5477222,92 51.2253293,92 L104.774671,92 C105.452278,92 106,92.448 106,93 C106,93.552 105.452278,94 104.774671,94 Z" id="Shape" fill="#A13604" fill-rule="nonzero"></path>
        <path d="M64.8039728,78 L51.1948324,78 C50.5340901,78 50,77.552 50,77 C50,76.448 50.5340901,76 51.1948324,76 L64.8051676,76 C65.4659099,76 66,76.448 66,77 C66,77.552 65.4647151,78 64.8039728,78 Z" id="Shape" fill="#A13604" fill-rule="nonzero"></path>
        <path d="M104.830895,78 L88.1679371,78 C87.5220679,78 87,77.552 87,77 C87,76.448 87.5220679,76 88.1679371,76 L104.832063,76 C105.477932,76 106,76.448 106,77 C106,77.552 105.476764,78 104.830895,78 Z" id="Shape" fill="#A13604" fill-rule="nonzero"></path>
        <path d="M57.9326376,59 L51.0673624,59 C50.477111,59 50,58.552 50,58 C50,57.448 50.477111,57 51.0673624,57 L57.9326376,57 C58.522889,57 59,57.448 59,58 C59,58.552 58.522889,59 57.9326376,59 Z" id="Shape" fill="#A13604" fill-rule="nonzero"></path>
        <path d="M52.9693378,42 L51.0306622,42 C50.460706,42 50,41.552 50,41 C50,40.448 50.460706,40 51.0306622,40 L52.9693378,40 C53.539294,40 54,40.448 54,41 C54,41.552 53.539294,42 52.9693378,42 Z" id="Shape" fill="#A13604" fill-rule="nonzero"></path>
    </g>
</svg>