<?xml version="1.0" encoding="UTF-8" standalone="no"?>
<svg width="160px" height="160px" viewBox="0 0 160 160" version="1.1" xmlns="http://www.w3.org/2000/svg" xmlns:xlink="http://www.w3.org/1999/xlink">
    <!-- Generator: Sketch 50.2 (55047) - http://www.bohemiancoding.com/sketch -->
    <title>tile / request / soap</title>
    <desc>Created with Sketch.</desc>
    <defs></defs>
    <g id="tile-/-request-/-soap" stroke="none" stroke-width="1" fill="none" fill-rule="evenodd">
        <g id="noun_Soap-Bar_588274" transform="translate(34.000000, 55.000000)" fill="#A13604" fill-rule="nonzero">
            <g id="Group" transform="translate(4.000000, 0.000000)">
                <path d="M15.294,53.283 L15.284,53.283 C7.301,53.283 0.803,46.788 0.798,38.804 L0.781,15.251 C0.776,7.262 7.271,0.758 15.26,0.752 L68.852,0.716 C76.845,0.716 83.344,7.212 83.349,15.196 L83.359,28.87 C85.177,29.739 86.373,31.577 86.373,33.659 C86.375,35.848 85.052,37.772 83.07,38.582 L83.008,38.769 L81.961,38.902 C78.999,39.281 76.824,41.743 76.826,44.641 C76.827,45.934 77.251,47.16 78.051,48.187 L78.909,49.29 L77.81,50.154 C75.233,52.176 72.147,53.245 68.885,53.246 L15.294,53.283 Z M68.859,3.524 L15.261,3.56 C8.822,3.564 3.585,8.808 3.589,15.25 L3.606,38.802 C3.609,45.239 8.848,50.476 15.285,50.476 L15.285,51.879 L15.293,50.476 L68.885,50.439 C71.086,50.438 73.188,49.834 75.033,48.68 C74.369,47.444 74.022,46.073 74.02,44.645 C74.017,40.335 77.246,36.675 81.532,36.13 L81.633,36.107 C82.773,35.832 83.569,34.827 83.567,33.662 C83.567,32.496 82.771,31.493 81.633,31.222 L80.556,30.966 L80.544,15.199 C80.539,8.761 75.297,3.524 68.859,3.524 Z" id="Shape"></path>
                <g transform="translate(11.000000, 12.000000)" id="Shape">
                    <path d="M2.381,7.263 C1.606,7.263 0.977,6.635 0.977,5.86 C0.977,2.922 3.365,0.529 6.302,0.527 C6.302,0.527 6.302,0.527 6.303,0.527 C7.077,0.527 7.706,1.154 7.707,1.929 C7.707,2.704 7.08,3.333 6.305,3.334 C4.914,3.335 3.784,4.468 3.784,5.859 C3.785,6.634 3.157,7.263 2.381,7.263 C2.381,7.263 2.381,7.263 2.381,7.263 Z"></path>
                    <path d="M59.956,7.226 C59.181,7.226 58.553,6.598 58.552,5.823 C58.552,4.432 57.419,3.301 56.029,3.301 C56.028,3.301 56.028,3.301 56.028,3.301 L6.304,3.334 L6.303,3.334 C5.528,3.334 4.9,2.707 4.9,1.932 C4.899,1.157 5.528,0.528 6.303,0.528 L56.027,0.495 C56.027,0.495 56.028,0.495 56.028,0.495 C58.966,0.495 61.357,2.885 61.359,5.823 C61.36,6.597 60.731,7.226 59.956,7.226 Z"></path>
                </g>
                <g transform="translate(11.000000, 34.000000)" id="Shape">
                    <path d="M56.032,7.124 C55.258,7.124 54.629,6.496 54.629,5.722 C54.629,4.947 55.256,4.318 56.031,4.317 C57.422,4.316 58.553,3.183 58.553,1.793 C58.553,1.018 59.181,0.389 59.957,0.389 C60.732,0.389 61.36,1.017 61.36,1.793 C61.36,4.73 58.97,7.122 56.034,7.125 C56.033,7.124 56.033,7.124 56.032,7.124 Z"></path>
                    <path d="M6.31,7.157 C4.885,7.157 3.547,6.603 2.54,5.598 C1.533,4.593 0.979,3.254 0.978,1.83 C0.978,1.055 1.605,0.426 2.381,0.426 C2.381,0.426 2.381,0.426 2.381,0.426 C3.156,0.426 3.784,1.053 3.784,1.829 C3.784,2.504 4.047,3.137 4.523,3.613 C5,4.089 5.633,4.351 6.308,4.351 C6.309,4.351 6.309,4.351 6.309,4.351 L56.031,4.317 C56.806,4.317 57.434,4.945 57.435,5.72 C57.435,6.495 56.807,7.123 56.032,7.124 L6.31,7.157 C6.311,7.157 6.31,7.157 6.31,7.157 Z"></path>
                </g>
                <path d="M82.625,53.239 L82.623,53.239 C77.883,53.239 74.024,49.384 74.019,44.645 C74.018,39.904 77.873,36.042 82.613,36.037 C87.358,36.037 91.218,39.893 91.219,44.634 C91.221,46.93 90.329,49.091 88.705,50.717 C87.082,52.34 84.922,53.237 82.625,53.239 Z M82.614,38.843 C79.422,38.847 76.824,41.448 76.826,44.642 C76.829,47.833 79.429,50.431 82.621,50.431 C84.169,50.43 85.624,49.826 86.718,48.731 C87.812,47.637 88.413,46.181 88.411,44.634 C88.411,41.44 85.811,38.843 82.614,38.843 Z" id="Shape"></path>
                <path d="M81.048,38.993 L81.042,38.993 C78.106,38.993 75.717,36.604 75.715,33.668 C75.714,30.73 78.102,28.337 81.04,28.335 C82.465,28.335 83.804,28.889 84.811,29.895 C85.818,30.902 86.373,32.239 86.373,33.664 C86.375,36.598 83.987,38.989 81.048,38.993 Z M81.043,31.141 C79.652,31.142 78.521,32.275 78.521,33.666 C78.522,35.055 79.652,36.186 81.042,36.186 L81.042,37.59 L81.045,36.186 C82.436,36.184 83.567,35.053 83.566,33.665 C83.565,32.272 82.434,31.141 81.043,31.141 Z" id="Shape"></path>
            </g>
        </g>
    </g>
</svg>