<?xml version="1.0" encoding="UTF-8" standalone="no"?>
<svg width="112px" height="112px" viewBox="0 0 112 112" version="1.1" xmlns="http://www.w3.org/2000/svg" xmlns:xlink="http://www.w3.org/1999/xlink">
    <!-- Generator: Sketch 50.2 (55047) - http://www.bohemiancoding.com/sketch -->
    <title>socks</title>
    <desc>Created with Sketch.</desc>
    <defs></defs>
    <g id="Symbols" stroke="none" stroke-width="1" fill="none" fill-rule="evenodd">
        <g id="tile-/-request-/-socks" transform="translate(-24.000000, -24.000000)">
            <g id="socks" transform="translate(24.000000, 24.000000)">
                <rect id="Rectangle-5" fill="#FFFFFF" x="0" y="0" width="112" height="112"></rect>
                <g id="noun_socks_644795" transform="translate(17.000000, 20.000000)"></g>
                <path d="M29.855,82.2003 C31.6270531,82.198184 33.379159,81.8262457 34.99925,81.108275 L62.8865,68.834275 C67.1145401,66.9550751 69.8433091,62.7664853 69.8538,58.13965 L69.8538,24.882525 C69.8488349,22.4272902 67.8597098,20.4381651 65.404475,20.4332 L48.870675,20.4332 C46.4154402,20.4381651 44.4263151,22.4272902 44.42135,24.882525 L44.42135,49.177825 L24.773925,57.8328 C19.2746063,60.2593217 16.2231836,66.2029296 17.4564333,72.0859229 C18.689683,77.9689161 23.8712242,82.1866509 29.882075,82.2003 L29.855,82.2003 Z M67.1463,58.13965 C67.1341129,61.6919193 65.0392462,64.9066388 61.794475,66.3524 L59.8541,67.209775 C58.0255232,64.2204289 57.8064486,60.5165512 59.2698846,57.3324912 C60.7333206,54.1484312 63.6868936,51.9027443 67.1463,51.343825 L67.1463,58.13965 Z M47.12885,24.882525 C47.1337855,23.9225934 47.9107434,23.1456355 48.870675,23.1407 L65.404475,23.1407 C66.3644066,23.1456355 67.1413645,23.9225934 67.1463,24.882525 L67.1463,27.81565 L47.12885,27.81565 L47.12885,24.882525 Z M46.3166,51.2987 C46.8085128,51.0840149 47.1271411,50.5989918 47.12885,50.062275 L47.12885,30.52315 L67.1463,30.52315 L67.1463,48.57315 C62.7460192,49.1230931 58.9144673,51.8423444 56.9429198,55.8144861 C54.9713724,59.7866278 55.122417,64.4826157 57.34515,68.31985 L36.289825,77.59755 L27.88755,59.4212 L46.3166,51.2987 Z M20.5051,66.0275 C21.3759969,63.6283679 23.1374551,61.6568275 25.423725,60.52225 L33.80795,78.6625 C30.1416915,80.2112737 25.9061737,79.4406358 23.0204053,76.6997431 C20.1346369,73.9588505 19.1470517,69.7686036 20.5051,66.0275 Z" id="Shape" fill="#A13604" fill-rule="nonzero"></path>
                <path d="M72.5613,31.17295 C72.5613,31.9206055 73.1673945,32.5267 73.91505,32.5267 L86.378575,32.5267 C87.3385066,32.5316355 88.1154645,33.3085934 88.1204,34.268525 L88.1204,37.20165 L73.91505,37.20165 C73.1673945,37.20165 72.5613,37.8077445 72.5613,38.5554 C72.5613,39.3030555 73.1673945,39.90915 73.91505,39.90915 L88.129425,39.90915 L88.129425,57.95915 C83.7291442,58.5090931 79.8975923,61.2283444 77.9260448,65.2004861 C75.9544974,69.1726278 76.105542,73.8686157 78.328275,77.70585 L57.27295,86.98355 L52.97705,77.6878 C52.7863302,77.2295096 52.3600844,76.9123547 51.8663211,76.8613447 C51.3725579,76.8103348 50.8904767,77.0336518 50.6100942,77.4432734 C50.3297118,77.8528949 50.2960012,78.3831178 50.52225,78.82495 L54.8001,88.075575 C49.9062342,90.1665527 44.2325508,88.0503363 41.903375,83.26525 C41.5540466,82.6334595 40.770407,82.3869537 40.1222977,82.7049851 C39.4741884,83.0230164 39.1896759,83.7936711 39.47565,84.45655 C42.4622393,90.6028884 49.7822146,93.2770342 56.0275,90.5033 L83.87865,78.2293 C88.1066901,76.3501001 90.8354591,72.1615103 90.84595,67.534675 L90.84595,38.564425 L90.84595,34.268525 C90.8409849,31.8132902 88.8518598,29.8241651 86.396625,29.8192 L73.91505,29.8192 C73.1673945,29.8192 72.5613,30.4252945 72.5613,31.17295 Z M88.129425,67.534675 C88.1172379,71.0869443 86.0223712,74.3016638 82.7776,75.747425 L80.837225,76.6048 C79.0086482,73.6154539 78.7895736,69.9115762 80.2530096,66.7275162 C81.7164456,63.5434562 84.6700186,61.2977693 88.129425,60.73885 L88.129425,67.534675 Z" id="Shape" fill="#A13604" fill-rule="nonzero"></path>
            </g>
        </g>
    </g>
</svg>