<?xml version="1.0" encoding="UTF-8" standalone="no"?>
<svg width="160px" height="160px" viewBox="0 0 160 160" version="1.1" xmlns="http://www.w3.org/2000/svg" xmlns:xlink="http://www.w3.org/1999/xlink">
    <!-- Generator: Sketch 50.2 (55047) - http://www.bohemiancoding.com/sketch -->
    <title>tile / request / toothbrush</title>
    <desc>Created with Sketch.</desc>
    <defs></defs>
    <g id="tile-/-request-/-toothbrush" stroke="none" stroke-width="1" fill="none" fill-rule="evenodd">
        <path d="M109.5,95 L109,95 L109,77.5 C109,77.1474846 108.957499,76.7720901 108.872497,76.3738166 L108.872491,76.3738179 C108.577032,74.9894614 107.354109,74 105.938574,74 L64.2088501,73.9999887 C62.8778218,73.9999887 61.7059363,74.8770005 61.3305922,76.15401 C61.1125072,76.8959866 61.0023098,77.34465 61,77.5 L61,95 L32.5,95 C31.6715729,95 31,95.6715729 31,96.5 C31,97.3284271 31.6715729,98 32.5,98 L109.5,98 C110.880712,98 112,99.1192881 112,100.5 C112,101.880712 110.880712,103 109.5,103 L32.5,103 C31.6715729,103 31,103.671573 31,104.5 C31,105.328427 31.6715729,106 32.5,106 L109.5,106 C112.537566,106 115,103.537566 115,100.5 C115,97.4624339 112.537566,95 109.5,95 Z M106,95 L64,95 L64,77.5 C64,77.2238576 64.2238576,77 64.5,77 L67.43,77 L67.43,90.5 C67.43,91.3284271 68.1015729,92 68.93,92 C69.7584271,92 70.43,91.3284271 70.43,90.5 L70.43,77 L73.86,77 L73.86,90.5 C73.86,91.3284271 74.5315729,92 75.36,92 C76.1884271,92 76.86,91.3284271 76.86,90.5 L76.86,77 L80.29,77 L80.29,90.5 C80.29,91.3284271 80.9615729,92 81.79,92 C82.6184271,92 83.29,91.3284271 83.29,90.5 L83.29,77 L86.72,77 L86.72,90.5 C86.7200001,91.3284271 87.3915729,91.9999999 88.22,91.9999999 C89.0484271,91.9999999 89.7199999,91.3284271 89.72,90.5 L89.72,77 L93.15,77 L93.15,90.5 C93.15,91.3284271 93.8215729,92 94.65,92 C95.4784271,92 96.15,91.3284271 96.15,90.5 L96.15,77 L99.58,77 L99.58,90.5 C99.58,91.3284271 100.251573,92 101.08,92 C101.908427,92 102.58,91.3284271 102.58,90.5 L102.58,77 L105.5,77 C105.776142,77 106,77.2238576 106,77.5 L106,95 Z" id="Shape" fill="#A13604" fill-rule="nonzero"></path>
    </g>
</svg>